<?xml version="1.0" encoding="UTF-8" standalone="no"?><!DOCTYPE svg PUBLIC "-//W3C//DTD SVG 1.1//EN" "http://www.w3.org/Graphics/SVG/1.1/DTD/svg11.dtd"><svg width="100%" height="100%" viewBox="0 0 392 298" version="1.1" xmlns="http://www.w3.org/2000/svg" xmlns:xlink="http://www.w3.org/1999/xlink" xml:space="preserve" xmlns:serif="http://www.serif.com/" style="fill-rule:evenodd;clip-rule:evenodd;stroke-linejoin:round;stroke-miterlimit:2;"><path d="M178.06,26.68l-81,128.67l18.36,18.09l159.89,0l18.31,-18.09l-81,-128.67l-34.56,0Zm30,8.3l75,119.15l-11.16,11l-55.84,-80.19l0,39.59l39.8,40.62l-50,0l-0.21,-98.5c0,-13.25 -20.49,-13.06 -20.49,0l-0.21,98.5l-49.95,0l39.47,-40.62l0.17,-39.59l-55.84,80.21l-11.17,-11l74.98,-119.15l25.45,-0.02Zm-12.73,82.87c1.8,0 4.4,0.41 5.44,1.47l0,45.83l-10.84,0l0,-45.83c1,-1 3.47,-1.46 5.44,-1.47l-0.04,0Z" style="fill:#d9dfde;fill-rule:nonzero;"/><path d="M37,264.72l13.21,0c0.548,0.001 1.092,-0.09 1.61,-0.27c0.496,-0.169 0.956,-0.426 1.36,-0.76c0.386,-0.321 0.706,-0.716 0.94,-1.16c0.236,-0.461 0.356,-0.972 0.35,-1.49l0,-4.34c0.008,-0.518 -0.112,-1.03 -0.35,-1.49c-0.218,-0.449 -0.532,-0.845 -0.92,-1.16c-0.398,-0.336 -0.856,-0.594 -1.35,-0.76c-0.514,-0.181 -1.055,-0.273 -1.6,-0.27l-13.25,0l0,11.7Zm14.26,-2.88l-11.09,0l0,-5.84l11.07,0l0.02,5.84Z" style="fill:#d9dfde;fill-rule:nonzero;"/><path d="M88.62,261.27l0,3.45l3.11,0l0,-3.45l6.88,-8.27l-3.92,0l-4.59,5.34l-4.56,-5.34l-4,0l7.08,8.27Z" style="fill:#d9dfde;fill-rule:nonzero;"/><path d="M125.68,255.61l0,9.11l3.14,0l0,-8.72l8.46,7.78l0.72,0.52c0.207,0.128 0.42,0.245 0.64,0.35c0.194,0.094 0.399,0.164 0.61,0.21c0.671,0.134 1.366,0.068 2,-0.19c0.738,-0.35 1.301,-0.986 1.56,-1.76c0.147,-0.407 0.222,-0.837 0.22,-1.27l0,-8.54l-3.16,0l0,8.71l-8.49,-7.81c-0.685,-0.698 -1.613,-1.107 -2.59,-1.14c-0.399,0 -0.794,0.082 -1.16,0.24c-0.365,0.142 -0.703,0.345 -1,0.6c-0.29,0.25 -0.531,0.552 -0.71,0.89c-0.167,0.335 -0.252,0.705 -0.25,1.08l0.01,-0.06Z" style="fill:#d9dfde;fill-rule:nonzero;"/><path d="M173.64,264.72l1.72,-3.06l6.15,0l1.87,3.06l3.43,0l-4.81,-8.72c-0.26,-0.467 -0.5,-0.883 -0.72,-1.25c-0.201,-0.339 -0.443,-0.651 -0.72,-0.93c-0.25,-0.25 -0.545,-0.45 -0.87,-0.59c-0.369,-0.146 -0.763,-0.217 -1.16,-0.21c-0.413,-0.007 -0.823,0.064 -1.21,0.21c-0.338,0.127 -0.648,0.321 -0.91,0.57c-0.289,0.276 -0.544,0.585 -0.76,0.92c-0.227,0.36 -0.463,0.76 -0.71,1.2l-4.83,8.79l3.53,0.01Zm3.33,-6.05l1.48,-2.49l1.46,2.49l-2.94,0Z" style="fill:#d9dfde;fill-rule:nonzero;"/><path d="M216.9,264.8l0,-8.56l2.93,6c0.171,0.344 0.362,0.677 0.57,1c0.204,0.315 0.442,0.607 0.71,0.87c0.263,0.251 0.564,0.46 0.89,0.62c0.347,0.162 0.727,0.244 1.11,0.24c0.387,0.009 0.772,-0.063 1.13,-0.21c0.309,-0.124 0.588,-0.311 0.82,-0.55c0.257,-0.256 0.479,-0.545 0.66,-0.86c0.193,-0.34 0.39,-0.713 0.59,-1.12l3,-6.13l0,8.59l3,0l0,-8.39c0.001,-0.417 -0.074,-0.83 -0.22,-1.22c-0.142,-0.369 -0.352,-0.709 -0.62,-1c-0.566,-0.647 -1.39,-1.013 -2.25,-1c-0.669,-0.021 -1.328,0.172 -1.88,0.55c-0.547,0.41 -0.958,0.974 -1.18,1.62l-3.16,6.83l-2.81,-6.51c-0.144,-0.352 -0.325,-0.687 -0.54,-1c-0.206,-0.298 -0.456,-0.564 -0.74,-0.79c-0.28,-0.233 -0.598,-0.415 -0.94,-0.54c-0.353,-0.142 -0.73,-0.213 -1.11,-0.21c-0.409,-0.002 -0.814,0.08 -1.19,0.24c-0.373,0.135 -0.713,0.346 -1,0.62c-0.274,0.26 -0.492,0.573 -0.64,0.92c-0.159,0.352 -0.241,0.734 -0.24,1.12l0,8.78l3,0.08l0.11,0.01Z" style="fill:#d9dfde;fill-rule:nonzero;"/><rect x="259.35" y="253" width="3.48" height="11.79" style="fill:#d9dfde;fill-rule:nonzero;"/><path d="M307.58,253l-13,0c-1.25,-0.081 -2.487,0.296 -3.48,1.06c-0.883,0.839 -1.336,2.037 -1.23,3.25l0,3.93c-0.005,0.486 0.116,0.965 0.35,1.39c0.236,0.415 0.548,0.781 0.92,1.08c0.386,0.308 0.823,0.549 1.29,0.71c0.486,0.166 0.996,0.251 1.51,0.25l13.59,0l0,-2.92l-14.39,0l0,-5.75l14.44,0l0,-3Z" style="fill:#d9dfde;fill-rule:nonzero;"/><path d="M349.48,257.42l-11.48,0l0,-1.42l14.81,0l0,-2.87l-13.5,0c-0.576,-0.001 -1.149,0.083 -1.7,0.25c-0.531,0.149 -1.032,0.389 -1.48,0.71c-0.435,0.302 -0.802,0.69 -1.08,1.14c-0.272,0.46 -0.411,0.986 -0.4,1.52c-0.004,0.511 0.116,1.016 0.35,1.47c0.234,0.444 0.554,0.839 0.94,1.16c0.405,0.322 0.861,0.572 1.35,0.74c0.514,0.18 1.055,0.271 1.6,0.27l11.6,0l0,1.39l-15,0l0,2.93l14.07,0c0.532,0 1.059,-0.091 1.56,-0.27c0.484,-0.166 0.934,-0.417 1.33,-0.74c0.384,-0.307 0.704,-0.688 0.94,-1.12c0.236,-0.45 0.356,-0.952 0.35,-1.46c0,-0.5 -0.116,-0.993 -0.34,-1.44c-0.21,-0.449 -0.513,-0.848 -0.89,-1.17c-0.388,-0.347 -0.839,-0.616 -1.33,-0.79c-0.53,-0.203 -1.093,-0.304 -1.66,-0.3l-0.04,0Z" style="fill:#d9dfde;fill-rule:nonzero;"/><path d="M342.48,184.61l-9.11,12l-38.8,0l0,9l46.31,0l0,28l-4.28,4.76l-56.29,0l0,-11.7l46.25,-0.07l0,-9.49l-46,-0.11l-0.06,-28l3.93,-4.42m-28.05,0l14.49,0l0,53.8l-14.48,0m-138.89,-54c60.54,0.07 0,0.07 60.54,0.07l0,11.76l-46.36,0l0,9.37l46.32,0l0,11.6l-46.32,0l0,9.41l46.32,0l0,12l-60.49,0l0,-54.09m130.24,4.5l0,7.47l-46.45,0l0,30.14l32.1,0l0,-9.39l-22.95,0l0.12,-11.68l37.17,0l0,28.09l-4.64,4.57l-51.57,0l-4.53,-4.2l0,-45l4.54,-4.5l51.58,0m-134.2,6.75l0,47.37l-14.53,0l0,-29.35l-10.45,10l-21.44,0l0,19.36l-14.3,0l0,-47.35l6.27,-6.77l48.14,0m-37.1,11.87l-3,3l0,8.2l31.89,0l0,-8.24l-2.64,-3" style="fill:#d9dfde;fill-rule:nonzero;"/></svg>