<?xml version="1.0" encoding="UTF-8" standalone="no"?><!DOCTYPE svg PUBLIC "-//W3C//DTD SVG 1.1//EN" "http://www.w3.org/Graphics/SVG/1.1/DTD/svg11.dtd"><svg width="100%" height="100%" viewBox="0 0 1458 2308" version="1.1" xmlns="http://www.w3.org/2000/svg" xmlns:xlink="http://www.w3.org/1999/xlink" xml:space="preserve" xmlns:serif="http://www.serif.com/" style="fill-rule:evenodd;clip-rule:evenodd;stroke-linejoin:round;stroke-miterlimit:2;"><path id="path64-7" d="M582.002,1446.04l116.559,0l0,555.946l-116.559,-217.37l0,-338.576Z" style="fill:#d9dfde;fill-rule:nonzero;"/><path id="path22-1" d="M728.683,56.693l233.119,539.485c583.015,219.396 595.974,1055.13 -28.515,1270.6l-203.906,383.615l-204.593,-383.615c-595.893,-196.772 -641.037,-1029.29 -30.422,-1269.88m39.394,38.271c-556.241,198.265 -592.574,980.765 25.641,1189.88l169.68,318.602l168.262,-318.602c560.423,-161.491 630.443,-969.059 27.762,-1187.55l-196.422,-451.168" style="fill:#d9dfde;fill-rule:nonzero;"/><path id="path24-0" d="M698.501,353.484l0,979.433l-116.995,0l0,-450.752l-190.489,450.752l-121.618,0l429.102,-979.433Z" style="fill:#d9dfde;fill-rule:nonzero;"/><path id="path28-5" d="M520.514,684.894l-60.343,137.109c-206.559,149.232 -221.537,352.997 -204.833,466.892l-60.229,136.796c-108.103,-272.426 5.935,-608.984 325.405,-740.797Z" style="fill:#d9dfde;fill-rule:nonzero;"/><path id="path60-4" d="M222.78,1443.41c40.553,0 81.105,-0.058 121.658,0.04c-18.126,44.893 -37.972,89.063 -56.43,133.819c-31.609,-38.27 -53.337,-75.176 -73.459,-115.127c2.659,-6.296 5.298,-12.572 8.231,-18.731l0,-0.001Z" style="fill:#d9dfde;fill-rule:nonzero;"/><path id="path68-8" d="M350.027,1509.06c43.665,63.405 133.62,127.251 203.977,154.958l-0.476,98.184c-85.7,-21.133 -199.13,-99.371 -244.079,-156.192c11.872,-33.615 28.676,-68.119 40.578,-96.95l0,0Z" style="fill:#d9dfde;fill-rule:nonzero;"/><path id="path68-8-9" d="M1108.03,1509.06c-43.665,63.404 -133.62,127.25 -203.976,154.957l0.475,98.184c85.7,-21.133 199.131,-99.371 244.08,-156.191c-11.872,-33.616 -28.677,-68.119 -40.579,-96.95Z" style="fill:#d9dfde;fill-rule:nonzero;"/><path id="path60-4-0" d="M1239.69,1443.41c-40.552,0 -81.105,-0.058 -121.657,0.039c18.125,44.893 37.971,89.063 56.429,133.82c31.609,-38.271 53.338,-75.176 73.46,-115.127c-2.659,-6.296 -5.299,-12.573 -8.232,-18.732l0,0Z" style="fill:#d9dfde;fill-rule:nonzero;"/><path id="path64-7-5" d="M875.613,1446.04l-116.558,0l0,555.946l116.558,-217.37l0,-338.576Z" style="fill:#d9dfde;fill-rule:nonzero;"/><path id="path24-0-1" d="M758.987,353.484l0,979.433l116.995,0l0,-450.752l190.49,450.752l121.617,0l-429.102,-979.433Z" style="fill:#d9dfde;fill-rule:nonzero;"/><path id="path28-5-8" d="M937.477,684.894l60.342,137.109c206.559,149.232 221.537,352.997 204.833,466.892l60.23,136.796c108.102,-272.426 -5.936,-608.984 -325.405,-740.797Z" style="fill:#d9dfde;fill-rule:nonzero;"/><g id="text3358"><path id="path3363" d="M279.782,1427.03l0.822,-14.719l-23.938,0l-8.523,14.719l-18.917,0l0.065,-0.203l49.365,-77.455l20.089,0l0.017,77.455l-0.064,0.203l-18.916,0l0,0Zm3.047,-59.69l-20.494,35.023l18.749,0l1.745,-35.023Z" style="fill:#d9dfde;fill-rule:nonzero;"/><path id="path3365" d="M356.252,1427.03l-17.286,-48.828c-0.073,0.677 -0.091,1.354 -0.052,2.031c0.075,0.541 0.076,1.15 0.003,1.827c-0.055,0.609 -0.157,1.184 -0.305,1.725l-11.822,43.245l-18.582,0l21.203,-77.556l16.74,0l17.563,47.813c-0.038,-0.677 -0.076,-1.354 -0.114,-2.03c-0.075,-0.542 -0.086,-1.117 -0.031,-1.726c0.185,-0.677 0.352,-1.286 0.5,-1.827l11.545,-42.23l18.582,0l-21.203,77.556l-16.741,0l0,0Z" style="fill:#d9dfde;fill-rule:nonzero;"/><path id="path3367" d="M426.251,1427.03l-19.084,0l-7.719,-77.456l0.044,-0.203l19.251,0l2.746,53.194l-0.923,6.598l1.927,-6.598l25.88,-53.194l19.084,0l-0.044,0.203l-41.162,77.456l0,0Z" style="fill:#d9dfde;fill-rule:nonzero;"/><path id="path3369" d="M459.987,1427.03l13.807,-77.556l19.084,0l-13.807,77.556l-19.084,0Z" style="fill:#d9dfde;fill-rule:nonzero;"/><path id="path3371" d="M491.266,1427.03l11.341,-77.556l19.084,0l-9.827,67.202l31.136,0l-1.514,10.354l-50.22,0Z" style="fill:#d9dfde;fill-rule:nonzero;"/><path id="path3373" d="M629.234,1427.03l-2.729,-14.719l-23.939,0l-4.971,14.719l-18.917,0l0.016,-0.203l30.677,-77.455l20.088,0l18.706,77.455l-0.015,0.203l-18.917,0l0.001,0Zm-11.355,-59.69l-12.043,35.023l18.748,0l-6.705,-35.023Z" style="fill:#d9dfde;fill-rule:nonzero;"/><path id="path3375" d="M658.153,1427.03l3.451,-77.556l52.564,0l-0.456,10.253l-33.48,0l-1.008,22.637l28.793,0l-0.447,10.05l-28.793,0l-1.084,24.364l33.982,0l-0.456,10.252l-53.066,0Z" style="fill:#d9dfde;fill-rule:nonzero;"/><path id="path3377" d="M769.978,1427.03l-21.093,-36.038l0,-7.004l18.749,0l0,-24.567l-24.106,0l0,67.609l-19.084,0l0,-77.557l50.723,0c7.7,0 11.551,2.369 11.551,7.106l0,28.221c0,4.602 -3.795,6.97 -11.384,7.106l-6.528,0l21.092,34.718l0,0.406l-19.92,0Z" style="fill:#d9dfde;fill-rule:nonzero;"/><path id="path3379" d="M862.333,1419.92c0.087,2.301 -0.85,4.061 -2.812,5.279c-1.962,1.218 -4.785,1.827 -8.468,1.827l-41.515,0c-7.589,0 -11.474,-2.368 -11.655,-7.106l-2.416,-63.344c-0.181,-4.738 3.523,-7.106 11.112,-7.106l41.516,0c3.682,0 6.551,0.609 8.607,1.827c2.055,1.218 3.127,2.978 3.214,5.279l2.417,63.344Zm-21.392,-60.502l-26.282,0l2.2,57.66l26.282,0l-2.2,-57.66Z" style="fill:#d9dfde;fill-rule:nonzero;"/><path id="path3381" d="M937.29,1419.92c0.219,2.301 -0.617,4.061 -2.51,5.279c-1.892,1.218 -4.68,1.827 -8.363,1.827l-38.502,0c-3.683,0 -6.587,-0.609 -8.712,-1.827c-2.125,-1.218 -3.297,-2.978 -3.517,-5.279l-1.762,-18.475l19.084,0l1.51,15.836l23.437,0l-1.453,-15.227l-40.435,-22.029c-1.647,-0.879 -2.847,-1.759 -3.6,-2.639c-0.642,-0.88 -1.034,-2.064 -1.176,-3.553l-1.646,-17.257c-0.219,-2.301 0.617,-4.061 2.51,-5.279c1.893,-1.218 4.68,-1.827 8.363,-1.827l38.503,0c3.682,0 6.586,0.609 8.711,1.827c2.125,1.218 3.294,2.944 3.507,5.177l1.656,17.359l-19.084,0l-1.394,-14.618l-23.436,0l1.336,14.009l40.426,21.927c1.653,0.948 2.8,1.861 3.442,2.741c0.753,0.88 1.201,2.064 1.343,3.553l1.762,18.475Z" style="fill:#d9dfde;fill-rule:nonzero;"/><path id="path3383" d="M1007.5,1391.7c0.278,2.301 -0.51,4.094 -2.363,5.38c-1.862,1.218 -4.69,1.827 -8.484,1.827l-30.97,0l3.397,28.119l-19.084,0l-9.368,-77.556l50.053,0c7.812,0 12.004,2.368 12.576,7.106l4.243,35.124Zm-23.151,-32.282l-23.436,0l3.569,29.541l23.436,0l-3.569,-29.541Z" style="fill:#d9dfde;fill-rule:nonzero;"/><path id="path3385" d="M1065.4,1427.03l-6.748,-14.719l-23.938,0l-0.953,14.719l-18.917,0l-0.04,-0.203l9.53,-77.455l20.088,0l39.854,77.455l0.04,0.203l-18.916,0Zm-27.653,-59.69l-2.481,35.023l18.749,0l-16.268,-35.023Z" style="fill:#d9dfde;fill-rule:nonzero;"/><path id="path3387" d="M1155.1,1419.92c1.114,4.738 -2.234,7.106 -10.046,7.106l-39.842,0c-7.589,0 -11.941,-2.368 -13.055,-7.106l-14.901,-63.344c-1.115,-4.738 2.123,-7.106 9.711,-7.106l39.842,0c7.812,0 12.275,2.368 13.39,7.106l4.274,18.171l-19.084,0l-3.605,-15.329l-24.776,0l13.564,57.66l24.776,0l-3.845,-16.344l19.084,0l4.513,19.186Z" style="fill:#d9dfde;fill-rule:nonzero;"/><path id="path3389" d="M1171.72,1427.03l-23.669,-77.556l52.564,0l3.129,10.253l-33.48,0l6.908,22.637l28.793,0l3.067,10.05l-28.793,0l7.435,24.364l33.983,0l3.129,10.252l-53.066,0Z" style="fill:#d9dfde;fill-rule:nonzero;"/></g></svg>