<?xml version="1.0" encoding="UTF-8" standalone="no"?><!DOCTYPE svg PUBLIC "-//W3C//DTD SVG 1.1//EN" "http://www.w3.org/Graphics/SVG/1.1/DTD/svg11.dtd"><svg width="100%" height="100%" viewBox="0 0 500 500" version="1.1" xmlns="http://www.w3.org/2000/svg" xmlns:xlink="http://www.w3.org/1999/xlink" xml:space="preserve" xmlns:serif="http://www.serif.com/" style="fill-rule:evenodd;clip-rule:evenodd;stroke-linejoin:round;stroke-miterlimit:2;"><path d="M208,167.16c-5.235,5.528 -9.339,12.027 -12.08,19.13c-5.695,14.59 -5.418,30.852 0.77,45.24c9.151,21.434 30.312,35.409 53.618,35.409c24.038,0 45.719,-14.867 54.382,-37.289c5.71,-14.586 5.44,-30.851 -0.75,-45.24c-9.052,-21.518 -30.228,-35.584 -53.573,-35.584c-16.04,0 -31.386,6.641 -42.367,18.334Zm95,17.65c12.576,29.155 -0.811,63.497 -29.8,76.45c-7.203,3.186 -14.994,4.831 -22.87,4.83c-22.949,-0.067 -43.75,-13.877 -52.72,-35c-12.61,-29.153 0.787,-63.522 29.8,-76.45c7.2,-3.186 14.987,-4.832 22.86,-4.83c22.96,0.037 43.78,13.856 52.73,35Z" style="fill:#d9dfde;fill-rule:nonzero;"/><path d="M292.18,349.87c0.576,-0.878 1.368,-1.595 2.3,-2.08c1.163,-0.641 2.484,-0.943 3.81,-0.87l37.85,0c0.007,0 0.014,0 0.021,0c1.766,0 3.22,-1.453 3.22,-3.22c0,-0.023 0,-0.047 -0.001,-0.07c0.014,-0.859 -0.33,-1.685 -0.95,-2.28c-0.584,-0.653 -1.425,-1.018 -2.3,-1l-39.33,0c-1.831,-0.029 -3.634,0.46 -5.2,1.41c-1.523,0.891 -2.853,2.077 -3.91,3.49c-1.084,1.439 -1.916,3.052 -2.46,4.77c-0.554,1.692 -0.837,3.46 -0.84,5.24c0.011,1.754 0.284,3.497 0.81,5.17c0.501,1.729 1.289,3.361 2.33,4.83c0.978,1.4 2.23,2.587 3.68,3.49c1.467,0.949 3.183,1.44 4.93,1.41l35.13,0c1.09,-0.015 2.167,-0.243 3.17,-0.67c0.974,-0.406 1.857,-1.001 2.6,-1.75c0.733,-0.78 1.316,-1.689 1.72,-2.68c0.408,-1.024 0.615,-2.118 0.61,-3.22l0,-1.54c0.005,-1.102 -0.202,-2.196 -0.61,-3.22c-0.763,-2.011 -2.329,-3.617 -4.32,-4.43c-0.993,-0.458 -2.076,-0.687 -3.17,-0.67l-25.85,0c-0.007,0 -0.014,0 -0.021,0c-1.766,0 -3.22,1.453 -3.22,3.22c0,0.023 0,0.047 0.001,0.07c-0.001,0.023 -0.001,0.047 -0.001,0.07c0,1.767 1.454,3.22 3.22,3.22c0.017,0 0.034,0 0.051,0l25.55,0c0.594,-0.006 1.158,0.268 1.52,0.74c0.382,0.503 0.586,1.119 0.58,1.75c0.008,0.665 -0.231,1.31 -0.67,1.81c-0.356,0.441 -0.884,0.71 -1.45,0.74l-32.69,0c-1.326,0.073 -2.647,-0.229 -3.81,-0.87c-0.932,-0.485 -1.724,-1.202 -2.3,-2.08c-0.567,-0.803 -0.959,-1.716 -1.15,-2.68c-0.403,-1.767 -0.403,-3.603 0,-5.37c0.184,-0.982 0.576,-1.912 1.15,-2.73Z" style="fill:#d9dfde;fill-rule:nonzero;"/><path d="M331.16,393.56l-2.91,0l0,15.37l-12.87,0l0,-15.37l-3,0l0,13.69c-0.127,1.166 0.183,2.339 0.87,3.29c0.928,0.73 2.106,1.067 3.28,0.94l10.47,0c1.168,0.128 2.34,-0.21 3.26,-0.94c0.693,-0.948 1.001,-2.124 0.86,-3.29l0.04,-13.69Z" style="fill:#d9dfde;fill-rule:nonzero;"/><path d="M212.7,350.67l0,-1.34c0.011,-4.584 -3.746,-8.368 -8.33,-8.39l-40.9,0c-1.77,0.038 -3.198,1.52 -3.17,3.29l0,23.22c0,0.013 0,0.027 0,0.04c0,1.741 1.429,3.175 3.17,3.18c0.003,0 0.007,0 0.01,0c1.766,0 3.22,-1.454 3.22,-3.22c0,0 0,0 0,0l0,-8.39l26.18,0c2.404,0.15 4.685,1.121 6.46,2.75l7.93,7.92c0.595,0.611 1.412,0.957 2.265,0.957c0.853,0 1.67,-0.346 2.265,-0.957c1.232,-1.259 1.232,-3.301 0,-4.56l-6.18,-6.24c4.058,-0.624 7.084,-4.154 7.08,-8.26Zm-8.32,1.88l-37.67,0l0,-5.17l37.66,0c1.052,0.037 1.904,0.898 1.93,1.95l0,1.34c-0.016,1.044 -0.886,1.891 -1.93,1.88l0.01,0Z" style="fill:#d9dfde;fill-rule:nonzero;"/><path d="M288.88,407.06l2.26,4.43l3.24,0l-9.81,-17.92l-3.16,0l-9.65,17.92l2.91,0l2.26,-4.43l11.95,0Zm-6,-11.41l4.77,9.13l-9.51,0l4.74,-9.13Z" style="fill:#d9dfde;fill-rule:nonzero;"/><path d="M423.13,370.67l35.8,0c4.582,-0.022 8.336,-3.808 8.32,-8.39l0,-13c0.016,-4.582 -3.738,-8.368 -8.32,-8.39l-35.8,0c-4.582,0.022 -8.336,3.808 -8.32,8.39l0,13c-0.016,4.582 3.738,8.368 8.32,8.39Zm-1.92,-21.35c0.025,-1.049 0.872,-1.908 1.92,-1.95l35.8,0c1.048,0.042 1.895,0.901 1.92,1.95l0,13c-0.025,1.049 -0.872,1.908 -1.92,1.95l-35.78,0c-1.056,-0.031 -1.914,-0.894 -1.94,-1.95l0,-13Z" style="fill:#d9dfde;fill-rule:nonzero;"/><path d="M75.3,406.72l0,0.54c-0.142,1.167 0.169,2.346 0.87,3.29c0.927,0.731 2.106,1.069 3.28,0.94l10.32,0c1.161,0.127 2.327,-0.211 3.24,-0.94c0.684,-0.952 0.987,-2.126 0.85,-3.29l0,-2c0.136,-1.189 -0.174,-2.387 -0.87,-3.36c-0.923,-0.698 -2.082,-1.01 -3.23,-0.87l-11.13,0l0,-5l12.49,0l0,2.55l2.52,-0.74l0,-0.34c0.116,-1.106 -0.203,-2.215 -0.89,-3.09c-0.949,-0.667 -2.105,-0.975 -3.26,-0.87l-9.39,0c-1.168,-0.128 -2.34,0.21 -3.26,0.94c-0.684,0.952 -0.987,2.126 -0.85,3.29l0,1.54c-0.134,1.186 0.168,2.381 0.85,3.36c0.931,0.704 2.102,1.016 3.26,0.87l11.1,0l0,5.37l-13.2,0l0,-2.82l-2.7,0.63Z" style="fill:#d9dfde;fill-rule:nonzero;"/><path d="M360.9,411.49l0,-15.44l8.14,0l0,-2.49l-19.13,0l0,2.49l8.05,0l0,15.44l2.94,0Z" style="fill:#d9dfde;fill-rule:nonzero;"/><path d="M209.31,394.5c-0.92,-0.73 -2.092,-1.068 -3.26,-0.94l-12.21,0c-1.177,-0.13 -2.359,0.208 -3.29,0.94c-0.68,0.954 -0.986,2.125 -0.86,3.29l0,9.46c-0.126,1.165 0.18,2.336 0.86,3.29c0.931,0.731 2.113,1.069 3.29,0.94l12.22,0c1.168,0.128 2.34,-0.21 3.26,-0.94c0.687,-0.951 0.994,-2.125 0.86,-3.29l0,-9.46c0.131,-1.166 -0.179,-2.341 -0.87,-3.29Zm-2,14.43l-14.68,0l0,-12.93l14.63,0l0.05,12.93Z" style="fill:#d9dfde;fill-rule:nonzero;"/><path d="M123.36,411.49l0,-15.44l8.11,0l0,-2.49l-19.12,0l0,2.49l8.05,0l0,15.44l2.96,0Z" style="fill:#d9dfde;fill-rule:nonzero;"/><rect x="34.01" y="379.27" width="433.26" height="4.03" style="fill:#d9dfde;"/><path d="M247.92,405.51l-13.23,-11.95l-1.85,0l0,17.92l2.68,0l0,-10.53l0,-2.22c0,-0.61 -0.09,-1.21 -0.15,-1.75c0.389,0.664 0.89,1.256 1.48,1.75c0.079,0.111 0.181,0.203 0.3,0.27l13.58,12.48l1.65,0l0,-17.92l-2.68,0l0,9.8c0,1.14 0,2 0.07,2.62c0.07,0.62 0.11,1.21 0.2,1.81c-0.38,-0.47 -0.7,-0.87 -1,-1.28c-0.326,-0.358 -0.677,-0.692 -1.05,-1Z" style="fill:#d9dfde;fill-rule:nonzero;"/><path d="M167.24,403.7c0.636,-0.741 0.953,-1.706 0.88,-2.68l0,-4c0.073,-0.974 -0.244,-1.939 -0.88,-2.68c-0.824,-0.614 -1.847,-0.902 -2.87,-0.81l-14.24,0l0,17.92l2.93,0l0,-7l5.2,0l7.19,7l4.38,0l-8.05,-7l2.59,0c1.016,0.109 2.037,-0.158 2.87,-0.75Zm-14.16,-1.54l0,-6.24l10.12,0c0.536,-0.062 1.075,0.081 1.51,0.4c0.31,0.401 0.457,0.905 0.41,1.41l0,2.62c0.05,0.504 -0.093,1.008 -0.4,1.41c-0.431,0.318 -0.968,0.461 -1.5,0.4l-10.14,0Z" style="fill:#d9dfde;fill-rule:nonzero;"/><rect x="385.79" y="393.56" width="2.73" height="17.92" style="fill:#d9dfde;"/><path d="M281.74,283.6c31.563,-12.978 52.274,-43.886 52.274,-78.013c0,-46.273 -38.077,-84.35 -84.35,-84.35c-46.273,0 -84.35,38.077 -84.35,84.35c0,22.201 8.765,43.528 24.376,59.313c24.004,24.272 60.478,31.681 92.05,18.7Zm18,-126.44c19.101,24.281 20.783,58.187 4.18,84.24c-1.666,2.317 -3.49,4.515 -5.46,6.58c-6.054,6.47 -13.354,11.651 -21.46,15.23c-8.286,3.649 -17.246,5.523 -26.3,5.5c-26.407,-0.035 -50.363,-15.901 -60.7,-40.2c-10.569,-24.585 -5.549,-53.233 12.75,-72.76c6.077,-6.461 13.401,-11.622 21.53,-15.17c8.29,-3.68 17.26,-5.581 26.33,-5.58c18.787,0.032 36.69,8.099 49.16,22.15l-0.03,0.01Zm-55.74,-27.16c16.569,-0.009 32.623,5.817 45.33,16.45c-11.303,-8.061 -24.837,-12.412 -38.72,-12.45c-9.195,0.005 -18.289,1.926 -26.7,5.64c-33.857,15.118 -49.492,55.226 -34.8,89.27c10.354,24.712 34.651,40.876 61.445,40.876c16.144,0 31.751,-5.869 43.895,-16.506c-13.294,13.525 -31.486,21.148 -50.45,21.14c-38.972,-0.917 -70.53,-33.227 -70.53,-72.21c0,-38.983 31.558,-71.293 70.53,-72.21Z" style="fill:#d9dfde;fill-rule:nonzero;"/><path d="M211.3,296.42c26.331,10.5 55.809,9.988 81.76,-1.42c53.743,-23.996 78.562,-87.661 55.24,-141.7c-16.463,-39.198 -55.023,-64.826 -97.537,-64.826c-14.65,0 -29.141,3.043 -42.553,8.936c-53.752,23.987 -78.565,87.67 -55.21,141.7c10.964,26.133 31.983,46.795 58.3,57.31Zm-37.05,-173.83c9.705,-10.305 21.388,-18.549 34.35,-24.24c13.225,-5.861 27.535,-8.879 42,-8.86c42.129,0.127 80.317,25.469 96.8,64.24c16.842,39.248 8.811,84.962 -20.4,116.12c-19.83,21.036 -47.494,32.975 -76.403,32.975c-42.112,0 -80.323,-25.335 -96.717,-64.125c-16.845,-39.24 -8.826,-84.948 20.37,-116.11Z" style="fill:#d9dfde;fill-rule:nonzero;"/><path d="M200.19,284.22c36.998,24.147 86.464,18.213 116.7,-14c8.22,-8.725 14.673,-18.961 19,-30.14c9.004,-23.006 8.569,-48.662 -1.21,-71.35c-7.198,-16.876 -19.241,-31.244 -34.6,-41.28c-37.022,-24.118 -86.488,-18.142 -116.7,14.1c-8.218,8.727 -14.67,18.962 -19,30.14c-8.98,22.996 -8.548,48.629 1.2,71.31c7.206,16.858 19.253,31.206 34.61,41.22Zm13.61,-163c11.429,-5.058 23.792,-7.664 36.29,-7.65c36.418,0.088 69.438,21.992 83.68,55.51c19.992,46.276 -1.259,100.811 -47.29,121.36c-11.49,5.049 -23.905,7.656 -36.455,7.656c-36.413,0 -69.44,-21.946 -83.545,-55.516c-19.992,-46.278 1.276,-100.815 47.32,-121.34l0,-0.02Z" style="fill:#d9dfde;fill-rule:nonzero;"/><path d="M37.23,370.07c0.003,0 0.007,0 0.01,0c1.73,0 3.155,-1.42 3.16,-3.15l0,-8.46l39.6,0l0,8.46c0.005,1.73 1.43,3.15 3.16,3.15c0.003,0 0.007,0 0.01,0c1.746,0.011 3.197,-1.404 3.23,-3.15l0,-18.13c0.022,-4.604 -3.736,-8.416 -8.34,-8.46l-35.74,0c-4.596,0.055 -8.342,3.863 -8.32,8.46l0,18.12c0.027,1.75 1.48,3.171 3.23,3.16Zm3.18,-21.28c0.026,-1.052 0.878,-1.913 1.93,-1.95l35.78,0c1.033,0.062 1.856,0.916 1.88,1.95l0,3.21l-39.59,0l0,-3.21Z" style="fill:#d9dfde;fill-rule:nonzero;"/><path d="M53.39,411.49l3.25,0l-9.82,-17.92l-3.15,0l-9.67,17.92l2.91,0l2.26,-4.43l12,0l2.22,4.43Zm-13,-6.71l4.75,-9.13l4.77,9.13l-9.52,0Z" style="fill:#d9dfde;fill-rule:nonzero;"/><path d="M428,405.11l-3,-0.6l0,4.43l-12.2,0l0,-12.94l12.2,0l0,4l3,-0.6l0,-1.68c0.126,-1.185 -0.175,-2.377 -0.85,-3.36c-0.945,-0.676 -2.104,-0.985 -3.26,-0.87l-9.89,0c-1.174,-0.129 -2.353,0.209 -3.28,0.94c-0.701,0.944 -1.012,2.123 -0.87,3.29l0,9.46c-0.142,1.167 0.169,2.346 0.87,3.29c0.927,0.731 2.106,1.069 3.28,0.94l9.9,0c1.168,0.132 2.341,-0.207 3.26,-0.94c0.684,-0.952 0.987,-2.126 0.85,-3.29l-0.01,-2.07Z" style="fill:#d9dfde;fill-rule:nonzero;"/><path d="M466.4,401.89c-0.922,-0.7 -2.081,-1.012 -3.23,-0.87l-11.17,0l0,-5l12.52,0l0,2.55l2.52,-0.74l0,-0.34c0.113,-1.107 -0.21,-2.217 -0.9,-3.09c-0.946,-0.666 -2.098,-0.974 -3.25,-0.87l-9.4,0c-1.168,-0.129 -2.34,0.209 -3.26,0.94c-0.684,0.952 -0.987,2.126 -0.85,3.29l0,1.54c-0.138,1.186 0.164,2.382 0.85,3.36c0.931,0.704 2.102,1.017 3.26,0.87l11.08,0l0,5.37l-13.11,0l0,-2.82l-2.74,0.6l0,0.54c-0.138,1.167 0.173,2.344 0.87,3.29c0.927,0.731 2.106,1.069 3.28,0.94l10.31,0c1.162,0.13 2.328,-0.209 3.24,-0.94c0.687,-0.951 0.994,-2.125 0.86,-3.29l0,-2c0.127,-1.18 -0.187,-2.367 -0.88,-3.33Z" style="fill:#d9dfde;fill-rule:nonzero;"/></svg>