<?xml version="1.0" encoding="UTF-8" standalone="no"?>
<!DOCTYPE svg PUBLIC "-//W3C//DTD SVG 1.1//EN" "http://www.w3.org/Graphics/SVG/1.1/DTD/svg11.dtd">
<svg width="100%" height="100%" viewBox="0 0 80 80" version="1.1" xmlns="http://www.w3.org/2000/svg" xmlns:xlink="http://www.w3.org/1999/xlink" xml:space="preserve" xmlns:serif="http://www.serif.com/" style="fill-rule:evenodd;clip-rule:evenodd;stroke-linejoin:round;stroke-miterlimit:2;">
    <path d="M76.25,17.073C76.891,16.709 77.752,16.281 78.483,15.928C75.64,9.452 69.168,4.914 61.653,4.914C54.946,4.914 49.065,8.527 45.858,13.911C44.121,12.777 42.051,12.118 39.829,12.118C37.672,12.118 35.659,12.739 33.953,13.812C31.022,8.967 25.911,5.573 19.989,5.005C19.405,4.948 18.813,4.918 18.214,4.918C17.968,4.918 17.725,4.925 17.482,4.936C10.396,5.213 4.33,9.524 1.517,15.628L3.655,16.99C5.9,11.826 10.817,8.083 16.648,7.511L16.648,10.343C10.188,11.12 5.164,16.629 5.164,23.299C5.164,29.968 10.188,35.469 16.648,36.246L16.648,39.079C11.249,38.548 6.635,35.302 4.197,30.726L1.915,31.765C4.58,36.872 9.57,40.58 15.477,41.464C12.724,43.321 10.502,45.903 9.081,48.936L11.412,49.869C13.482,45.547 17.456,42.305 22.237,41.225C22.282,41.213 22.324,41.206 22.37,41.198C23.454,40.963 24.58,40.838 25.736,40.838C29.338,40.838 32.664,42.047 35.329,44.076L33.103,45.941C31.007,44.5 28.466,43.655 25.736,43.655C19.215,43.655 13.793,48.463 12.834,54.722C12.736,55.371 12.682,56.03 12.682,56.705C12.682,56.88 12.69,57.054 12.694,57.228C12.895,62.328 16.038,66.681 20.47,68.641L21.027,66.131C17.718,64.47 15.39,61.13 15.2,57.228L20.224,57.228C20.209,57.058 20.197,56.883 20.197,56.705C20.197,56.004 20.334,55.336 20.573,54.722C21.373,52.648 23.382,51.173 25.733,51.173C28.785,51.173 31.268,53.657 31.268,56.709C31.268,59.439 29.278,61.71 26.673,62.157C26.366,62.21 26.055,62.245 25.733,62.245C25.191,62.245 24.664,62.165 24.167,62.017L24.167,72.5C18.457,71.939 13.63,68.337 11.321,63.344L8.963,64.201C11.837,70.609 18.271,75.082 25.736,75.082C31.45,75.082 36.565,72.459 39.936,68.356C43.31,72.459 48.421,75.082 54.135,75.082C61.793,75.082 68.368,70.373 71.124,63.697L68.762,62.844C68.193,64.193 67.446,65.448 66.544,66.574L64.69,64.364C66.085,62.449 66.969,60.14 67.147,57.642C67.17,57.331 67.185,57.02 67.185,56.701C67.185,56.171 67.151,55.647 67.086,55.136C67.029,54.677 66.95,54.229 66.847,53.786C65.964,49.937 63.382,46.73 59.928,45.012L59.064,47.393C61.429,48.652 63.264,50.779 64.129,53.357C64.322,53.93 64.466,54.525 64.561,55.136C64.58,55.272 64.591,55.412 64.607,55.553L59.666,55.553L59.666,56.701C59.666,57.024 59.632,57.335 59.579,57.642C59.132,60.246 56.861,62.237 54.131,62.237C51.079,62.237 48.595,59.754 48.595,56.701C48.595,54.491 49.9,52.588 51.776,51.7C52.493,51.363 53.289,51.166 54.131,51.166C54.165,51.166 54.195,51.17 54.229,51.17L53.566,48.686L52.906,46.226L52.25,43.784C51.412,43.905 50.597,44.11 49.816,44.383C46.885,45.414 44.432,47.462 42.878,50.1C42.176,51.291 41.661,52.595 41.365,53.987C41.179,54.863 41.081,55.769 41.081,56.698C41.081,57.627 41.179,58.536 41.365,59.409C41.661,60.8 42.176,62.104 42.878,63.295C45.149,67.151 49.342,69.748 54.131,69.748C57.555,69.748 60.675,68.421 63.007,66.252L64.823,68.413C61.998,70.991 58.248,72.565 54.131,72.565C48.948,72.565 44.341,70.07 41.441,66.218C40.864,65.452 40.36,64.633 39.928,63.773C39.496,64.637 38.991,65.456 38.415,66.218C38.131,66.597 37.827,66.961 37.509,67.314L35.663,65.141L35.674,65.13C36.159,64.557 36.595,63.947 36.978,63.295C37.68,62.104 38.195,60.8 38.491,59.409C38.677,58.533 38.775,57.627 38.775,56.698C38.775,55.769 38.677,54.859 38.491,53.987C38.195,52.595 37.68,51.291 36.978,50.1C36.436,49.179 35.784,48.33 35.041,47.568L37.202,45.752C37.63,46.203 38.036,46.677 38.411,47.173C38.988,47.939 39.492,48.758 39.924,49.619C40.356,48.755 40.861,47.936 41.437,47.173C40.982,46.427 40.478,45.718 39.924,45.046C37.1,41.611 33.058,39.215 28.463,38.525C27.568,38.392 26.654,38.32 25.721,38.32C23.716,38.32 21.786,38.646 19.977,39.245C19.693,39.34 19.42,39.45 19.143,39.556L19.143,36.3C19.424,36.277 19.704,36.25 19.977,36.212C24.531,35.591 28.341,32.61 30.142,28.55C30.654,29.471 31.295,30.313 32.038,31.048C32.637,31.644 33.304,32.167 34.028,32.61C35.435,33.475 37.046,34.036 38.772,34.199C39.117,34.233 39.462,34.248 39.814,34.248C40.311,34.248 40.796,34.21 41.278,34.15L41.278,27.321C40.819,27.484 40.33,27.575 39.814,27.575C39.454,27.575 39.105,27.526 38.772,27.446C37.816,27.211 36.982,26.669 36.387,25.922C35.784,25.172 35.424,24.22 35.424,23.185C35.424,22.165 35.776,21.225 36.364,20.478C37.168,19.454 38.415,18.794 39.814,18.794C41.319,18.794 42.654,19.556 43.443,20.717C43.924,21.422 44.205,22.271 44.205,23.185C44.205,23.708 44.11,24.209 43.939,24.671L46.222,25.687C46.529,24.91 46.707,24.072 46.707,23.185C46.707,22.142 46.468,21.156 46.051,20.269C45.596,19.299 44.925,18.449 44.095,17.79C42.916,16.849 41.429,16.284 39.807,16.284C38.26,16.284 36.838,16.8 35.685,17.664C34.87,18.275 34.191,19.056 33.71,19.962C33.198,20.925 32.906,22.021 32.906,23.185C32.906,24.375 33.209,25.494 33.74,26.472C34.229,27.371 34.919,28.144 35.738,28.747C36.614,29.388 37.642,29.824 38.76,29.994L38.76,31.674C37.441,31.511 36.216,31.052 35.151,30.358C34.396,29.865 33.721,29.263 33.156,28.565C31.962,27.094 31.242,25.221 31.242,23.181C31.242,21.172 31.943,19.325 33.107,17.862C33.664,17.16 34.332,16.546 35.079,16.045C36.432,15.143 38.059,14.616 39.803,14.616C41.619,14.616 43.302,15.189 44.686,16.155C45.437,16.679 46.093,17.319 46.643,18.051C46.95,17.172 47.333,16.326 47.784,15.526C48.375,14.476 49.077,13.498 49.881,12.614L51.716,14.798C50.866,15.788 50.161,16.906 49.638,18.116C48.952,19.7 48.569,21.445 48.569,23.28C48.569,25.069 48.933,26.775 49.589,28.334C51.424,32.694 55.564,35.848 60.474,36.281L60.474,39.109C54.973,38.715 50.237,35.503 47.708,30.912C47.117,31.518 46.457,32.053 45.74,32.512C47.143,34.916 49.065,36.974 51.367,38.525C54.002,40.303 57.118,41.414 60.474,41.623C60.853,41.645 61.236,41.661 61.623,41.661C61.831,41.661 62.036,41.653 62.241,41.645C62.487,41.634 62.734,41.623 62.98,41.604L62.98,31.196C66.768,30.548 69.664,27.249 69.664,23.28C69.664,18.847 66.059,15.238 61.623,15.238C57.581,15.238 54.233,18.241 53.676,22.131L51.143,22.131C51.716,16.853 56.197,12.732 61.627,12.732C67.443,12.732 72.171,17.464 72.171,23.276C72.171,27.575 69.581,31.276 65.881,32.914L66.677,35.306C71.371,33.327 74.673,28.682 74.673,23.276C74.673,16.08 68.819,10.226 61.623,10.226C58.567,10.226 55.754,11.283 53.524,13.05L51.712,10.893C54.43,8.713 57.873,7.405 61.619,7.405C68.197,7.424 73.827,11.405 76.25,17.073ZM16.648,33.718C11.575,32.959 7.67,28.576 7.67,23.295C7.67,18.013 11.575,13.63 16.648,12.872L16.648,33.718ZM54.135,67.253C49.225,67.253 45.092,63.882 43.92,59.333C43.704,58.491 43.591,57.611 43.591,56.705C43.591,55.799 43.704,54.919 43.92,54.078C44.785,50.722 47.261,48.011 50.472,46.817L51.124,49.255C48.178,50.449 46.097,53.335 46.097,56.705C46.097,61.137 49.702,64.747 54.138,64.747C58.108,64.747 61.403,61.85 62.051,58.063L64.595,58.063C63.92,63.238 59.488,67.253 54.135,67.253ZM35.947,54.078C36.163,54.919 36.277,55.799 36.277,56.705C36.277,57.611 36.163,58.491 35.947,59.333C35.579,60.766 34.908,62.078 34.021,63.208C33.501,63.867 32.902,64.466 32.243,64.986L33.869,66.9L35.693,69.05C33.194,71.071 30.078,72.349 26.673,72.546L26.673,64.682C30.665,64.216 33.774,60.815 33.774,56.701C33.774,52.269 30.169,48.66 25.733,48.66C21.987,48.66 18.836,51.242 17.949,54.715L15.374,54.715C16.307,49.846 20.595,46.154 25.729,46.154C30.643,46.161 34.775,49.532 35.947,54.078ZM30.1,17.915C28.808,15.067 26.514,12.766 23.678,11.454L22.692,13.755C26.275,15.443 28.762,19.082 28.762,23.299C28.762,28.508 24.963,32.845 19.992,33.691C19.716,33.736 19.439,33.774 19.158,33.797L19.158,7.454C19.439,7.473 19.716,7.496 19.992,7.526C25.118,8.099 29.513,11.124 31.977,15.401C31.238,16.144 30.605,16.986 30.1,17.915ZM53.736,24.652L56.296,24.652C56.186,24.216 56.121,23.765 56.121,23.295C56.121,22.9 56.163,22.518 56.243,22.146C56.773,19.644 58.999,17.759 61.657,17.759C64.709,17.759 67.192,20.243 67.192,23.295C67.192,25.877 65.41,28.045 63.014,28.652C62.578,28.762 62.127,28.827 61.657,28.827C61.263,28.827 60.88,28.785 60.508,28.705L60.508,33.774C55.678,33.247 51.822,29.448 51.2,24.648L53.736,24.648L53.736,24.652Z" style="fill:rgb(217,223,222);fill-rule:nonzero;"/>
</svg>
