<?xml version="1.0" encoding="UTF-8" standalone="no"?><!DOCTYPE svg PUBLIC "-//W3C//DTD SVG 1.1//EN" "http://www.w3.org/Graphics/SVG/1.1/DTD/svg11.dtd"><svg width="100%" height="100%" viewBox="0 0 151 86" version="1.1" xmlns="http://www.w3.org/2000/svg" xmlns:xlink="http://www.w3.org/1999/xlink" xml:space="preserve" xmlns:serif="http://www.serif.com/" style="fill-rule:evenodd;clip-rule:evenodd;stroke-linejoin:round;stroke-miterlimit:2;"><path id="path3345" d="M74.444,2.835c-0.945,1.156 -18.47,15.279 -29.223,25.921c-5.11,5.873 -9.978,7.899 9.197,14.294c12.855,4.195 16.429,5.215 20.026,6.189l0,-1.979c-3.047,-1.858 -11.098,-6.695 -14.734,-9.052c-4.392,-2.836 -2.491,-3.592 -0.934,-6.839c5.004,-8.218 13.122,-20.383 15.668,-24.62l0,-3.914Z" style="fill:#d9dfde;fill-rule:nonzero;"/><path id="path3345-5" d="M75.526,2.835c0.945,1.156 18.47,15.279 29.223,25.921c5.11,5.873 9.978,7.899 -9.197,14.294c-12.855,4.195 -16.429,5.215 -20.026,6.189l0,-1.98c3.047,-1.857 11.098,-6.694 14.734,-9.051c4.392,-2.836 2.491,-3.592 0.934,-6.839c-5.004,-8.218 -13.122,-20.383 -15.668,-24.62l0,-3.914Z" style="fill:#d9dfde;fill-rule:nonzero;"/><path id="path3376" d="M3.394,64.561l0,-4.381c0,-0.693 0.269,-1.165 0.808,-1.416c0.554,-0.265 1.549,-0.398 2.986,-0.398l6.779,0l0,1.704l-6.286,0c-0.449,0.029 -0.718,0.147 -0.808,0.354l0,3.495c0,0.295 0.105,0.494 0.315,0.598c0.119,0.059 0.359,0.088 0.718,0.088l6.061,0l0,1.726l-7.296,0c-0.389,0 -0.793,-0.044 -1.212,-0.133c-1.377,-0.265 -2.065,-0.811 -2.065,-1.637Z" style="fill:#d9dfde;fill-rule:nonzero;"/><path id="path3378" d="M15.568,60.07c0,-0.133 0.03,-0.273 0.09,-0.421c0.374,-0.855 1.564,-1.283 3.569,-1.283l4.108,0c2.41,0 3.615,0.568 3.615,1.704l0,4.535c0,1.151 -1.213,1.726 -3.637,1.726l-4.086,0c-1.107,0 -1.93,-0.096 -2.469,-0.288c-0.539,-0.206 -0.898,-0.546 -1.077,-1.017c-0.06,-0.148 -0.09,-0.281 -0.09,-0.399l-0.023,-4.557l0,0Zm3.48,0.553l0.022,3.429c0,0.369 0.382,0.553 1.145,0.553l2.133,0c0.763,0 1.145,-0.162 1.145,-0.487l0,-3.495c0,-0.369 -0.382,-0.553 -1.145,-0.553l-2.133,0c-0.778,0 -1.167,0.184 -1.167,0.553l0,0Z" style="fill:#d9dfde;fill-rule:nonzero;"/><path id="path3380" d="M28.883,66.331l0,-6.394c0,-0.487 0.269,-0.885 0.808,-1.195c0.554,-0.309 1.242,-0.464 2.065,-0.464c0.374,0 0.756,0.029 1.145,0.088c0.958,0.177 1.601,0.583 1.931,1.217l2.446,4.602l0,-5.819l3.3,0l0,6.593c0,0.413 -0.269,0.76 -0.808,1.04c-0.539,0.28 -1.212,0.428 -2.02,0.442c-1.557,0.03 -2.582,-0.42 -3.076,-1.349l-2.469,-4.58l0,5.819l-3.322,0Z" style="fill:#d9dfde;fill-rule:nonzero;"/><path id="path3382" d="M42.347,59.937c0,-0.133 0.03,-0.265 0.09,-0.398c0.404,-0.782 1.474,-1.173 3.21,-1.173l7.071,0l0,1.704l-6.128,0.022c-0.509,0.015 -0.764,0.14 -0.764,0.376l0,0.531c0,0.059 0.008,0.096 0.023,0.111c0.075,0.206 0.367,0.324 0.875,0.354l2.739,0c0.748,0 1.407,0.095 1.975,0.287c0.854,0.266 1.28,0.693 1.28,1.283l0,1.615c0,0.635 -0.441,1.099 -1.324,1.394c-0.599,0.192 -1.317,0.288 -2.155,0.288l-6.87,0l0,-1.726l6.061,0c0.539,-0.088 0.809,-0.243 0.809,-0.464l0,-0.576c0,-0.221 -0.247,-0.346 -0.741,-0.376l-2.896,0c-1.167,0 -2.073,-0.236 -2.716,-0.708c-0.359,-0.265 -0.539,-0.553 -0.539,-0.863l0,-1.681l0,0Z" style="fill:#d9dfde;fill-rule:nonzero;"/><path id="path3384" d="M54.503,60.07c0,-0.133 0.03,-0.273 0.09,-0.421c0.374,-0.855 1.564,-1.283 3.569,-1.283l4.108,0c2.41,0 3.614,0.568 3.614,1.704l0,4.535c0,1.151 -1.212,1.726 -3.636,1.726l-4.086,0c-1.107,0 -1.93,-0.096 -2.469,-0.288c-0.539,-0.206 -0.898,-0.546 -1.077,-1.017c-0.06,-0.148 -0.09,-0.281 -0.09,-0.399l-0.023,-4.557l0,0Zm3.48,0.553l0.022,3.429c0,0.369 0.382,0.553 1.145,0.553l2.133,0c0.763,0 1.144,-0.162 1.144,-0.487l0,-3.495c0,-0.369 -0.381,-0.553 -1.144,-0.553l-2.133,0c-0.778,0 -1.167,0.184 -1.167,0.553l0,0Z" style="fill:#d9dfde;fill-rule:nonzero;"/><path id="path3386" d="M67.818,64.384l0,-6.018l3.479,0l0,5.885c0,0.236 0.292,0.354 0.876,0.354l6.15,0l-0.022,1.726l-6.443,0c-0.209,0 -0.404,-0.008 -0.583,-0.022c-1.227,-0.045 -2.11,-0.214 -2.649,-0.509c-0.539,-0.31 -0.808,-0.782 -0.808,-1.416l0,0Z" style="fill:#d9dfde;fill-rule:nonzero;"/><rect id="path3388" x="79.598" y="58.366" width="3.479" height="7.965" style="fill:#d9dfde;fill-rule:nonzero;"/><path id="path3390" d="M84.976,66.331l0,-7.965l8.261,0c2.32,0 3.48,0.583 3.48,1.748l0,4.469c0,0.074 -0.015,0.17 -0.045,0.288c-0.24,0.973 -1.34,1.46 -3.3,1.46l-8.396,0l0,0Zm3.48,-1.726l3.569,0c0.389,0 0.644,-0.015 0.763,-0.044c0.24,-0.074 0.382,-0.251 0.427,-0.531c0.015,-0.015 0.022,-0.052 0.022,-0.111l0,-3.473c-0.105,-0.251 -0.516,-0.376 -1.234,-0.376l-3.547,0l0,4.535l0,0Z" style="fill:#d9dfde;fill-rule:nonzero;"/><path id="path3392" d="M97.497,66.331l4.467,-6.991c0.449,-0.708 1.362,-1.062 2.739,-1.062c1.361,0 2.267,0.354 2.716,1.062l4.467,6.991l-3.637,0l-1.1,-1.726l-4.916,0l-1.1,1.726l-3.636,0Zm5.769,-3.341l2.851,0l-1.639,-2.588l-1.212,2.588Z" style="fill:#d9dfde;fill-rule:nonzero;"/><path id="path3394" d="M111.849,60.07l0,-1.704l10.416,0l0,1.704l-3.479,0l0,6.261l-3.48,0l0,-6.261l-3.457,0Z" style="fill:#d9dfde;fill-rule:nonzero;"/><path id="path3396" d="M123.385,64.672l0,-4.58c0,-0.103 0.023,-0.221 0.068,-0.354c0.299,-0.915 1.399,-1.372 3.299,-1.372l7.184,0l0,1.704l-6.263,0c-0.045,0.015 -0.12,0.029 -0.225,0.044c-0.389,0.074 -0.583,0.229 -0.583,0.465l0,0.885l7.071,0l0,1.725l-7.071,0l0,0.885c0,0.325 0.299,0.502 0.898,0.531l6.173,0l0,1.726l-6.69,0c-2.574,0 -3.861,-0.553 -3.861,-1.659l0,0Z" style="fill:#d9dfde;fill-rule:nonzero;"/><path id="path3398" d="M135.691,66.331l0,-7.965l8.261,0c2.32,0 3.48,0.583 3.48,1.748l0,4.469c0,0.074 -0.015,0.17 -0.045,0.288c-0.24,0.973 -1.34,1.46 -3.3,1.46l-8.396,0l0,0Zm3.48,-1.726l3.569,0c0.389,0 0.643,-0.015 0.763,-0.044c0.24,-0.074 0.382,-0.251 0.427,-0.531c0.015,-0.015 0.022,-0.052 0.022,-0.111l0,-3.473c-0.105,-0.251 -0.516,-0.376 -1.235,-0.376l-3.547,0l0,4.535l0.001,0Z" style="fill:#d9dfde;fill-rule:nonzero;"/><g id="text3338-6"><path id="path3361" d="M2.835,72.136c0,-0.216 0.048,-0.444 0.146,-0.684c0.608,-1.391 2.544,-2.087 5.807,-2.087l6.683,0c3.92,0 5.88,0.924 5.88,2.771l0,7.378c0,1.871 -1.972,2.807 -5.916,2.807l-6.647,0c-1.802,0 -3.141,-0.156 -4.018,-0.468c-0.876,-0.336 -1.461,-0.888 -1.753,-1.656c-0.097,-0.24 -0.146,-0.455 -0.146,-0.647l-0.036,-7.414Zm5.661,0.9l0.036,5.578c0,0.6 0.621,0.9 1.863,0.9l3.469,0c1.242,0 1.863,-0.264 1.863,-0.792l0,-5.686c0,-0.6 -0.621,-0.9 -1.863,-0.9l-3.469,0c-1.266,0 -1.899,0.3 -1.899,0.9Z" style="fill:#d9dfde;fill-rule:nonzero;"/><path id="path3363" d="M24.597,79.082l0,-9.717l5.66,0l0,9.645c0.098,0.336 0.743,0.504 1.936,0.504l3.835,0c1.144,0 1.777,-0.156 1.899,-0.468l0.037,-0.108l0,-9.573l5.66,0l0,9.717c0,0.839 -0.194,1.439 -0.584,1.799c-0.998,0.96 -2.763,1.44 -5.296,1.44l-7.267,0c-2.703,0 -4.517,-0.516 -5.442,-1.548c-0.292,-0.336 -0.438,-0.9 -0.438,-1.691Z" style="fill:#d9dfde;fill-rule:nonzero;"/><path id="path3365" d="M45.543,72.136l0,-2.771l16.946,0l0,2.771l-5.661,0l0,10.185l-5.661,0l0,-10.185l-5.624,0Z" style="fill:#d9dfde;fill-rule:nonzero;"/><path id="path3367" d="M64.411,79.154l0,-9.789l5.661,0l0,9.573c0,0.384 0.475,0.576 1.424,0.576l10.007,0l-0.036,2.807l-10.482,0c-0.341,0 -0.657,-0.012 -0.949,-0.036c-1.997,-0.072 -3.434,-0.348 -4.31,-0.828c-0.877,-0.504 -1.315,-1.272 -1.315,-2.303Z" style="fill:#d9dfde;fill-rule:nonzero;"/><path id="path3369" d="M81.814,82.321l7.268,-11.373c0.73,-1.151 2.215,-1.727 4.455,-1.727c2.216,0 3.689,0.576 4.419,1.727l7.268,11.373l-5.916,0l-1.79,-2.807l-7.998,0l-1.79,2.807l-5.916,0Zm9.386,-5.435l4.638,0l-2.666,-4.21l-1.972,4.21Z" style="fill:#d9dfde;fill-rule:nonzero;"/><path id="path3371" d="M106.58,82.321l0,-10.401c0,-0.792 0.438,-1.44 1.314,-1.943c0.901,-0.504 2.021,-0.756 3.36,-0.756c0.609,0 1.23,0.048 1.863,0.144c1.558,0.288 2.605,0.948 3.141,1.979l3.981,7.486l0,-9.465l5.369,0l0,10.724c0,0.672 -0.439,1.236 -1.315,1.692c-0.877,0.456 -1.972,0.696 -3.287,0.72c-2.532,0.048 -4.2,-0.684 -5.004,-2.196l-4.017,-7.449l0,9.465l-5.405,0Z" style="fill:#d9dfde;fill-rule:nonzero;"/><path id="path3373" d="M128.841,82.321l0,-12.956l13.44,0c3.774,0 5.661,0.948 5.661,2.843l0,7.27c0,0.12 -0.025,0.276 -0.073,0.467c-0.39,1.584 -2.179,2.376 -5.369,2.376l-13.659,0Zm5.661,-2.807l5.807,0c0.633,0 1.047,-0.024 1.241,-0.072c0.39,-0.12 0.621,-0.408 0.694,-0.864c0.025,-0.024 0.037,-0.084 0.037,-0.18l0,-5.65c-0.17,-0.408 -0.84,-0.612 -2.009,-0.612l-5.77,0l0,7.378Z" style="fill:#d9dfde;fill-rule:nonzero;"/></g></svg>