<?xml version="1.0" encoding="UTF-8" standalone="no"?><!DOCTYPE svg PUBLIC "-//W3C//DTD SVG 1.1//EN" "http://www.w3.org/Graphics/SVG/1.1/DTD/svg11.dtd"><svg width="100%" height="100%" viewBox="0 0 454 587" version="1.1" xmlns="http://www.w3.org/2000/svg" xmlns:xlink="http://www.w3.org/1999/xlink" xml:space="preserve" xmlns:serif="http://www.serif.com/" style="fill-rule:evenodd;clip-rule:evenodd;stroke-linejoin:round;stroke-miterlimit:2;"><rect x="44.4" y="512.15" width="3.46" height="18" style="fill:#d9dfde;fill-rule:nonzero;"/><path d="M90.46,530.18l-12.8,-12.87l0,12.87l-3.46,0l0,-18l2.63,0l12.69,12.82l0,-12.8l3.48,0l0,18l-2.54,-0.02Z" style="fill:#d9dfde;fill-rule:nonzero;"/><path d="M119.21,530.18l0,-18l6.56,0c4,0 7.05,0.747 9.15,2.24c2.089,1.505 3.268,3.98 3.12,6.55c0.041,2.642 -1.221,5.143 -3.37,6.68c-2.26,1.71 -5.33,2.56 -9.23,2.56l-6.23,-0.03Zm3.46,-15.55l0,13.08l2.55,0c0.692,-0.002 1.383,-0.046 2.07,-0.13c0.637,-0.077 1.268,-0.194 1.89,-0.35c0.562,-0.139 1.114,-0.32 1.65,-0.54c0.47,-0.189 0.921,-0.42 1.35,-0.69c1.515,-1.211 2.384,-3.061 2.35,-5c0,-4.233 -3,-6.347 -9,-6.34l-2.86,-0.03Z" style="fill:#d9dfde;fill-rule:nonzero;"/><path d="M181.25,522.83c0,5.087 -2.96,7.633 -8.88,7.64c-5.68,0 -8.517,-2.46 -8.51,-7.38l0,-10.94l3.46,0l0,10.78c0,3.38 1.78,5.06 5.34,5.06c3.56,0 5.15,-1.63 5.15,-4.9l0,-10.94l3.44,0l0,10.68Z" style="fill:#d9dfde;fill-rule:nonzero;"/><path d="M213.18,530.45c-1.066,-0.029 -2.123,-0.208 -3.14,-0.53c-1.069,-0.343 -2.095,-0.806 -3.06,-1.38l2.16,-2c0.716,0.455 1.481,0.827 2.28,1.11c0.645,0.218 1.319,0.336 2,0.35c1.119,0.072 2.24,-0.134 3.26,-0.6c0.676,-0.315 1.113,-0.994 1.12,-1.74c-0.01,-0.58 -0.247,-1.133 -0.66,-1.54c-0.444,-0.314 -0.912,-0.591 -1.4,-0.83c-0.63,-0.34 -1.41,-0.7 -2.32,-1.1c-1.667,-0.625 -3.219,-1.524 -4.59,-2.66c-0.695,-0.732 -1.089,-1.701 -1.1,-2.71c0.055,-1.471 0.886,-2.808 2.18,-3.51c0.757,-0.463 1.585,-0.801 2.45,-1c1.003,-0.253 2.035,-0.378 3.07,-0.37c1.073,0.032 2.137,0.214 3.16,0.54c1.08,0.342 2.117,0.808 3.09,1.39l-2.16,2c-0.722,-0.454 -1.494,-0.823 -2.3,-1.1c-0.643,-0.227 -1.318,-0.349 -2,-0.36c-1.045,-0.062 -2.087,0.178 -3,0.69c-0.289,0.196 -0.54,0.444 -0.74,0.73c-0.179,0.266 -0.273,0.58 -0.27,0.9c-0.003,0.302 0.055,0.601 0.17,0.88c0.113,0.251 0.272,0.478 0.47,0.67c0.196,0.141 0.4,0.271 0.61,0.39c0.27,0.15 0.57,0.31 0.9,0.47c0.33,0.16 0.68,0.35 1.06,0.53l1.17,0.53c0.47,0.21 0.93,0.43 1.38,0.65c0.45,0.22 0.87,0.46 1.25,0.68c0.361,0.195 0.712,0.408 1.05,0.64c0.266,0.177 0.519,0.37 0.76,0.58c0.792,0.705 1.241,1.72 1.23,2.78c0.006,0.705 -0.185,1.397 -0.55,2c-0.393,0.646 -0.926,1.196 -1.56,1.61c-0.771,0.496 -1.625,0.852 -2.52,1.05c-1.136,0.248 -2.297,0.363 -3.46,0.34l0.01,-0.08Z" style="fill:#d9dfde;fill-rule:nonzero;"/><path d="M256.77,514.63l0,15.55l-3.46,0l0,-15.55l-6.45,0l0,-2.48l16.32,0l0,2.48l-6.41,0Z" style="fill:#d9dfde;fill-rule:nonzero;"/><path d="M300.54,530.18l-5.62,-7.4l-2.76,0l0,7.4l-3.46,0l0,-18l7.14,0c1.879,-0.099 3.744,0.383 5.34,1.38c0.606,0.412 1.103,0.965 1.45,1.61c0.336,0.63 0.505,1.336 0.49,2.05c0.02,1.336 -0.569,2.61 -1.6,3.46c-0.434,0.366 -0.911,0.679 -1.42,0.93c-0.565,0.263 -1.155,0.47 -1.76,0.62c0.049,0.046 0.089,0.1 0.12,0.16l0.14,0.15l0.13,0.18c0,0 0.09,0.11 0.14,0.17l0.56,0.76c0.19,0.25 0.38,0.51 0.59,0.77l0.22,0.3c0.089,0.099 0.172,0.202 0.25,0.31l1,1.36l1.08,1.39l0.44,0.61c0.16,0.2 0.32,0.39 0.47,0.59l0.22,0.29l0.27,0.36l0.26,0.34c0.06,0.088 0.127,0.172 0.2,0.25l-3.89,-0.04Zm-8.38,-15.55l0,5.69l2.89,0c0.643,0.005 1.284,-0.066 1.91,-0.21c0.528,-0.117 1.034,-0.316 1.5,-0.59c0.346,-0.269 0.63,-0.61 0.83,-1c0.229,-0.38 0.346,-0.817 0.34,-1.26c0.03,-0.817 -0.393,-1.588 -1.1,-2c-0.972,-0.529 -2.075,-0.772 -3.18,-0.7l-3.19,0.07Z" style="fill:#d9dfde;fill-rule:nonzero;"/><rect x="330.29" y="512.15" width="3.46" height="18" style="fill:#d9dfde;fill-rule:nonzero;"/><path d="M360.05,530.18l0,-18l12.35,0l0,2.48l-8.89,0l0,5.23l8.26,0l0,2.46l-8.26,0l0,5.39l9.41,0l0,2.47l-12.87,-0.03Z" style="fill:#d9dfde;fill-rule:nonzero;"/><path d="M404.51,530.45c-1.066,-0.029 -2.123,-0.208 -3.14,-0.53c-1.069,-0.343 -2.095,-0.806 -3.06,-1.38l2.16,-2c0.716,0.455 1.481,0.827 2.28,1.11c0.645,0.218 1.319,0.336 2,0.35c1.119,0.072 2.24,-0.134 3.26,-0.6c0.676,-0.315 1.113,-0.994 1.12,-1.74c-0.01,-0.58 -0.247,-1.133 -0.66,-1.54c-0.444,-0.314 -0.912,-0.591 -1.4,-0.83c-0.64,-0.34 -1.41,-0.7 -2.32,-1.1c-1.667,-0.625 -3.219,-1.524 -4.59,-2.66c-0.701,-0.728 -1.095,-1.699 -1.1,-2.71c0.055,-1.471 0.886,-2.808 2.18,-3.51c0.757,-0.463 1.585,-0.801 2.45,-1c1.003,-0.254 2.035,-0.378 3.07,-0.37c1.073,0.032 2.137,0.214 3.16,0.54c1.074,0.32 2.107,0.763 3.08,1.32l-2.16,2c-0.722,-0.454 -1.494,-0.823 -2.3,-1.1c-0.643,-0.227 -1.318,-0.349 -2,-0.36c-1.045,-0.062 -2.087,0.178 -3,0.69c-0.289,0.196 -0.54,0.444 -0.74,0.73c-0.179,0.266 -0.273,0.58 -0.27,0.9c-0.003,0.302 0.055,0.601 0.17,0.88c0.113,0.251 0.272,0.478 0.47,0.67c0.196,0.141 0.4,0.271 0.61,0.39c0.27,0.15 0.57,0.31 0.9,0.47c0.33,0.16 0.68,0.35 1.06,0.53l1.17,0.53c0.47,0.21 0.93,0.43 1.38,0.65c0.45,0.22 0.87,0.46 1.25,0.68c0.361,0.195 0.712,0.408 1.05,0.64c0.266,0.177 0.519,0.37 0.76,0.58c0.792,0.705 1.241,1.72 1.23,2.78c0.007,0.706 -0.187,1.4 -0.56,2c-0.387,0.648 -0.917,1.199 -1.55,1.61c-0.771,0.496 -1.625,0.852 -2.52,1.05c-1.136,0.248 -2.297,0.363 -3.46,0.34l0.02,-0.01Z" style="fill:#d9dfde;fill-rule:nonzero;"/><path d="M78.52,426.07l0,-13.07c0,-11.16 -5.82,-24.67 -18.7,-24.67c-14.09,0 -19.41,13.51 -19.41,24.67l0,63.62c0,11 5.32,24.51 19.41,24.51c12.88,0 18.7,-13.51 18.7,-24.66l0,-13.24l-12.87,0l0,13.19c0,3.3 -2.15,8.95 -5.83,8.95c-4.49,0 -6.43,-5.65 -6.43,-8.95l0,-63.42c0,-3.3 1.94,-9 6.43,-9c3.68,0 5.83,5.66 5.83,9l0,13.12l12.87,-0.05Z" style="fill:#d9dfde;fill-rule:nonzero;"/><path d="M131.21,499.67l-13.48,-47c6.13,-4.71 10.73,-15.24 10.73,-31.57c0,-17.6 -5.83,-31.43 -18.09,-31.43l-21.37,0l0,110l12.67,0l0,-44.3l4.09,0l12.15,44.3l13.3,0Zm-29.52,-94.27l8.31,0c5,0 6.33,6.92 6.33,15.72c0,16 -2.25,17.59 -10.52,17.59l-4.09,0l-0.03,-33.31Z" style="fill:#d9dfde;fill-rule:nonzero;"/><path d="M164.24,389.69l0,86.73c0,3.3 -2,8.95 -5.72,8.95c-4.49,0 -6.44,-5.65 -6.44,-8.95l0,-86.73l-12.76,0l0,86.88c0,11.16 5.21,24.51 19.2,24.51c12.77,0 18.49,-13.35 18.49,-24.51l0,-86.88l-12.77,0Z" style="fill:#d9dfde;fill-rule:nonzero;"/><path d="M224.67,420.49l0,-7.7c0,-14.61 -7.67,-24.51 -18.49,-24.51c-10.82,0 -18.7,9.58 -18.7,24.51c0,14.93 2.86,18.54 9.6,30.79l10.63,16.81c2.742,4.497 4.192,9.663 4.19,14.93c0,6.44 -2.56,10.05 -5.72,10.05c-3.16,0 -5.72,-3.3 -5.72,-10.05l0,-10.21l-12.88,0l0,11.46c0,15.72 8.28,24.67 18.6,24.67c10.32,0 18.9,-8.8 18.9,-24.67c0,-13 -3.17,-19 -8.28,-28l-12.8,-22.43c-2.494,-4.053 -3.737,-8.754 -3.57,-13.51c0,-5 2.45,-8.64 5.72,-8.64c3.06,0 5.72,4.24 5.72,11.94l0,4.56l12.8,0Z" style="fill:#d9dfde;fill-rule:nonzero;"/><path d="M260.59,499.67l12.77,0l-14.71,-110l-12.77,0l-14.71,110l12.05,0l2.45,-25.61l12.33,0l2.56,25.61l0.03,0Zm-12.77,-41.48l4,-39.43l0.31,0l3.87,39.43l-8.18,0Z" style="fill:#d9dfde;fill-rule:nonzero;"/><path d="M320.81,407.92c-1.63,-10.53 -7.66,-18.23 -14.91,-18.23l-23.09,0l0,110l23.09,0c11,0 15.93,-14.61 15.93,-31.42l0,-47.15c-0.017,-4.418 -0.352,-8.83 -1,-13.2l-0.02,0Zm-25.23,76l0,-78.52l7.66,0c5.11,0 6.44,6.92 6.44,15.72l0,47.13c0,8.8 -1.33,15.71 -6.44,15.71l-7.66,-0.04Z" style="fill:#d9dfde;fill-rule:nonzero;"/><path d="M364,405.4l0,-15.71l-30.9,0l0,110l32.28,0l0,-15.69l-19.51,0l0,-35.86l13,0l0,-15.71l-13,0l0,-27l18.13,-0.03Z" style="fill:#d9dfde;fill-rule:nonzero;"/><path d="M417,499.67l-13.49,-47c6.13,-4.71 10.73,-15.24 10.73,-31.57c0,-17.6 -5.83,-31.43 -18.09,-31.43l-21.34,0l0,110l12.67,0l0,-44.3l4.09,0l12.15,44.3l13.28,0Zm-29.52,-94.27l8.28,0c5,0 6.33,6.92 6.33,15.72c0,16 -2.25,17.59 -10.52,17.59l-4.09,0l0,-33.31Z" style="fill:#d9dfde;fill-rule:nonzero;"/><path d="M263.11,191.61l0,48.22c6.082,4.95 10.979,11.2 14.33,18.29l44.79,0c-7.446,-30.576 -29.628,-55.53 -59.12,-66.51Zm-66,0.06c-37.135,13.754 -61.926,49.374 -61.926,88.973c0,52.05 42.83,94.88 94.88,94.88c43.622,0 81.894,-30.084 92.196,-72.473l-44.8,0c-8.665,18.273 -27.159,29.971 -47.383,29.971c-28.767,0 -52.44,-23.672 -52.44,-52.44c0,-15.826 7.165,-30.831 19.473,-40.781l0,-48.13Z" style="fill:#d9dfde;fill-rule:nonzero;"/><path d="M228.71,185.63c-7.268,-0.007 -14.512,0.822 -21.59,2.47l0,131.9c13.719,6.196 29.461,6.196 43.18,0l0,-131.9c-7.078,-1.648 -14.322,-2.477 -21.59,-2.47Z" style="fill:#d9dfde;fill-rule:nonzero;"/><path d="M228.71,41.42c-11,0.015 -20.042,9.07 -20.042,20.07c0,6.003 2.693,11.7 7.332,15.51l0,73.52l-63.47,0l30.71,20.59l23,0l0,8.57c14.204,-3.293 28.976,-3.293 43.18,0l0,-8.57l23,0l32.55,-20.59l-63.53,0l0,-73.52c4.646,-3.81 7.345,-9.511 7.345,-15.52c0,-11.01 -9.06,-20.07 -20.07,-20.07c-0.002,0 -0.003,0 -0.005,0l0,0.01Z" style="fill:#d9dfde;fill-rule:nonzero;"/></svg>