<?xml version="1.0" encoding="UTF-8" standalone="no"?><!DOCTYPE svg PUBLIC "-//W3C//DTD SVG 1.1//EN" "http://www.w3.org/Graphics/SVG/1.1/DTD/svg11.dtd"><svg width="100%" height="100%" viewBox="0 0 1458 652" version="1.1" xmlns="http://www.w3.org/2000/svg" xmlns:xlink="http://www.w3.org/1999/xlink" xml:space="preserve" xmlns:serif="http://www.serif.com/" style="fill-rule:evenodd;clip-rule:evenodd;stroke-linejoin:round;stroke-miterlimit:2;"><rect x="455.26" y="397.36" width="16.68" height="61.97" style="fill:#d9dfde;"/><path d="M56.69,345.86l0,242.2l1343.37,0l0,-242.2l-1343.37,0Zm50,212.71l-16.69,0l0,-179.85l16.68,0l0.01,179.85Zm99.71,-1.85l-15.82,0c-3.007,-18.973 -6.387,-37.867 -10.14,-56.68c-3.627,-18.807 -6.707,-38.287 -9.24,-58.44l-0.45,0c0.3,3.693 0.523,8.397 0.67,14.11c0.3,5.54 0.527,11.25 0.68,17.13c0.3,5.88 0.523,11.673 0.67,17.38c0.153,5.54 0.227,10.327 0.22,14.36l0,52.14l-16.67,0l0,-179.85l15.78,0c3.007,18.98 6.313,37.873 9.92,56.68c3.753,18.807 6.907,38.287 9.46,58.44l0.45,0c-0.153,-3.86 -0.377,-8.563 -0.67,-14.11c-0.293,-5.547 -0.593,-11.257 -0.9,-17.13c-0.153,-5.88 -0.303,-11.59 -0.45,-17.13c-0.153,-5.707 -0.227,-10.577 -0.22,-14.61l0,-52.14l16.68,0l0.03,179.85Zm93.5,-159.36l-16.73,0l0,161.21l-16.67,0l0,-161.21l-16.68,0l0,-18.64l50,0l0.08,18.64Zm93.35,0l-33.4,0l0,62l25,0l0,18.64l-25,0l0,62l33.36,0l0,18.64l-33.36,0c-4.555,0.044 -8.912,-1.887 -11.94,-5.29c-3.162,-3.717 -4.847,-8.471 -4.73,-13.35l0,-142.64c-0.145,-4.808 1.547,-9.494 4.73,-13.1c2.955,-3.53 7.336,-5.563 11.94,-5.54l33.36,0l0.04,18.64Zm82.33,161.22c-0.977,-2.038 -1.806,-4.143 -2.48,-6.3c-0.74,-2.277 -1.122,-4.656 -1.13,-7.05l0,-67.23l-16.71,0l0,80.61l-16.68,0l0,-179.89l33.35,0c4.547,-0.052 8.874,1.993 11.72,5.54c3.326,3.536 5.124,8.247 5,13.1l0,56.93c0,4.367 -0.753,7.557 -2.26,9.57c-1.415,1.907 -3.176,3.532 -5.19,4.79c2.229,0.951 4.063,2.644 5.19,4.79c1.5,2.353 2.253,6.3 2.26,11.84l0,60c-0.036,2.315 0.343,4.619 1.12,6.8c0.85,2.238 1.829,4.425 2.93,6.55l-17.12,-0.05Zm112.88,-99.25c0.095,4.923 -1.694,9.701 -5,13.35c-2.916,3.431 -7.218,5.384 -11.72,5.32l-16.68,0l0,80.61l-16.68,0l0,-179.89l33.36,0c4.547,-0.052 8.874,1.993 11.72,5.54c3.327,3.535 5.125,8.247 5,13.1l0,61.97Zm96.64,99.25l-50.1,0l0,-179.86l16.7,0l0,161.22l16.68,0l0,-37.29l16.68,0l0.04,55.93Zm95.4,0l-16.71,0l0,-80.58l-16.68,0l0,80.61l-16.68,0l0,-153.44c-0.038,-3.705 0.641,-7.383 2,-10.83c1.274,-3.233 3.105,-6.219 5.41,-8.82c2.228,-2.479 4.905,-4.515 7.89,-6c6.101,-3.024 13.279,-3.024 19.38,0c2.985,1.484 5.662,3.52 7.89,6c2.305,2.601 4.136,5.587 5.41,8.82c1.359,3.447 2.038,7.125 2,10.83l0.09,153.41Zm99.81,0l-15.82,0c-2.993,-18.98 -6.37,-37.873 -10.13,-56.68c-3.607,-18.807 -6.687,-38.287 -9.24,-58.44l-0.45,0c0.3,3.693 0.523,8.397 0.67,14.11c0.3,5.54 0.527,11.25 0.68,17.13c0.3,5.88 0.523,11.673 0.67,17.38c0.153,5.54 0.23,10.327 0.23,14.36l0,52.14l-16.68,0l0,-179.86l15.76,0c3.007,18.973 6.313,37.867 9.92,56.68c3.753,18.807 6.907,38.287 9.46,58.44l0.45,0c-0.153,-3.86 -0.377,-8.563 -0.67,-14.11c-0.293,-5.547 -0.593,-11.257 -0.9,-17.13c-0.153,-5.88 -0.303,-11.59 -0.45,-17.13c-0.153,-5.713 -0.227,-10.583 -0.22,-14.61l0,-52.14l16.68,0l0.04,179.86Zm100.39,-161.22l-33.36,0l0,62l25,0l0,18.64l-25,0l0,62l33.36,0l0,18.64l-33.36,0c-4.555,0.044 -8.912,-1.887 -11.94,-5.29c-3.162,-3.717 -4.847,-8.471 -4.73,-13.35l0,-142.64c-0.145,-4.808 1.547,-9.494 4.73,-13.1c2.955,-3.53 7.336,-5.563 11.94,-5.54l33.36,0l0,18.64Zm88.47,0l-16.67,0l0,161.21l-16.68,0l0,-161.21l-16.68,0l0,-18.64l50,0l0.03,18.64Zm93.36,161.22l-16.68,0l0,-80.58l-16.68,0l0,80.61l-16.67,0l0,-153.44c-0.038,-3.705 0.641,-7.383 2,-10.83c1.274,-3.233 3.106,-6.218 5.41,-8.82c2.228,-2.48 4.905,-4.516 7.89,-6c6.101,-3.024 13.279,-3.024 19.38,0c2.985,1.484 5.662,3.52 7.89,6c2.304,2.602 4.136,5.587 5.41,8.82c1.359,3.447 2.038,7.125 2,10.83l0.05,153.41Zm87.35,0c-0.977,-2.038 -1.806,-4.143 -2.48,-6.3c-0.738,-2.277 -1.116,-4.656 -1.12,-7.05l0,-67.23l-16.68,0l0,80.61l-16.68,0l0,-179.89l33.36,0c4.547,-0.052 8.874,1.993 11.72,5.54c3.327,3.535 5.125,8.247 5,13.1l0,56.93c0,4.367 -0.75,7.557 -2.25,9.57c-1.415,1.907 -3.176,3.532 -5.19,4.79c2.229,0.951 4.063,2.644 5.19,4.79c1.5,2.373 2.25,6.317 2.25,11.83l0,60c-0.033,2.316 0.349,4.619 1.13,6.8c0.85,2.238 1.829,4.425 2.93,6.55l-17.18,-0.04Zm112.88,-106.81c0.051,5.691 -1.513,11.282 -4.51,16.12c-2.898,4.612 -7.149,8.22 -12.17,10.33l0,80.35l-16.68,0l0,-80.35c-5.021,-2.11 -9.272,-5.718 -12.17,-10.33c-2.997,-4.838 -4.561,-10.429 -4.51,-16.12l0,-73l16.68,0l0,80.86l16.68,0l0,-80.91l16.68,0l0,73.05Z" style="fill:#d9dfde;fill-rule:nonzero;"/><rect x="555.06" y="397.36" width="16.68" height="61.97" style="fill:#d9dfde;"/><rect x="1229.6" y="397.36" width="16.68" height="61.97" style="fill:#d9dfde;"/><rect x="1129.17" y="397.36" width="16.68" height="61.97" style="fill:#d9dfde;"/><rect x="747.11" y="397.36" width="16.68" height="61.97" style="fill:#d9dfde;"/><path id="path50" d="M612.42,63l0,62.4l186.48,0l0,191.88l62.83,0l0,-253.63l-249.31,-0.65Zm480,0.59l0,0.06l-120.67,104l0,86.07l39.59,-32.43l90.79,96l43.87,0l0,-45.55l-86.63,-89l77.62,-77l0,-42.09l-44.57,-0.06Zm-1035.73,0.06l0,62.27l176.21,0.18l0,129.17l-113.27,-0.7l0,-113.94l-62.94,0l0,176.65c69.8,-0.13 209.52,0 209.52,0l30.43,-31.11l0,-190.68l-30.43,-31.84l-209.52,0Zm302,0l-30.83,29.42l0,224.21l62.5,0l0,-96.74l16.55,0l124.76,96.74l46.61,0l0,-46.56l-64.62,-50.18l64.44,0l0,-156.89l-173.21,0l0,61.35l111.11,0l0,32.4l-125.64,0l0,-93.75l-31.67,0Zm566.15,0l-31.3,29.06l-0.05,224.57l61.62,0l-0.3,-224.57l-29.97,-29.06Zm235.34,0l0,61.92l209.82,0l30.4,-32.1l-30.4,-29.82l-209.78,0l-0.04,0Zm0,76.09l0,144.71l29.46,32.83l180.36,0l30.08,-31.81l-30.08,-30.47l-147.83,0l0,-35.52l115,0l29.72,-29.62l-29.72,-31.51l-115,0l0,-17.72l-62,-0.88l0.01,-0.01Zm-547.77,0.88l0,176.66l63.59,0l0,-74.62l82.16,0l31.93,-30.58l-31.93,-31.13l-82.16,0l0,-40.32l-63.59,-0.01Z" style="fill:#d9dfde;fill-rule:nonzero;"/></svg>