<?xml version="1.0" encoding="UTF-8" standalone="no"?><!DOCTYPE svg PUBLIC "-//W3C//DTD SVG 1.1//EN" "http://www.w3.org/Graphics/SVG/1.1/DTD/svg11.dtd"><svg width="100%" height="100%" viewBox="0 0 500 370" version="1.1" xmlns="http://www.w3.org/2000/svg" xmlns:xlink="http://www.w3.org/1999/xlink" xml:space="preserve" xmlns:serif="http://www.serif.com/" style="fill-rule:evenodd;clip-rule:evenodd;stroke-linejoin:round;stroke-miterlimit:2;"><path d="M34.5,89.76l0,143l431,0l0,-143l-431,0Zm428.5,140.5l-426,0l0,-138l426,0l0,138Z" style="fill:#d9dfde;fill-rule:nonzero;"/><path d="M154.33,259c-1.454,-1.356 -3.492,-1.904 -5.43,-1.46c-10.09,-0.38 -20.19,-0.69 -30.28,-0.77c-3.57,-0.08 -5.29,-1.23 -4.82,-5c0.17,-1.31 0.15,-2.69 0.22,-4.16c1.52,-0.08 2.62,-0.23 3.73,-0.23l26.94,0c0.687,-0.056 1.372,0.136 1.93,0.54c2.52,4 6.11,1.62 9.24,2c0.316,-0.884 0.477,-1.816 0.477,-2.755c0,-4.499 -3.702,-8.2 -8.2,-8.2c-0.567,0 -1.132,0.058 -1.687,0.175c-10,-0.15 -19.92,-0.08 -29.88,0c-0.667,-0.144 -1.347,-0.216 -2.03,-0.216c-5.288,0 -9.64,4.352 -9.64,9.64c0,0.528 0.044,1.055 0.13,1.576c-0.06,1.31 -0.06,2.54 -0.06,3.85c-0.152,0.624 -0.229,1.264 -0.229,1.906c0,4.416 3.634,8.05 8.05,8.05c0.578,0 1.154,-0.063 1.719,-0.186c9.12,0.23 18.24,0.08 27.35,0.15c1.49,0 3,0.15 4.46,0.15l0,9.62c-10.21,0 -20.14,0 -30.07,-0.08c-0.554,0.058 -1.109,-0.108 -1.54,-0.46c-1.89,-4.77 -5.87,-2.08 -9.24,-2.85c-0.422,0.952 -0.641,1.981 -0.641,3.022c0,4.087 3.363,7.45 7.45,7.45c0.064,0 0.127,0 0.191,-0.002c1.652,0.28 3.325,0.407 5,0.38c8,0.08 16,-0.15 24,0.08c13.95,0.38 16,-2.31 14.72,-16.93c0.293,-1.961 -0.405,-3.944 -1.86,-5.29Z" style="fill:#d9dfde;fill-rule:nonzero;"/><path d="M225.12,241.08c-2.027,-1.994 -4.941,-2.814 -7.71,-2.17l-41.13,0l0,41.87l8.77,0l0,-14.47l5.2,0c9.53,0 19.06,0.08 28.58,0c0.347,0.049 0.697,0.074 1.048,0.074c4.098,0 7.47,-3.372 7.47,-7.47c0,-0.282 -0.016,-0.564 -0.048,-0.844c0.11,-3.08 0.22,-6.16 0.11,-9.31c0.602,-2.78 -0.263,-5.684 -2.29,-7.68Zm-6.37,9c-0.26,11.16 1.39,8.85 -8.62,9.08c-6.7,0.08 -13.42,-0.15 -20.11,0.08c-3.12,0.08 -4.45,-0.62 -4.39,-4.16c0.16,-8.24 0,-8.24 8.24,-8.24l8.41,0c4.29,0 8.63,0.08 13,0c0.268,-0.085 0.547,-0.128 0.828,-0.128c1.509,0 2.75,1.242 2.75,2.75c0,0.205 -0.023,0.409 -0.068,0.608l-0.04,0.01Z" style="fill:#d9dfde;fill-rule:nonzero;"/><path d="M254.65,264.23l29.71,0l0,-7.47l-30,0c0,-2.23 0.18,-4 0,-5.85c-0.139,-0.363 -0.21,-0.749 -0.21,-1.137c0,-1.75 1.44,-3.19 3.19,-3.19c0.347,0 0.691,0.056 1.02,0.167c5,0.31 10.1,0.08 15.15,0.08l18.32,0l0,-7.47l-46.7,0l0,41.87l46.73,0l0,-6.93l-37.21,0l0,-10.07Z" style="fill:#d9dfde;fill-rule:nonzero;"/><rect x="383" y="239.14" width="9.24" height="43.1" style="fill:#d9dfde;"/><path d="M360.44,265.34c2.358,-2.181 3.66,-5.279 3.57,-8.49c0.3,-2.245 0.323,-4.519 0.07,-6.77c-1,-9 -3.39,-11.16 -12.38,-11.16l-35.76,0c-1.35,0 -2.7,0.15 -4.49,0.31l0,43l9.3,0l0,-15.77c5.66,0 11.15,0 16.64,0.08c0.553,0.039 1.071,0.286 1.45,0.69c4.667,5 9.3,10 13.9,15l11.78,0c-4.17,-4.54 -8.34,-9.16 -12.81,-14c3.189,0.339 6.373,-0.716 8.73,-2.89Zm-38.87,-6.49l0,-11.7l31.76,0l0,11.7l-31.76,0Z" style="fill:#d9dfde;fill-rule:nonzero;"/><path d="M457.3,239.91c-2.19,-0.91 -4.567,-1.28 -6.93,-1.08c-9.81,-0.08 -19.61,-0.08 -29.42,-0.08c-0.363,-0.04 -0.729,-0.06 -1.094,-0.06c-5.486,0 -10,4.514 -10,10c0,0.458 0.031,0.916 0.094,1.37l0,32.17l9.22,0l0,-14.07l33.67,0l0,14.08l8.42,0c0.05,-12.39 0.28,-24.78 0,-37.25c-0.514,-2.189 -1.962,-4.047 -3.96,-5.08Zm-4.73,19.63l-33.2,0l0,-12.39l33.19,0l0.01,12.39Z" style="fill:#d9dfde;fill-rule:nonzero;"/><path d="M38.7,281.16l46.88,0l0,-6.85l-37.27,0l0,-10.39l29.67,0l0,-7.38l-29.7,0l0,-9.78l37.37,0l0,-7.39l-46.95,0l0,41.79Z" style="fill:#d9dfde;fill-rule:nonzero;"/><path d="M37,92.26l426,0l0,138l-426,0l0,-138Zm194.74,53.52c4.3,0.46 8.69,0 13,0.15c0.964,0.242 1.864,0.689 2.64,1.31c-0.54,0.942 -1.184,1.821 -1.92,2.62c-0.574,0.414 -1.228,0.704 -1.92,0.85l-186,70.19c-4.12,1.54 -8.24,3.08 -12.35,4.69c0.05,0.31 0.11,0.62 0.15,1l5.22,0c106.6,0 213.197,-0.027 319.79,-0.08c9.91,0 7,1.77 11,-7.39c4.65,-11.12 9.22,-22.23 14.18,-34.12c5,7.16 14.22,10.08 13.85,20.55c6.693,-3.189 12.394,-8.14 16.49,-14.32c-3.608,-0.197 -7.182,-0.79 -10.66,-1.77c-2.513,-1.007 -4.599,-2.856 -5.9,-5.23c0.687,-2.26 2.261,-4.147 4.36,-5.23c6,-3.16 11.1,0.69 11.94,8.7c5.072,1.152 10.384,0.611 15.12,-1.54c2.94,-1.15 5.69,-2.31 3.93,-6.62c-0.7,-1.77 -1.08,-4.93 2.89,-3.93c0.39,1.69 0.75,3.31 1.12,4.93c0.501,-0.012 1.003,0.015 1.5,0.08c0.724,-2.179 0.957,-4.491 0.68,-6.77c-1.885,-3.824 -4.093,-7.481 -6.6,-10.93c-1.226,-1.09 -2.243,-2.394 -3,-3.85c-0.697,-4.927 -3.071,-9.467 -6.72,-12.85c-1.189,-0.924 -2.071,-2.186 -2.53,-3.62c0.184,-3.69 -1.521,-7.232 -4.52,-9.39c-2.205,-2.4 -3.936,-5.196 -5.1,-8.24c-2.12,-9.85 -9.54,-12.93 -17.7,-15.39c-1.47,-0.46 -2.89,-1.08 -4.35,-1.62c-12.819,-5.1 -26.697,-6.975 -40.41,-5.46c-4.56,0.69 -9.12,1.46 -13.74,1.85c-16.07,1.15 -32.16,2.23 -48.23,3.39c-5.66,0.46 -11.31,1.15 -17,1.77c0.043,0.149 0.06,0.305 0.05,0.46c21.66,1.513 43.327,3.077 65,4.69c-14.87,0.69 -29.7,0.62 -44.53,0.69c-14.83,0.07 -29.38,0.31 -44.07,0.46c-0.042,0.409 -0.059,0.819 -0.05,1.23c26.17,3.93 52.94,5.31 77,18.39c-32.59,-8.24 -64.92,-19.16 -100.05,-9.47c11.76,1.15 22.65,2.31 33.54,3.39l-0.07,1.15c-4.67,0.62 -9.35,1.31 -14,1.92c12.7,1.62 25.42,2.69 35.31,12.39c-13.222,-6.188 -27.745,-9.094 -42.33,-8.47c-14.62,0.92 -29.18,2.62 -43.76,3.93l0,1.15c0.539,0.38 1.137,0.667 1.77,0.85c8.94,1.2 17.93,2.59 26.98,3.51Zm212.19,75.22c-12.317,0.827 -24.666,-1.064 -36.17,-5.54c-5,-1.92 -10.36,-3.16 -15.87,-4.85c-1.8,5.39 -3.46,10.39 -5.24,15.7l71.59,0c-3.714,-3.849 -8.985,-5.805 -14.31,-5.31Zm-223.88,-65.67c0,-0.31 0.1,-0.62 0.13,-0.92l-178.84,-57.58l0,124.92l178.66,-66.42l0.05,0Zm159.71,34.79c-3.783,0.658 -7.673,-0.324 -10.69,-2.7c6.45,-1.08 13.18,-2.31 19.83,-3.46c-2.04,3.263 -5.378,5.505 -9.17,6.16l0.03,0Zm-28.51,-28.97c8.14,0.92 16,4.16 24.16,5.31c6.917,0.478 13.857,0.528 20.78,0.15c-15.48,-11.08 -30.09,-21.47 -45.62,-32.56c15.699,3.168 30.521,9.72 43.43,19.2c-2.202,-8.015 -7.48,-14.846 -14.68,-19c-6.6,-3.93 -13.15,-7.77 -19.68,-11.7c12.734,-0.219 24.917,5.291 33.16,15c0,-4.08 -0.15,-7.23 0,-10.31c0.39,-8.24 2.58,-9.7 10,-6.62c6.497,2.471 11.847,7.275 15,13.47c-6.48,-3.69 -13.05,-7.39 -20.29,-11.47c-1.12,13.08 -5.57,25.63 8,33.79c-5.63,-0.46 -11.26,-0.92 -16.89,-1.46c-0.055,0.304 -0.092,0.611 -0.11,0.92c6.6,4.31 13.18,8.54 20.66,13.39c-8.29,0.77 -15.62,1.39 -22.91,2c0.044,0.512 0.06,1.026 0.05,1.54l7.37,0c-2.956,3.555 -7.934,4.748 -12.18,2.92c-22.165,-11.735 -48.54,-12.643 -71.46,-2.46c-4.29,1.69 -8.61,3.39 -12.95,5c-6.724,2.529 -14.081,2.851 -21,0.92c1.65,-0.15 3.3,-0.31 4.93,-0.54c1.823,-0.174 3.626,-0.508 5.39,-1c7.085,-2.161 14.058,-4.678 20.89,-7.54c13.546,-6.938 28.741,-10.024 43.92,-8.92l0.03,-0.03Zm-90.65,-6.62c12.09,-1.23 21,7.93 32.26,9c-7.317,6.045 -18.3,5.042 -24.4,-2.23c-2.501,-2.395 -5.128,-4.655 -7.87,-6.77l0.01,0Zm163.4,1.03c2.26,0.46 4.56,0.92 6.16,1.23c0.69,2.23 1.24,4.08 1.79,5.93l-0.54,0.69l-7.71,-6.93l0.3,-0.92Zm-136.75,-20.12c12.82,1.23 23.33,8 34.57,12.7c-5.67,1.413 -11.68,0.378 -16.55,-2.85c-5.722,-3.777 -11.754,-7.062 -18.03,-9.82l0.01,-0.03Zm122.972,4.487c-1.941,-0.916 -3.883,-1.842 -6.132,-2.837l-2.39,8.62c-0.465,0.012 -0.93,-0.015 -1.39,-0.08c0.22,-4.16 0.44,-8.39 0.63,-12.62l1.31,-0.69c2.88,2.16 5.75,4.31 8.63,6.39c-0.229,0.379 -0.449,0.837 -0.658,1.217l0.028,0.013l-0.03,-0.01l0.002,-0.003Zm-37.342,-34.777c11.159,-0.67 22.12,3.253 30.32,10.85c-9.81,-3.54 -20.23,-7.23 -30.37,-10.85l0.05,0Z" style="fill:#d9dfde;"/></svg>