<?xml version="1.0" encoding="UTF-8" standalone="no"?>
<!DOCTYPE svg PUBLIC "-//W3C//DTD SVG 1.1//EN" "http://www.w3.org/Graphics/SVG/1.1/DTD/svg11.dtd">
<svg width="100%" height="100%" viewBox="0 0 800 600" version="1.1" xmlns="http://www.w3.org/2000/svg" xmlns:xlink="http://www.w3.org/1999/xlink" xml:space="preserve" xmlns:serif="http://www.serif.com/" style="fill-rule:evenodd;clip-rule:evenodd;stroke-linejoin:round;stroke-miterlimit:2;">
    <path d="M268.831,154.648L239.913,154.648L248.024,168.594L241.219,180.339L209.712,126.189L272.7,126.189L267.4,135.289L290.55,135.289L307.413,106.289L175,106.289L241.219,220.128L279.284,154.653L268.831,154.648ZM608.131,135.288L624.996,106.288L492.585,106.288L558.8,220.148L596.865,154.648L573.423,154.648L558.8,180.339L527.3,126.189L590.292,126.189L584.992,135.289L608.131,135.288ZM451.123,135.436L427.879,135.436L433.204,126.288L412.3,126.288L412.3,202.666L402.167,220.148L399.53,220.148L389.37,202.666L389.37,126.288L368.464,126.288L373.814,135.436L350.541,135.436L333.6,106.284L468.089,106.284L451.123,135.436ZM254.836,220.148L279.785,220.148L295.144,193.493L339.62,193.493L327.81,172.921L306.978,172.921L320.365,149.654L360.945,220.148L385.919,220.148L320.365,106.284L254.836,220.148ZM439.346,220.148L414.4,220.148L479.929,106.284L545.457,220.148L520.507,220.148L505.171,193.493L460.671,193.493L472.505,172.921L493.337,172.921L479.926,149.654L439.346,220.148Z" style="fill:rgb(217,223,222);"/>
    <path d="M236.45,227.709L564.961,227.709L563.961,229.499L237.461,229.499L236.45,227.709ZM271.814,289.051L529.58,289.051L528.522,290.897L272.834,290.897L271.814,289.051ZM330.909,238.766L353.067,238.766L376.858,279.687L368.624,279.687L347.989,244.28L334.089,244.28L330.909,238.766ZM314.385,245.516L333.221,245.516L328.734,251.03L317.566,251.03L314.385,245.516ZM318.385,262.354L313.573,254L311.378,250.291C310.097,249.562 308.938,248.901 307.778,248.239C306.619,247.577 305.46,246.916 304.178,246.187L298.261,246.187L300.406,249.92L306.3,249.92L313.474,262.357L318.385,262.354ZM317.735,251.648L336.7,251.648L352.8,279.688L339.532,279.688L337.881,276.819L344.512,276.819L333.27,257.187L326.786,257.187L330.114,263.072L332.876,263.072L334.552,265.965L323.458,265.965L321.782,263.072L324.223,263.072L318.4,252.86L318.425,252.86L317.735,251.648ZM326.224,272.962L324.573,270.069L335.573,270.069L337.25,272.962L326.224,272.962ZM341.9,256L343.552,258.893L354.572,258.893L352.9,256L341.9,256ZM346.486,263.788L344.834,260.896L355.829,260.896L357.506,263.788L346.486,263.788ZM372.495,238.839L384.23,238.839L384.23,244.353L372.494,244.353L372.495,238.839ZM377.672,245.639L366.75,245.639L369.95,251.153L382.425,251.153L382.425,263.22L390.166,269.698L390.166,245.64L377.672,245.639ZM372.002,263.439L372.002,267.173L379.373,267.173L379.373,279.684L384.279,279.684L384.279,270.362L376.316,263.439L372.002,263.439ZM404.939,245.639L390.565,245.639L396.926,251.153L404.938,251.153L404.938,279.686L413.173,279.686L413.173,245.64L404.939,245.639ZM455.522,238.839L430.868,238.839L427.688,244.378L447.088,244.378L455.522,238.839ZM476.059,244.378L484.49,238.839L458.874,238.839L455.694,244.378L476.059,244.378ZM470.117,252.242L478.697,252.242L462.897,279.688L454.317,279.688L467.556,256.688L451.38,256.688L453.944,252.238L470.117,252.242ZM471.572,250.066L473.224,247.173L462.224,247.173L460.547,250.066L471.572,250.066ZM443.122,260.327L440.262,260.327L440.237,265.445L452.49,265.445L452.49,279.663L444.206,279.663L444.206,271.528L432,271.528L432,251.128L430.447,251.128L424.086,245.614L440.259,245.614L440.259,257.433L442.774,257.433L442.774,254.862L449.233,254.862L449.233,257.433L452.684,257.433L451.427,260.326L449.58,260.326L449.58,263.046L443.121,263.046L443.122,260.327ZM449.162,257.756L443.122,257.756L443.122,260.179L449.162,260.179L449.162,257.756ZM428.674,254.269L423.768,249.992L423.768,262.355L428.674,262.355L428.674,254.269ZM416.446,249.917L416.446,246.184L419.38,246.184L423.67,249.917L416.446,249.917ZM549.335,238.839L558.535,238.839L554.49,245.862L548,245.862L540.508,258.867L532.273,258.867L536.712,251.153L520.29,251.153L523.473,245.639L545.437,245.639L549.335,238.839ZM539.424,260.921L514.248,260.921L511.092,266.459L516.639,266.459L511.609,275.188L506.087,275.188L503.498,279.688L528.55,279.688L532.815,272.295L528.205,272.295L526.53,275.188L518.221,275.188L523.25,266.459L536.241,266.459L539.424,260.921ZM479.955,263.443L477.81,267.177L485.181,267.177L477.981,279.688L482.887,279.688L488.014,270.788L483.774,263.444L479.955,263.443ZM519.745,238.843L499.656,238.843L496.476,244.382L511.317,244.382L519.745,238.843ZM496.695,245.52L520.66,245.52L500.988,279.692L487.01,279.692L488.661,276.823L494.554,276.823L509.37,251.059L501.629,251.059L496.649,259.59L497.98,259.59L496.329,262.482L485.235,262.482L486.886,259.59L488.486,259.59L496.695,245.52ZM498.741,266.043L491.123,266.043L489.446,268.911L497.089,268.911L498.741,266.043ZM534.733,238.843L541.981,238.843L538.802,244.382L531.554,244.382L534.733,238.843ZM242.88,238.843L266.449,238.843L262.48,244.382L246.06,244.382L242.88,238.843ZM268.206,238.843L288.52,238.843L284.551,244.382L271.39,244.382L268.206,238.843ZM254.054,250.07L252.403,247.177L263.4,247.177L265.077,250.07L254.054,250.07ZM278.441,256L280.093,258.893L291.113,258.893L289.437,256L278.441,256ZM282.928,263.788L281.276,260.896L292.276,260.896L293.952,263.788L282.928,263.788ZM271.76,245.64L293.924,245.64L313.524,279.687L305.29,279.687L288.846,251.154L274.94,251.154L271.76,245.64ZM278,279.687L286.26,279.687L270.876,252.987L250.956,252.987L254.136,258.501L265.8,258.501L278,279.687Z" style="fill:rgb(217,223,222);"/>
    <path d="M396.665,297.07L286.165,297.07L328.281,370.162L396.665,297.07ZM399.376,297.738L399.376,493.716L329.532,372.416L399.376,297.738ZM402.038,297.738L402.038,493.716L471.882,372.416L402.038,297.738ZM515.247,297.07L404.75,297.07L473.132,370.162L515.247,297.07Z" style="fill:rgb(217,223,222);"/>
</svg>
