<?xml version="1.0" encoding="UTF-8" standalone="no"?><!DOCTYPE svg PUBLIC "-//W3C//DTD SVG 1.1//EN" "http://www.w3.org/Graphics/SVG/1.1/DTD/svg11.dtd"><svg width="100%" height="100%" viewBox="0 0 500 500" version="1.1" xmlns="http://www.w3.org/2000/svg" xmlns:xlink="http://www.w3.org/1999/xlink" xml:space="preserve" xmlns:serif="http://www.serif.com/" style="fill-rule:evenodd;clip-rule:evenodd;stroke-linejoin:round;stroke-miterlimit:2;"><path d="M464.5,88.21l-214.5,323.58l-214.5,-323.58l429,0Zm-214.5,312.21l203.53,-306.21l-0.007,0l0.007,-0.01l-407.06,0l203.53,306.22l0,0Z" style="fill:#d9dfde;fill-rule:nonzero;"/><path d="M250,387.52l-190.3,-286.34l380.61,0l-190.31,286.34Zm12.72,-190.57l-15.05,0c-0.34,1.48 -0.7,2.81 -1,4.15c-0.068,0.72 -0.68,1.277 -1.404,1.277c-0.072,0 -0.144,-0.006 -0.216,-0.017l-3,0c-0.725,-0.112 -1.426,0.343 -1.62,1.05c-0.7,1.62 -1.41,3.16 -2.11,4.78c-0.25,0.56 -0.44,1.12 -0.77,2c2.87,-1.12 5,-3 7.84,-3.94c-0.017,0.449 -0.061,0.896 -0.13,1.34c-1.15,5.41 -2.35,10.82 -3.51,16.23c-0.427,1.609 -0.689,3.258 -0.78,4.92l0,122.55c-0.023,1.067 0.284,2.115 0.88,3c2.82,4.15 5.58,8.29 8.35,12.51c0.57,0.82 1.17,1.72 1.9,2.8c0.52,-0.72 0.86,-1.2 1.17,-1.68c2.72,-4.08 5.36,-8.15 8.17,-12.16c0.951,-1.357 1.445,-2.983 1.41,-4.64l0,-152.06c0,-0.7 -0.08,-1.409 -0.13,-2.11Zm93.11,16.46l-84.28,0c-1.13,4.34 -2.25,8.77 -3.39,13.19l-0.16,0c0.148,0.094 0.31,0.165 0.48,0.21c2,0.28 2,0.28 2,2.32l0,65.7c-0.037,1.121 0.278,2.226 0.9,3.16c4,6.11 8,12.23 11.95,18.34c0.219,0.292 0.452,0.572 0.7,0.84c0.093,-0.056 0.202,-0.08 0.31,-0.07l0,-89.1c-0.001,-0.021 -0.002,-0.041 -0.002,-0.062c0,-0.548 0.452,-1 1,-1c0.051,0 0.102,0.004 0.152,0.012c0.357,-0.059 0.719,-0.082 1.08,-0.07c1.93,0 2.11,0.14 2.11,2l0,85.2c0.391,-0.27 0.73,-0.609 1,-1c3.91,-5.9 7.79,-11.74 11.74,-17.57c0.696,-1.035 1.046,-2.264 1,-3.51l0,-62.23c-0.071,-0.608 -0.071,-1.222 0,-1.83c0.132,-0.428 0.426,-0.787 0.82,-1c2.27,-0.63 3.22,0.07 3.22,2.39l0,57.9c0.402,-0.217 0.746,-0.53 1,-0.91c3.92,-5.9 7.81,-11.74 11.76,-17.57c0.723,-1.024 1.096,-2.256 1.06,-3.51l0,-37.16c-0.002,-0.03 -0.004,-0.06 -0.004,-0.09c0,-0.603 0.497,-1.1 1.1,-1.1l0.004,0c2.48,-0.35 3,0.07 3,2.53l0,29c-0.139,0.65 -0.029,1.328 0.31,1.9c0.23,-0.28 0.4,-0.49 0.53,-0.63c4.11,-6.18 8.23,-12.3 12.29,-18.48c0.427,-0.699 0.655,-1.501 0.66,-2.32l0,-10.26c0,-1.55 0.2,-1.69 1.76,-1.76c1.91,0 3.82,0 5.73,0.07c0.891,0.03 1.73,-0.427 2.19,-1.19c2.42,-3.72 4.89,-7.38 7.34,-11c0.246,-0.43 0.46,-0.878 0.64,-1.34Zm-123.75,-0.09l-82.68,0c-0.46,0 -0.93,0.07 -1.41,0.07c-0.057,0.027 -0.097,0.079 -0.11,0.14c-0.029,0.044 -0.052,0.091 -0.07,0.14c0.022,0.123 0.066,0.242 0.13,0.35c2.7,4 5.39,8 8.07,12c0.318,0.593 0.973,0.928 1.64,0.84l5.55,0c1.89,0.07 2.06,0.21 2.06,2l0,9.49c-0.041,0.951 0.234,1.89 0.78,2.67c4,6 8.05,12 12.09,18c0.2,0.28 0.51,0.49 1,1l0,-30.54c-0.045,-0.541 -0.022,-1.085 0.07,-1.62c0.097,-0.382 0.373,-0.695 0.74,-0.84c0.358,-0.257 0.788,-0.395 1.229,-0.395c1.157,0 2.11,0.953 2.11,2.11c0,0.181 -0.023,0.36 -0.069,0.535l0,35.84c-0.055,0.941 0.19,1.877 0.7,2.67c4.07,6 8.1,12.09 12.14,18.13c0.297,0.368 0.632,0.703 1,1l0,-57.07c-0.068,-0.608 -0.068,-1.222 0,-1.83c0.117,-0.423 0.398,-0.783 0.78,-1c2.13,-0.77 3.25,0 3.25,2.25l0,1.48c0.04,20.26 0.04,40.543 0,60.85c-0.018,1.304 0.374,2.581 1.12,3.65c3.37,4.92 6.68,9.84 10,14.83l2.29,3.36c0.128,-0.032 0.258,-0.052 0.39,-0.06l0,-85.29c-0.023,-0.624 0.467,-1.158 1.09,-1.19c2.63,-0.42 3.23,0.07 3.23,2.74l0,87.37c0.461,-0.224 0.852,-0.57 1.13,-1c3.9,-6 7.77,-12 11.71,-18c0.69,-1.038 1.039,-2.265 1,-3.51l0,-66.13c-0.025,-0.097 -0.037,-0.196 -0.037,-0.296c0,-0.659 0.542,-1.2 1.2,-1.2c0.066,0 0.132,0.005 0.197,0.016c0.28,0 0.57,-0.07 1.12,-0.07c-1.16,-4.57 -2.28,-9 -3.44,-13.49Zm22.32,-10.68c-1,0.42 -2,0.7 -3,1.19c-0.305,0.189 -0.657,0.289 -1.016,0.289c-0.67,0 -1.293,-0.349 -1.644,-0.919c-0.32,-0.42 -0.66,-0.77 -1,-1.19l-0.11,0c2.525,-0.665 5.173,-0.713 7.72,-0.14c-0.273,0.307 -0.593,0.567 -0.95,0.77Zm-59.63,-26.48l-5.6,0l0,10.47l1.26,0l0,-4.23l2.16,0l2,3.23c0.142,0.22 0.325,0.41 0.54,0.56l0.29,0.21c0.091,0.102 0.209,0.175 0.34,0.21l0.74,0l0,-0.56c0.022,-0.139 0.022,-0.281 0,-0.42c-0.087,-0.113 -0.196,-0.208 -0.32,-0.28l-0.17,-0.07c-0.119,-0.043 -0.226,-0.116 -0.31,-0.21c-0.091,-0.08 -0.169,-0.175 -0.23,-0.28l-1.55,-2.46l0.84,0c0.246,-0.001 0.485,-0.074 0.69,-0.21l0.38,-0.35c0.232,-0.188 0.368,-0.471 0.37,-0.77l0,-3.51c0,-0.297 -0.132,-0.58 -0.36,-0.77l-0.37,-0.28c-0.188,-0.181 -0.439,-0.282 -0.7,-0.28Zm152.21,-0.01l-1.27,0l0,10.47l1.27,0l0,-4.85l5.52,0l0,4.85l1.26,0l0,-10.47l-1.31,0l0,4.64l-5.47,0l0,-4.64Zm-204.57,0l-1.26,0l0,10.47l1.37,0l0,-7.62c-0.002,-0.26 -0.039,-0.519 -0.11,-0.77l-0.01,-0.04l5.51,8.43l1.26,0l0,-10.47l-1.26,0l0,7.8c-0.003,0.238 0.034,0.475 0.11,0.7l0,0.07l-5.61,-8.57Zm151.74,0l-7.94,0l0,1.05l3.33,0l0,9.42l1.27,0l0,-9.42l3.34,0l0,-1.05Zm-129,0l-7.94,0l0,1.05l3.34,0l0,9.42l1.26,0l0,-9.42l3.34,0l0,-1.05Zm106.71,0l-0.08,0l0,10.47l1.22,0l0,-4.78l1.56,0l2.35,3.79c0.11,0.14 0.2,0.28 0.25,0.35c0.081,0.094 0.184,0.166 0.3,0.21l0.28,0.21c0.091,0.102 0.209,0.175 0.34,0.21l0.92,0l0,-0.56c0.026,-0.139 0.026,-0.281 0,-0.42c-0.085,-0.112 -0.19,-0.207 -0.31,-0.28l-0.17,-0.07c-0.121,-0.045 -0.231,-0.117 -0.32,-0.21c-0.095,-0.104 -0.172,-0.222 -0.23,-0.35l-1.91,-3c-0.077,-0.161 -0.213,-0.286 -0.38,-0.35l0,-0.07c0.181,-0.039 0.326,-0.173 0.38,-0.35l1.81,-2.88c0.065,-0.126 0.146,-0.244 0.24,-0.35c0.087,-0.096 0.197,-0.168 0.32,-0.21l0.16,-0.07c0.28,-0.107 0.44,-0.408 0.37,-0.7l0,-0.56l-0.7,0c-0.131,0.035 -0.249,0.108 -0.34,0.21l-0.29,0.21c-0.215,0.15 -0.398,0.34 -0.54,0.56l-2.27,3.65l-1.62,0l0,-4.64l-1.34,-0.02Zm-140.31,0l-1.26,0l0,10.47l1.26,0l0,-10.47Zm238.59,0l-6.74,0l0,10.47l6.74,0l0,-1.05l-5.48,0l0,-3.73l4.64,0l0,-1.05l-4.64,0l0,-3.59l5.48,0l0,-1.05Zm-128.76,0l-1.26,0l0,10.47l6.5,0l0,-1.05l-5.24,0l0,-9.42Zm17.93,0l-1.8,0l-3.61,10.47l1.26,0l0.75,-2.18l5,0l0.78,2.18l1.31,0l-3.69,-10.47Zm44.16,0l-1.26,0l0,10.47l1.26,0l0,-10.47Zm-75.92,0l-1.78,0l-3.61,10.47l1.16,0l0.75,-2.18l5.12,0l0.79,2.18l1.26,0l-3.69,-10.47Zm-47.6,1.05l0,-1.05l-6.74,0l0,10.47l6.74,0l0,-1.05l-5.48,0l0,-3.73l4.64,0l0,-1.05l-4.64,0l0,-3.59l5.48,0Zm138.36,-1.09l-4,0c-0.26,0.005 -0.508,0.105 -0.7,0.28l-0.36,0.28c-0.232,0.188 -0.368,0.471 -0.37,0.77l0,3.09c0.017,0.244 0.133,0.472 0.32,0.63l0.41,0.35c0.207,0.148 0.448,0.245 0.7,0.28l3.84,0c0.079,0.031 0.151,0.079 0.21,0.14c0.076,0.049 0.133,0.124 0.16,0.21c0.014,0.093 0.014,0.187 0,0.28l0,2.58c0.01,0.093 0.01,0.187 0,0.28c-0.01,0.093 -0.07,0.07 -0.16,0.14c-0.059,0.061 -0.131,0.109 -0.21,0.14l-3.77,0c-0.081,-0.028 -0.153,-0.076 -0.21,-0.14l-0.16,-0.14c-0.01,-0.093 -0.01,-0.187 0,-0.28l-0.01,-0.28l-1.26,0l0,0.56c0,0.297 0.132,0.58 0.36,0.77l0.37,0.28c0.188,0.181 0.439,0.282 0.7,0.28l4.3,0c0.261,0.002 0.512,-0.099 0.7,-0.28l0.36,-0.28c0.232,-0.188 0.368,-0.471 0.37,-0.77l0,-3.16c-0.002,-0.299 -0.138,-0.582 -0.37,-0.77l-0.36,-0.28c-0.188,-0.181 -0.439,-0.282 -0.7,-0.28l-3.94,0c-0.063,-0.056 -0.134,-0.103 -0.21,-0.14c-0.074,-0.05 -0.127,-0.124 -0.15,-0.21c-0.019,-0.092 -0.019,-0.188 0,-0.28l0,-2.39c-0.014,-0.093 -0.014,-0.187 0,-0.28c0.014,-0.093 0.06,-0.07 0.15,-0.14c0.059,-0.061 0.131,-0.109 0.21,-0.14l3.58,0c0.079,0.031 0.151,0.079 0.21,0.14c0.054,0.043 0.104,0.089 0.15,0.14c0.011,0.093 0.011,0.187 0,0.28l0,0.23l1.26,0l0,-0.56c0,-0.297 -0.132,-0.58 -0.36,-0.77l-0.36,-0.28c-0.192,-0.175 -0.44,-0.275 -0.7,-0.28Zm-106.29,9.45l-4.39,0c-0.08,-0.029 -0.152,-0.077 -0.21,-0.14l-0.16,-0.14c-0.01,-0.093 -0.01,-0.187 0,-0.28l0,-7.24c-0.01,-0.093 -0.01,-0.187 0,-0.28c0.01,-0.093 0.07,-0.07 0.16,-0.14c0.058,-0.063 0.13,-0.111 0.21,-0.14l4.37,0c0.079,0.031 0.151,0.079 0.21,0.14l0.16,0.14c0.01,0.093 0.01,0.187 0,0.28l0.02,0.24l1.26,0l0,-0.56c-0.002,-0.299 -0.138,-0.582 -0.37,-0.77l-0.36,-0.28c-0.191,-0.177 -0.44,-0.277 -0.7,-0.28l-4.81,0c-0.261,-0.002 -0.512,0.099 -0.7,0.28l-0.37,0.28c-0.228,0.19 -0.36,0.473 -0.36,0.77l0,7.8c0,0.297 0.132,0.58 0.36,0.77l0.37,0.28c0.188,0.181 0.439,0.282 0.7,0.28l4.81,0c0.26,-0.003 0.509,-0.103 0.7,-0.28l0.36,-0.28c0.232,-0.188 0.368,-0.471 0.37,-0.77l0,-4.08l-3.55,0l0,1.05l2.29,0l0,2.79c0.01,0.093 0.01,0.187 0,0.28l-0.16,0.14c-0.059,0.061 -0.131,0.109 -0.21,0.14Zm123.44,-9.45l-4.85,0c-0.26,0.003 -0.509,0.103 -0.7,0.28l-0.36,0.28c-0.232,0.188 -0.368,0.471 -0.37,0.77l0,7.8c0.002,0.299 0.138,0.582 0.37,0.77l0.36,0.28c0.191,0.177 0.44,0.277 0.7,0.28l4.85,0c0.261,0.002 0.512,-0.099 0.7,-0.28l0.37,-0.28c0.228,-0.19 0.36,-0.473 0.36,-0.77l0,-0.56l-1.26,0l0,0.32c0.01,0.093 0.01,0.187 0,0.28c-0.01,0.093 -0.07,0.07 -0.15,0.14c-0.061,0.064 -0.137,0.112 -0.22,0.14l-4.42,0c-0.079,-0.031 -0.151,-0.079 -0.21,-0.14l-0.16,-0.14c-0.01,-0.093 -0.01,-0.187 0,-0.28l0,-7.24c-0.01,-0.093 -0.01,-0.187 0,-0.28c0.01,-0.093 0.07,-0.07 0.16,-0.14c0.059,-0.061 0.131,-0.109 0.21,-0.14l4.42,0c0.083,0.028 0.159,0.076 0.22,0.14l0.15,0.14c0.01,0.093 0.01,0.187 0,0.28l0,0.24l1.26,0l0,-0.56c0,-0.297 -0.132,-0.58 -0.36,-0.77l-0.37,-0.28c-0.188,-0.181 -0.439,-0.282 -0.7,-0.28Zm-74.96,7.35l-4.27,0l2,-6c0.043,-0.126 0.07,-0.257 0.08,-0.39c0.01,0.133 0.037,0.264 0.08,0.39l2.11,6Zm-31.63,-0.02l-4.38,0l2.04,-6c0.05,-0.138 0.081,-0.283 0.09,-0.43c0.038,0.152 0.099,0.297 0.18,0.43l2.07,6Zm-34.42,-2.09l-4,0l0,-4.15l4,0c0.079,0.031 0.151,0.079 0.21,0.14l0.15,0.14c0.01,0.093 0.01,0.187 0,0.28l0,3c0.01,0.093 0.01,0.187 0,0.28c-0.033,0.062 -0.086,0.112 -0.15,0.14c-0.044,0.068 -0.102,0.126 -0.17,0.17l-0.04,0Zm-114.77,-69.99c0.32,0.56 0.6,1.05 0.92,1.55c11.807,17.593 23.567,35.207 35.28,52.84c0.658,1.121 1.917,1.756 3.21,1.62l265.69,0c1.351,0.151 2.669,-0.514 3.35,-1.69c11.67,-17.68 23.42,-35.14 35.14,-52.68c0.3,-0.49 0.6,-1.05 1,-1.69l-0.08,0c-2.38,-0.44 -343.19,-0.31 -344.51,0.05Zm80.17,47.65c-4.29,0 -8.58,-0.07 -12.87,0c-1.091,0.084 -2.129,-0.503 -2.62,-1.48c-1.59,-2.6 -3.27,-5.2 -4.92,-7.87c-0.601,-0.61 -0.649,-1.585 -0.11,-2.25c2.91,-3.51 5.78,-7.1 8.68,-10.68c0.155,-0.084 0.302,-0.181 0.44,-0.29c4.745,7.191 9.059,14.658 12.92,22.36c-0.493,0.075 -0.991,0.118 -1.49,0.13l-0.03,0.08Zm17.43,0l-10,0c-1.78,-0.07 -1.9,-0.21 -1.9,-2l0,-35.81c0.06,-1.19 0.2,-1.34 1.34,-1.41c0.174,-0.058 0.357,-0.082 0.54,-0.07c3.34,0 6.68,0 10,0.07c1.69,0 1.86,0.14 1.86,1.83l-0.01,35.39c0,1.69 -0.24,2 -1.83,2Zm-46.75,-0.04l-8.05,0c-0.74,0 -1.45,0 -2.15,-0.07c-1.13,-0.07 -1.33,-0.28 -1.41,-1.41l0,-35.24c0,-0.77 0.1,-1.55 0.15,-2.25l-0.07,0c0.33,-0.07 0.51,-0.21 0.68,-0.21l11.76,0c0.088,-0.023 0.178,-0.035 0.269,-0.035c0.576,0 1.05,0.474 1.05,1.05c0,0.082 -0.01,0.165 -0.029,0.245l-0.04,1.31l0,34.5c-0.06,2 -0.1,2.11 -2.16,2.11Zm224.41,0l-9.67,0c-1.93,0 -2,-0.14 -2,-2l0,-35.97c-0.015,-0.07 -0.023,-0.141 -0.023,-0.213c0,-0.549 0.451,-1 1,-1c0.072,0 0.143,0.008 0.213,0.023l3.23,0c2.5,0 5,-0.07 7.52,0c1.67,0 1.81,0.14 1.81,1.83l-0.08,21.87l0,13.35c0,1.9 -0.2,2.11 -2,2.11Zm-28.328,-0.022c-2.038,0.012 -4.076,0.022 -6.112,0.022c-1.47,0 -1.69,-0.28 -1.69,-1.69l0,-7.52c0,-0.35 0.09,-0.7 0.16,-1.26l-0.09,0c1.32,-0.07 2.5,-0.14 3.82,-0.14c4.6,0 9.19,0.07 13.79,0.07c1.85,0 1.93,0.07 1.93,1.9l-0.02,6.81c0,1.55 -0.2,1.76 -1.6,1.76c-2.036,0 -4.074,0.01 -6.112,0.022l-4.076,0.026Zm-8.402,-1.948c0,1.69 -0.23,1.9 -1.83,1.9c-3.4,0.07 -6.8,0.07 -10.2,0.07c-1.53,-0.07 -1.71,-0.28 -1.71,-1.83l0,-35.94c0.06,-1.19 0.2,-1.34 1.34,-1.41c0.536,-0.035 1.074,-0.035 1.61,0c3,0 6,-0.07 8.95,0c1.69,0 1.85,0.14 1.85,1.83l-0.01,35.38Zm-53.78,1.96c-1.029,0.05 -2.016,-0.425 -2.62,-1.26c-1.38,-1.69 -2.85,-3.37 -4.32,-5c-0.623,-0.664 -0.958,-1.55 -0.93,-2.46l0,-22c0.023,-0.692 0.268,-1.359 0.7,-1.9c1.52,-2 3.16,-3.79 4.72,-5.62c0.446,-0.659 1.205,-1.039 2,-1c3.89,0.07 7.76,0 11.65,0.07c1.55,0 1.73,0.14 1.73,1.76l0,6.82c0,1.69 -0.22,1.9 -2,1.9l-4.89,0l0,18.27c1.348,0.278 2.731,0.349 4.1,0.21c2.75,0.07 2.81,-0.28 2.81,2.88c-0.01,1.75 0.01,3.65 -0.01,5.37l-0.07,-0.04c0,1.69 -0.23,1.9 -1.83,2l-11.04,0Zm34.34,-7.9c-0.036,0.765 -0.304,1.502 -0.77,2.11c-1.27,1.62 -2.7,3.16 -4,4.78c-0.526,0.666 -1.342,1.038 -2.19,1l-12.15,0c-1.48,-0.07 -1.71,-0.28 -1.71,-1.69l0,-7c0,-1.34 0.19,-1.48 1.6,-1.55l5.45,0l0,-3.3c-0.71,-0.07 -1.34,-0.14 -2,-0.14l-7.16,0c-1.67,0 -1.83,-0.21 -1.83,-1.9l0,-6.37c0,-1.34 0.18,-1.48 1.47,-1.48l21.82,0c1.33,0 1.54,0.21 1.54,1.62c0.05,4.65 0.07,9.29 0,13.92l-0.07,0Zm-91.77,7.52c-0.546,0.162 -1.105,0.279 -1.67,0.35c-3.65,0 -7.29,-0.07 -10.93,0c-1.041,0.092 -2.001,-0.603 -2.24,-1.62c-1.09,-3 -2.25,-6 -3.41,-9c-0.7,-1.83 -0.72,-1.83 -2.72,-1.83l-4.57,0c-1.36,0 -1.62,-0.28 -1.62,-1.55l0,-7.17c0,-1.41 0.18,-1.55 1.58,-1.55l9.14,0c0.58,0 1.19,-0.07 1.9,-0.07c0.181,-2.102 0.218,-4.213 0.11,-6.32c-0.597,-0.078 -1.198,-0.125 -1.8,-0.14l-9,0c-1.83,0 -2,-0.14 -2,-1.9l0,-6.46c0,-1.41 0.16,-1.55 1.57,-1.55c6,-0.07 11.95,0 17.92,-0.07c0.849,-0.029 1.658,0.365 2.16,1.05c1.39,1.62 2.84,3.23 4.16,4.92c0.421,0.547 0.666,1.21 0.7,1.9l0,8.43c0.033,0.836 -0.278,1.649 -0.86,2.25c-1.11,1.26 -2.1,2.6 -3.28,3.79c-0.999,0.887 -1.208,2.383 -0.49,3.51c1.62,3.65 3.11,7.31 4.64,11c0.22,0.56 0.41,1.12 0.74,2l-0.03,0.03Zm171.45,-15c1.24,3 2.45,5.9 3.74,8.85c0.64,1.55 1.34,3.09 1.93,4.57c0.59,1.48 0.49,1.86 -1.12,1.86c-3.64,0.07 -7.28,0.07 -10.91,0.07c-0.986,0.079 -1.891,-0.585 -2.11,-1.55c-1.13,-3.16 -2.38,-6.32 -3.6,-9.49c-0.53,-1.41 -0.56,-1.41 -2.07,-1.41l-5.37,0c-1.26,0 -1.46,-0.21 -1.46,-1.48l0,-7.31c0,-1.34 0.15,-1.48 1.47,-1.48l11,0l0,-6.46c-0.7,0 -1.34,-0.07 -2,-0.07l-8.77,0c-1.6,-0.07 -1.75,-0.21 -1.75,-1.76l0,-6.61c0,-1.41 0.15,-1.55 1.56,-1.55c6,-0.07 12.05,0 18.07,-0.07c0.773,-0.031 1.516,0.307 2,0.91c1.34,1.62 2.75,3.16 4,4.85c0.424,0.546 0.669,1.21 0.7,1.9l0,8.92c0.008,0.841 -0.319,1.651 -0.91,2.25c-1.41,1.62 -2.78,3.3 -4.29,5.06l-0.11,0Zm-149.34,15.35l-10.73,0c-0.84,-0.009 -1.634,-0.395 -2.16,-1.05c-1.49,-1.83 -3,-3.58 -4.5,-5.34c-0.517,-0.58 -0.799,-1.333 -0.79,-2.11l0,-29.37c0.024,-0.376 0.071,-0.75 0.14,-1.12c0.527,-0.079 1.058,-0.126 1.59,-0.14c3.28,-0.073 6.56,-0.073 9.84,0c1.85,0 1.93,0.07 1.93,1.9l0,26l4.66,0c1.5,0 1.71,0.21 1.71,1.62l-0.03,7.85c0,1.41 -0.25,1.69 -1.66,1.76Zm14.61,-0.01l-10.72,0c-1.29,-0.07 -1.55,-0.35 -1.55,-1.69l0,-8c0,-1.34 0.2,-1.55 1.6,-1.55l4.48,0l0,-26.48c0.06,-1.26 0.18,-1.41 1.47,-1.41c2.81,-0.07 5.62,0 8.43,0l2.68,0c0.07,-0.015 0.141,-0.023 0.213,-0.023c0.549,0 1,0.451 1,1c0,0.072 -0.008,0.143 -0.023,0.213l0,28.25c0.105,1.429 -0.409,2.835 -1.41,3.86c-1.45,1.48 -2.75,3.09 -4.06,4.71c-0.483,0.689 -1.269,1.106 -2.11,1.12Zm-83.28,-38.92c-0.012,0.263 -0.063,0.522 -0.15,0.77c-8.607,10.26 -17.223,20.52 -25.85,30.78c-0.226,0.172 -0.467,0.323 -0.72,0.45l-0.03,0.01c-0.103,-0.488 -0.177,-0.983 -0.22,-1.48l0,-15.28c-0.011,-0.77 0.255,-1.52 0.75,-2.11c3.27,-4.08 6.52,-8.22 9.77,-12.3c0.416,-0.671 1.141,-1.092 1.93,-1.12c4.6,0.07 9.18,0.07 13.78,0.07c0.299,0.024 0.593,0.095 0.87,0.21l-0.13,0Zm173.91,24.29l-13.92,0c-1.56,-0.07 -1.78,-0.21 -1.78,-1.76l0,-7.31c0,-1.55 0.15,-1.69 1.62,-1.69l14.1,0c1.46,0 1.76,0.28 1.76,1.83l0,7.17c0,1.48 -0.28,1.76 -1.78,1.76Zm-55.42,-13.99c-0.024,0.002 -0.048,0.002 -0.071,0.002c-0.587,0 -1.07,-0.483 -1.07,-1.07c0,-0.017 0,-0.035 0.001,-0.052l0,-8.36c-0.003,-0.032 -0.005,-0.063 -0.005,-0.095c0,-0.499 0.411,-0.91 0.91,-0.91c0.032,0 0.063,0.002 0.095,0.005l3,0c3.22,-0.07 6.44,0 9.65,-0.07c1.021,-0.079 2.015,0.371 2.63,1.19c1.34,1.62 2.74,3.23 4.15,4.85c0.263,0.251 0.459,0.564 0.57,0.91c0.06,2 0.11,4 0.06,6c-0.044,0.273 -0.2,0.516 -0.43,0.67l-0.07,0c-0.235,0.148 -0.522,0.191 -0.79,0.12l-10.29,0c-1.9,0 -2,-0.07 -2.07,-2c0,-0.28 -0.06,-0.56 -0.13,-1.19l-6.14,0Zm57.68,-0.01l-16.07,0c-1.58,0 -1.74,-0.21 -1.74,-1.83l-0.01,-7.1c0,-1.41 0.13,-1.55 1.54,-1.55c2.72,-0.07 5.44,0 8.16,0c2.72,0 5.32,-0.07 8.1,0c1.48,0 1.68,0.14 1.68,1.62l0,7.17c0,1.41 -0.25,1.69 -1.66,1.69Z" style="fill:#d9dfde;fill-rule:nonzero;"/></svg>