<?xml version="1.0" encoding="UTF-8" standalone="no"?><!DOCTYPE svg PUBLIC "-//W3C//DTD SVG 1.1//EN" "http://www.w3.org/Graphics/SVG/1.1/DTD/svg11.dtd"><svg width="100%" height="100%" viewBox="0 0 203 82" version="1.1" xmlns="http://www.w3.org/2000/svg" xmlns:xlink="http://www.w3.org/1999/xlink" xml:space="preserve" xmlns:serif="http://www.serif.com/" style="fill-rule:evenodd;clip-rule:evenodd;stroke-linejoin:round;stroke-miterlimit:2;"><path id="path583" d="M35.075,3.685l12.165,0l-11.124,13.296l15.169,0c0,0 5.926,16.667 7.383,23.845c-10.652,12.983 -31.414,37.337 -31.414,37.337l-12.113,0l11.213,-13.344l-15.44,0l-7.229,-23.889l31.39,-37.245m-7.952,23.87l-11.189,13.117l4.216,13.58l15.108,0l11.298,-13.414l-4.144,-13.283l-15.289,0Z" style="fill:#d9dfde;fill-rule:nonzero;"/><path id="path689" d="M63.419,27.553c0,0 25.768,-0.174 38.547,0c10.965,0.26 12.955,5.068 11.055,13.167l-4.054,14.066l-9.369,0l4.062,-15.63c0.262,-1.015 0.98,-4.463 -4.543,-4.585l-6.429,0c-1.762,6.751 -5.416,20.215 -5.416,20.215l-9.396,0l5.346,-20.232l-12.032,-0.01l-5.419,20.242l-9.832,0l7.48,-27.233Z" style="fill:#d9dfde;fill-rule:nonzero;"/><path id="path693" d="M142.495,27.553c7.487,0.016 22.465,0 22.465,0l-1.851,6.768l-21.094,0.087c-2.985,-0.096 -3.639,3.767 -1.073,3.74l12.629,0.012c7.524,0.085 9.263,4.173 6.068,11.45c-1.585,2.926 -4.7,5.161 -8.951,5.176l-24.349,0l1.877,-6.717l20.536,0.065c2.727,0.134 3.799,-3.918 0.372,-3.948l-11.457,0.006c-4.211,-0.007 -7.774,-1.453 -7.489,-6.015c0.815,-6.799 4.328,-10.324 12.317,-10.624Z" style="fill:#d9dfde;fill-rule:nonzero;"/><path id="path695" d="M180.102,27.552l19.07,0.001l-2.005,7.216l-16.839,0.027c-4.425,0.062 -7.036,3.813 -7.186,9.899c0.085,2.588 2.214,3.097 4.921,3.088l15.826,0.021l-2.138,6.982l-18.521,0c-9.646,0.064 -10.966,-6.841 -9.567,-12.289c2.379,-10.901 9.041,-14.544 16.439,-14.945Z" style="fill:#d9dfde;fill-rule:nonzero;"/><path id="path697" d="M120.125,28.131l9.591,0l-7.053,26.655l-9.798,0l7.26,-26.655Z" style="fill:#d9dfde;fill-rule:nonzero;"/><path id="path701" d="M27.437,28.693l3.479,12.095l-13.742,0l10.263,-12.095Z" style="fill:#d9dfde;fill-rule:nonzero;"/><path id="path703" d="M41.672,28.693l3.705,12.095l-14.086,0l10.381,-12.095Z" style="fill:#d9dfde;fill-rule:nonzero;"/><path id="path767" d="M30.98,41.089l4.035,12.069l-14.166,0l10.131,-12.069Z" style="fill:#d9dfde;fill-rule:nonzero;"/><g id="text3358"><path id="path3491" d="M59.156,65.189l0.685,-3.531c0.038,-0.196 0.061,-0.402 0.067,-0.618c0.006,-0.216 -0.022,-0.409 -0.086,-0.581c-0.057,-0.177 -0.161,-0.323 -0.314,-0.437c-0.152,-0.115 -0.364,-0.172 -0.637,-0.172c-0.273,0 -0.52,0.07 -0.742,0.21c-0.216,0.133 -0.406,0.295 -0.571,0.485c-0.064,-0.222 -0.181,-0.393 -0.352,-0.514c-0.165,-0.12 -0.381,-0.181 -0.647,-0.181c-0.223,0 -0.432,0.051 -0.629,0.153c-0.196,0.095 -0.374,0.219 -0.532,0.371l0.076,-0.409l-0.8,0l-1.018,5.224l0.895,0l0.533,-2.779c0.031,-0.158 0.073,-0.336 0.123,-0.533c0.051,-0.203 0.121,-0.393 0.21,-0.571c0.088,-0.177 0.203,-0.323 0.342,-0.437c0.14,-0.121 0.311,-0.181 0.514,-0.181c0.178,0 0.295,0.057 0.352,0.171c0.064,0.108 0.076,0.327 0.038,0.657c-0.038,0.323 -0.12,0.78 -0.247,1.37c-0.121,0.584 -0.273,1.351 -0.457,2.303l0.904,0l0.599,-3.093c0.032,-0.159 0.077,-0.32 0.134,-0.485c0.057,-0.171 0.13,-0.327 0.219,-0.466c0.088,-0.14 0.196,-0.251 0.323,-0.334c0.127,-0.088 0.276,-0.133 0.447,-0.133c0.153,0 0.26,0.041 0.324,0.124c0.063,0.076 0.098,0.171 0.105,0.285c0.012,0.115 0.006,0.238 -0.019,0.372c-0.02,0.133 -0.039,0.253 -0.058,0.361l-0.656,3.369l0.875,0Z" style="fill:#d9dfde;fill-rule:nonzero;"/><path id="path3493" d="M63.237,65.189l1.018,-5.224l-0.876,0l-0.552,2.873c-0.038,0.184 -0.085,0.375 -0.142,0.571c-0.057,0.191 -0.137,0.365 -0.238,0.524c-0.095,0.158 -0.216,0.288 -0.362,0.39c-0.146,0.101 -0.32,0.152 -0.523,0.152c-0.19,0 -0.324,-0.051 -0.4,-0.152c-0.07,-0.102 -0.111,-0.229 -0.123,-0.381c-0.013,-0.165 -0.004,-0.33 0.028,-0.495c0.032,-0.165 0.063,-0.33 0.095,-0.495l0.59,-2.987l-0.866,0l-0.637,3.273c-0.032,0.165 -0.061,0.336 -0.086,0.514c-0.025,0.171 -0.032,0.342 -0.019,0.514c0.019,0.165 0.063,0.323 0.133,0.475c0.076,0.146 0.197,0.27 0.362,0.372c0.095,0.063 0.2,0.107 0.314,0.133c0.114,0.031 0.231,0.047 0.352,0.047c0.235,0 0.45,-0.047 0.647,-0.142c0.197,-0.096 0.377,-0.222 0.542,-0.381l-0.076,0.419l0.819,0Z" style="fill:#d9dfde;fill-rule:nonzero;"/><path id="path3495" d="M67.011,61.468l0.847,-0.133c0.032,-0.533 -0.067,-0.914 -0.295,-1.142c-0.222,-0.228 -0.571,-0.343 -1.047,-0.343c-0.228,0 -0.444,0.038 -0.647,0.115c-0.196,0.076 -0.374,0.18 -0.533,0.314c-0.152,0.133 -0.282,0.295 -0.39,0.485c-0.108,0.184 -0.184,0.387 -0.228,0.609c-0.051,0.254 -0.054,0.466 -0.01,0.637c0.051,0.172 0.127,0.314 0.229,0.429c0.101,0.114 0.222,0.206 0.361,0.276c0.146,0.069 0.292,0.13 0.438,0.18c0.07,0.032 0.136,0.057 0.2,0.077c0.07,0.019 0.139,0.041 0.209,0.066c0.083,0.032 0.162,0.067 0.238,0.105c0.076,0.032 0.14,0.076 0.19,0.133c0.051,0.051 0.089,0.111 0.115,0.181c0.025,0.07 0.028,0.155 0.009,0.257c-0.051,0.247 -0.162,0.441 -0.333,0.58c-0.171,0.133 -0.377,0.2 -0.619,0.2c-0.279,0 -0.472,-0.079 -0.58,-0.238c-0.108,-0.165 -0.149,-0.428 -0.124,-0.79l-0.856,0.181c-0.025,0.558 0.076,0.974 0.304,1.247c0.235,0.266 0.616,0.399 1.142,0.399c0.241,0 0.47,-0.041 0.685,-0.123c0.216,-0.083 0.41,-0.197 0.581,-0.343c0.171,-0.146 0.314,-0.317 0.428,-0.514c0.121,-0.203 0.206,-0.425 0.257,-0.666c0.051,-0.26 0.051,-0.476 0,-0.647c-0.044,-0.178 -0.121,-0.323 -0.228,-0.438c-0.102,-0.114 -0.226,-0.206 -0.372,-0.276c-0.145,-0.069 -0.291,-0.13 -0.437,-0.18c-0.07,-0.026 -0.143,-0.048 -0.219,-0.067c-0.07,-0.019 -0.14,-0.041 -0.209,-0.067c-0.083,-0.031 -0.162,-0.063 -0.238,-0.095c-0.076,-0.038 -0.143,-0.082 -0.2,-0.133c-0.051,-0.051 -0.089,-0.111 -0.114,-0.181c-0.026,-0.076 -0.029,-0.165 -0.01,-0.266c0.045,-0.222 0.143,-0.384 0.295,-0.486c0.159,-0.107 0.349,-0.161 0.571,-0.161c0.222,0 0.381,0.063 0.476,0.19c0.095,0.127 0.133,0.336 0.114,0.628l0,0Z" style="fill:#d9dfde;fill-rule:nonzero;"/><path id="path3497" d="M71.708,63.542c0.051,-0.304 0.108,-0.602 0.171,-0.894c0.064,-0.292 0.118,-0.552 0.162,-0.78c0.057,-0.279 0.092,-0.54 0.105,-0.781c0.019,-0.247 -0.01,-0.463 -0.086,-0.647c-0.07,-0.184 -0.2,-0.326 -0.39,-0.428c-0.19,-0.108 -0.466,-0.162 -0.828,-0.162c-0.514,0 -0.948,0.124 -1.304,0.372c-0.355,0.241 -0.637,0.65 -0.847,1.227l0.79,0.152c0.07,-0.171 0.137,-0.317 0.2,-0.437c0.07,-0.121 0.146,-0.219 0.228,-0.295c0.089,-0.077 0.188,-0.13 0.295,-0.162c0.108,-0.032 0.238,-0.048 0.391,-0.048c0.203,0 0.352,0.038 0.447,0.114c0.095,0.077 0.155,0.175 0.181,0.295c0.031,0.121 0.034,0.254 0.009,0.4c-0.019,0.14 -0.041,0.276 -0.066,0.409c-0.115,0.045 -0.232,0.08 -0.353,0.105c-0.114,0.025 -0.234,0.047 -0.361,0.067c-0.21,0.038 -0.413,0.072 -0.609,0.104c-0.19,0.032 -0.374,0.083 -0.552,0.152c-0.178,0.064 -0.346,0.156 -0.504,0.276c-0.153,0.121 -0.292,0.283 -0.419,0.486c-0.07,0.114 -0.127,0.231 -0.171,0.352c-0.045,0.12 -0.08,0.238 -0.105,0.352c-0.089,0.444 -0.035,0.809 0.162,1.094c0.203,0.286 0.536,0.428 0.999,0.428c0.285,0 0.542,-0.05 0.771,-0.152c0.228,-0.095 0.453,-0.228 0.675,-0.4c0,0.07 0.003,0.14 0.01,0.21c0.006,0.07 0.019,0.149 0.038,0.238l0.923,0c-0.051,-0.235 -0.07,-0.492 -0.057,-0.771c0.012,-0.279 0.044,-0.571 0.095,-0.876l0,0Zm-1.275,-0.637c0.095,-0.025 0.19,-0.051 0.285,-0.076c0.095,-0.026 0.191,-0.054 0.286,-0.086c-0.038,0.19 -0.089,0.39 -0.153,0.6c-0.063,0.203 -0.152,0.393 -0.266,0.571c-0.114,0.171 -0.257,0.314 -0.428,0.428c-0.171,0.114 -0.384,0.171 -0.638,0.171c-0.209,0 -0.358,-0.063 -0.447,-0.19c-0.089,-0.127 -0.111,-0.302 -0.067,-0.524c0.051,-0.234 0.143,-0.402 0.276,-0.504c0.134,-0.108 0.302,-0.19 0.505,-0.247c0.108,-0.032 0.215,-0.057 0.323,-0.076c0.108,-0.02 0.216,-0.042 0.324,-0.067l0,0Z" style="fill:#d9dfde;fill-rule:nonzero;"/><path id="path3499" d="M74.946,61.468l0.846,-0.133c0.032,-0.533 -0.066,-0.914 -0.295,-1.142c-0.222,-0.228 -0.571,-0.343 -1.046,-0.343c-0.229,0 -0.444,0.038 -0.647,0.115c-0.197,0.076 -0.375,0.18 -0.533,0.314c-0.152,0.133 -0.283,0.295 -0.39,0.485c-0.108,0.184 -0.184,0.387 -0.229,0.609c-0.051,0.254 -0.054,0.466 -0.009,0.637c0.05,0.172 0.127,0.314 0.228,0.429c0.102,0.114 0.222,0.206 0.362,0.276c0.146,0.069 0.292,0.13 0.437,0.18c0.07,0.032 0.137,0.057 0.2,0.077c0.07,0.019 0.14,0.041 0.21,0.066c0.082,0.032 0.161,0.067 0.237,0.105c0.077,0.032 0.14,0.076 0.191,0.133c0.051,0.051 0.089,0.111 0.114,0.181c0.025,0.07 0.029,0.155 0.009,0.257c-0.05,0.247 -0.161,0.441 -0.333,0.58c-0.171,0.133 -0.377,0.2 -0.618,0.2c-0.279,0 -0.473,-0.079 -0.581,-0.238c-0.107,-0.165 -0.149,-0.428 -0.123,-0.79l-0.857,0.181c-0.025,0.558 0.076,0.974 0.305,1.247c0.235,0.266 0.615,0.399 1.142,0.399c0.241,0 0.469,-0.041 0.685,-0.123c0.216,-0.083 0.409,-0.197 0.58,-0.343c0.172,-0.146 0.314,-0.317 0.429,-0.514c0.12,-0.203 0.206,-0.425 0.256,-0.666c0.051,-0.26 0.051,-0.476 0,-0.647c-0.044,-0.178 -0.12,-0.323 -0.228,-0.438c-0.101,-0.114 -0.225,-0.206 -0.371,-0.276c-0.146,-0.069 -0.292,-0.13 -0.438,-0.18c-0.07,-0.026 -0.142,-0.048 -0.219,-0.067c-0.069,-0.019 -0.139,-0.041 -0.209,-0.067c-0.082,-0.031 -0.162,-0.063 -0.238,-0.095c-0.076,-0.038 -0.143,-0.082 -0.2,-0.133c-0.05,-0.051 -0.088,-0.111 -0.114,-0.181c-0.025,-0.076 -0.028,-0.165 -0.009,-0.266c0.044,-0.222 0.142,-0.384 0.295,-0.486c0.158,-0.107 0.349,-0.161 0.571,-0.161c0.222,0 0.38,0.063 0.475,0.19c0.095,0.127 0.134,0.336 0.115,0.628l0,0Z" style="fill:#d9dfde;fill-rule:nonzero;"/><path id="path3501" d="M79.241,65.189l0.638,-3.274c0.044,-0.228 0.073,-0.463 0.085,-0.704c0.019,-0.247 -0.006,-0.469 -0.076,-0.666c-0.063,-0.203 -0.181,-0.368 -0.352,-0.495c-0.171,-0.133 -0.419,-0.2 -0.742,-0.2c-0.216,0 -0.416,0.045 -0.6,0.134c-0.184,0.082 -0.355,0.19 -0.513,0.323l0.418,-2.179l-0.866,0l-1.37,7.061l0.885,0l0.571,-2.922c0.051,-0.272 0.124,-0.536 0.219,-0.789c0.095,-0.261 0.257,-0.47 0.485,-0.628c0.083,-0.051 0.168,-0.092 0.257,-0.124c0.089,-0.032 0.178,-0.048 0.266,-0.048c0.14,0 0.248,0.032 0.324,0.095c0.082,0.058 0.14,0.14 0.171,0.248c0.038,0.101 0.051,0.219 0.038,0.352c-0.006,0.133 -0.022,0.276 -0.047,0.428l-0.657,3.388l0.866,0l0,0Z" style="fill:#d9dfde;fill-rule:nonzero;"/><path id="path3503" d="M81.965,59.137l0.19,-1.009l-0.866,0l-0.2,1.009l0.876,0Zm-1.18,6.052l1.018,-5.224l-0.866,0l-1.018,5.224l0.866,0Z" style="fill:#d9dfde;fill-rule:nonzero;"/><path id="path3505" d="M85.207,59.137l0.19,-1.009l-0.866,0l-0.2,1.009l0.876,0Zm-1.18,6.052l1.018,-5.224l-0.866,0l-1.018,5.224l0.866,0Z" style="fill:#d9dfde;fill-rule:nonzero;"/><path id="path3507" d="M88.126,65.189l0.628,-3.255c0.045,-0.228 0.076,-0.463 0.095,-0.704c0.019,-0.247 -0.003,-0.472 -0.066,-0.675c-0.064,-0.203 -0.181,-0.372 -0.352,-0.505c-0.165,-0.133 -0.41,-0.2 -0.733,-0.2c-0.241,0 -0.463,0.048 -0.666,0.143c-0.203,0.095 -0.387,0.225 -0.552,0.39l0.076,-0.418l-0.799,0l-1.018,5.224l0.894,0l0.561,-2.922c0.038,-0.177 0.086,-0.358 0.143,-0.542c0.057,-0.19 0.133,-0.362 0.229,-0.514c0.095,-0.152 0.212,-0.276 0.352,-0.371c0.139,-0.101 0.307,-0.152 0.504,-0.152c0.152,0 0.266,0.038 0.342,0.114c0.077,0.07 0.127,0.165 0.153,0.285c0.025,0.115 0.028,0.245 0.009,0.391c-0.012,0.145 -0.031,0.295 -0.057,0.447l-0.637,3.264l0.894,0Z" style="fill:#d9dfde;fill-rule:nonzero;"/><path id="path3509" d="M92.382,65.189l1.37,-7.061l-0.857,0l-0.418,2.17c-0.095,-0.134 -0.216,-0.241 -0.362,-0.324c-0.146,-0.082 -0.32,-0.124 -0.523,-0.124c-0.362,0 -0.676,0.096 -0.942,0.286c-0.26,0.184 -0.482,0.415 -0.666,0.695c-0.184,0.272 -0.333,0.567 -0.448,0.884c-0.107,0.318 -0.187,0.603 -0.238,0.857c-0.05,0.247 -0.076,0.53 -0.076,0.847c-0.006,0.311 0.032,0.606 0.115,0.885c0.082,0.279 0.218,0.514 0.409,0.704c0.196,0.19 0.472,0.285 0.828,0.285c0.203,0 0.387,-0.038 0.551,-0.114c0.172,-0.076 0.33,-0.181 0.476,-0.314l-0.057,0.324l0.838,0Zm-0.885,-4.539c0.222,0 0.38,0.076 0.475,0.228c0.102,0.146 0.162,0.324 0.181,0.533c0.026,0.209 0.026,0.431 0,0.666c-0.025,0.228 -0.054,0.422 -0.085,0.581c-0.039,0.177 -0.092,0.374 -0.162,0.589c-0.064,0.21 -0.149,0.41 -0.257,0.6c-0.102,0.184 -0.229,0.339 -0.381,0.466c-0.146,0.127 -0.314,0.191 -0.504,0.191c-0.19,0 -0.336,-0.064 -0.438,-0.191c-0.095,-0.133 -0.162,-0.298 -0.2,-0.495c-0.031,-0.196 -0.041,-0.402 -0.028,-0.618c0.012,-0.222 0.038,-0.425 0.076,-0.609c0.032,-0.165 0.076,-0.359 0.133,-0.581c0.064,-0.222 0.146,-0.434 0.248,-0.637c0.107,-0.203 0.237,-0.374 0.39,-0.514c0.158,-0.14 0.342,-0.209 0.552,-0.209l0,0Z" style="fill:#d9dfde;fill-rule:nonzero;"/><path id="path3511" d="M96.599,65.189l1.018,-5.224l-0.875,0l-0.552,2.873c-0.038,0.184 -0.086,0.375 -0.143,0.571c-0.057,0.191 -0.136,0.365 -0.238,0.524c-0.095,0.158 -0.215,0.288 -0.361,0.39c-0.146,0.101 -0.32,0.152 -0.523,0.152c-0.191,0 -0.324,-0.051 -0.4,-0.152c-0.07,-0.102 -0.111,-0.229 -0.124,-0.381c-0.013,-0.165 -0.003,-0.33 0.029,-0.495c0.031,-0.165 0.063,-0.33 0.095,-0.495l0.59,-2.987l-0.866,0l-0.638,3.273c-0.031,0.165 -0.06,0.336 -0.085,0.514c-0.026,0.171 -0.032,0.342 -0.019,0.514c0.019,0.165 0.063,0.323 0.133,0.475c0.076,0.146 0.197,0.27 0.362,0.372c0.095,0.063 0.199,0.107 0.314,0.133c0.114,0.031 0.231,0.047 0.352,0.047c0.234,0 0.45,-0.047 0.647,-0.142c0.196,-0.096 0.377,-0.222 0.542,-0.381l-0.076,0.419l0.818,0Z" style="fill:#d9dfde;fill-rule:nonzero;"/><path id="path3513" d="M100.374,61.468l0.847,-0.133c0.031,-0.533 -0.067,-0.914 -0.295,-1.142c-0.222,-0.228 -0.571,-0.343 -1.047,-0.343c-0.228,0 -0.444,0.038 -0.647,0.115c-0.197,0.076 -0.374,0.18 -0.533,0.314c-0.152,0.133 -0.282,0.295 -0.39,0.485c-0.108,0.184 -0.184,0.387 -0.229,0.609c-0.05,0.254 -0.054,0.466 -0.009,0.637c0.051,0.172 0.127,0.314 0.228,0.429c0.102,0.114 0.222,0.206 0.362,0.276c0.146,0.069 0.292,0.13 0.438,0.18c0.069,0.032 0.136,0.057 0.199,0.077c0.07,0.019 0.14,0.041 0.21,0.066c0.082,0.032 0.162,0.067 0.238,0.105c0.076,0.032 0.139,0.076 0.19,0.133c0.051,0.051 0.089,0.111 0.114,0.181c0.026,0.07 0.029,0.155 0.01,0.257c-0.051,0.247 -0.162,0.441 -0.333,0.58c-0.172,0.133 -0.378,0.2 -0.619,0.2c-0.279,0 -0.472,-0.079 -0.58,-0.238c-0.108,-0.165 -0.149,-0.428 -0.124,-0.79l-0.856,0.181c-0.026,0.558 0.076,0.974 0.304,1.247c0.235,0.266 0.615,0.399 1.142,0.399c0.241,0 0.469,-0.041 0.685,-0.123c0.216,-0.083 0.409,-0.197 0.581,-0.343c0.171,-0.146 0.314,-0.317 0.428,-0.514c0.12,-0.203 0.206,-0.425 0.257,-0.666c0.05,-0.26 0.05,-0.476 0,-0.647c-0.045,-0.178 -0.121,-0.323 -0.229,-0.438c-0.101,-0.114 -0.225,-0.206 -0.371,-0.276c-0.146,-0.069 -0.292,-0.13 -0.438,-0.18c-0.069,-0.026 -0.142,-0.048 -0.218,-0.067c-0.07,-0.019 -0.14,-0.041 -0.21,-0.067c-0.082,-0.031 -0.162,-0.063 -0.238,-0.095c-0.076,-0.038 -0.142,-0.082 -0.199,-0.133c-0.051,-0.051 -0.089,-0.111 -0.115,-0.181c-0.025,-0.076 -0.028,-0.165 -0.009,-0.266c0.044,-0.222 0.143,-0.384 0.295,-0.486c0.158,-0.107 0.349,-0.161 0.571,-0.161c0.222,0 0.38,0.063 0.475,0.19c0.096,0.127 0.134,0.336 0.115,0.628l0,0Z" style="fill:#d9dfde;fill-rule:nonzero;"/><path id="path3515" d="M103.796,60.678l0.143,-0.713l-0.666,0l0.238,-1.228l-0.876,0.048l-0.237,1.18l-0.476,0l-0.143,0.742l0.495,0l-0.552,2.835c-0.032,0.165 -0.067,0.346 -0.105,0.543c-0.031,0.196 -0.035,0.38 -0.009,0.552c0.025,0.171 0.095,0.314 0.209,0.428c0.121,0.12 0.317,0.181 0.59,0.181c0.159,0 0.365,-0.032 0.619,-0.095l0.057,-0.904c-0.121,0.025 -0.21,0.041 -0.267,0.047c-0.05,0.007 -0.101,0.01 -0.152,0.01c-0.07,0 -0.117,-0.013 -0.143,-0.038c-0.019,-0.026 -0.031,-0.061 -0.038,-0.105c-0.012,-0.063 -0.012,-0.133 0,-0.209c0.019,-0.077 0.035,-0.146 0.048,-0.21l0.599,-3.064l0.666,0l0,0Z" style="fill:#d9dfde;fill-rule:nonzero;"/><path id="path3517" d="M106.514,61.097l0.419,-0.875c-0.114,-0.115 -0.232,-0.203 -0.352,-0.267c-0.115,-0.07 -0.245,-0.105 -0.391,-0.105c-0.139,0 -0.279,0.054 -0.418,0.162c-0.133,0.102 -0.254,0.213 -0.362,0.333l0.076,-0.38l-0.818,0l-1.018,5.224l0.885,0l0.542,-2.807c0.019,-0.115 0.048,-0.261 0.086,-0.438c0.044,-0.178 0.101,-0.349 0.171,-0.514c0.076,-0.165 0.168,-0.308 0.276,-0.428c0.108,-0.121 0.244,-0.181 0.409,-0.181c0.07,0 0.14,0.019 0.21,0.057c0.069,0.038 0.165,0.111 0.285,0.219l0,0Z" style="fill:#d9dfde;fill-rule:nonzero;"/><path id="path3519" d="M108.549,59.137l0.191,-1.009l-0.866,0l-0.2,1.009l0.875,0Zm-1.18,6.052l1.019,-5.224l-0.866,0l-1.019,5.224l0.866,0Z" style="fill:#d9dfde;fill-rule:nonzero;"/><path id="path3521" d="M111.773,63.542c0.051,-0.304 0.108,-0.602 0.171,-0.894c0.064,-0.292 0.118,-0.552 0.162,-0.78c0.057,-0.279 0.092,-0.54 0.105,-0.781c0.019,-0.247 -0.01,-0.463 -0.086,-0.647c-0.07,-0.184 -0.2,-0.326 -0.39,-0.428c-0.19,-0.108 -0.466,-0.162 -0.828,-0.162c-0.514,0 -0.948,0.124 -1.304,0.372c-0.355,0.241 -0.637,0.65 -0.846,1.227l0.789,0.152c0.07,-0.171 0.137,-0.317 0.2,-0.437c0.07,-0.121 0.146,-0.219 0.229,-0.295c0.088,-0.077 0.187,-0.13 0.295,-0.162c0.107,-0.032 0.237,-0.048 0.39,-0.048c0.203,0 0.352,0.038 0.447,0.114c0.095,0.077 0.155,0.175 0.181,0.295c0.031,0.121 0.035,0.254 0.009,0.4c-0.019,0.14 -0.041,0.276 -0.066,0.409c-0.115,0.045 -0.232,0.08 -0.352,0.105c-0.115,0.025 -0.235,0.047 -0.362,0.067c-0.209,0.038 -0.412,0.072 -0.609,0.104c-0.19,0.032 -0.374,0.083 -0.552,0.152c-0.178,0.064 -0.346,0.156 -0.504,0.276c-0.153,0.121 -0.292,0.283 -0.419,0.486c-0.07,0.114 -0.127,0.231 -0.171,0.352c-0.045,0.12 -0.08,0.238 -0.105,0.352c-0.089,0.444 -0.035,0.809 0.162,1.094c0.203,0.286 0.536,0.428 0.999,0.428c0.285,0 0.542,-0.05 0.771,-0.152c0.228,-0.095 0.453,-0.228 0.675,-0.4c0,0.07 0.004,0.14 0.01,0.21c0.006,0.07 0.019,0.149 0.038,0.238l0.923,0c-0.051,-0.235 -0.07,-0.492 -0.057,-0.771c0.013,-0.279 0.044,-0.571 0.095,-0.876l0,0Zm-1.275,-0.637c0.095,-0.025 0.19,-0.051 0.285,-0.076c0.096,-0.026 0.191,-0.054 0.286,-0.086c-0.038,0.19 -0.089,0.39 -0.152,0.6c-0.064,0.203 -0.153,0.393 -0.267,0.571c-0.114,0.171 -0.257,0.314 -0.428,0.428c-0.171,0.114 -0.384,0.171 -0.638,0.171c-0.209,0 -0.358,-0.063 -0.447,-0.19c-0.089,-0.127 -0.111,-0.302 -0.066,-0.524c0.05,-0.234 0.142,-0.402 0.276,-0.504c0.133,-0.108 0.301,-0.19 0.504,-0.247c0.108,-0.032 0.216,-0.057 0.323,-0.076c0.108,-0.02 0.216,-0.042 0.324,-0.067l0,0Z" style="fill:#d9dfde;fill-rule:nonzero;"/><path id="path3523" d="M113.278,65.189l1.37,-7.061l-0.866,0l-1.37,7.061l0.866,0Z" style="fill:#d9dfde;fill-rule:nonzero;"/><path id="path3525" d="M119.498,63.542c0.051,-0.304 0.108,-0.602 0.171,-0.894c0.063,-0.292 0.117,-0.552 0.162,-0.78c0.057,-0.279 0.092,-0.54 0.104,-0.781c0.019,-0.247 -0.009,-0.463 -0.085,-0.647c-0.07,-0.184 -0.2,-0.326 -0.39,-0.428c-0.191,-0.108 -0.467,-0.162 -0.828,-0.162c-0.514,0 -0.949,0.124 -1.304,0.372c-0.355,0.241 -0.637,0.65 -0.847,1.227l0.79,0.152c0.07,-0.171 0.136,-0.317 0.2,-0.437c0.07,-0.121 0.146,-0.219 0.228,-0.295c0.089,-0.077 0.187,-0.13 0.295,-0.162c0.108,-0.032 0.238,-0.048 0.39,-0.048c0.203,0 0.352,0.038 0.448,0.114c0.095,0.077 0.155,0.175 0.18,0.295c0.032,0.121 0.035,0.254 0.01,0.4c-0.019,0.14 -0.041,0.276 -0.067,0.409c-0.114,0.045 -0.231,0.08 -0.352,0.105c-0.114,0.025 -0.234,0.047 -0.361,0.067c-0.21,0.038 -0.413,0.072 -0.609,0.104c-0.191,0.032 -0.375,0.083 -0.552,0.152c-0.178,0.064 -0.346,0.156 -0.505,0.276c-0.152,0.121 -0.291,0.283 -0.418,0.486c-0.07,0.114 -0.127,0.231 -0.172,0.352c-0.044,0.12 -0.079,0.238 -0.104,0.352c-0.089,0.444 -0.035,0.809 0.162,1.094c0.203,0.286 0.536,0.428 0.999,0.428c0.285,0 0.542,-0.05 0.77,-0.152c0.229,-0.095 0.454,-0.228 0.676,-0.4c0,0.07 0.003,0.14 0.01,0.21c0.006,0.07 0.019,0.149 0.038,0.238l0.923,0c-0.051,-0.235 -0.07,-0.492 -0.057,-0.771c0.012,-0.279 0.044,-0.571 0.095,-0.876l0,0Zm-1.275,-0.637c0.095,-0.025 0.19,-0.051 0.285,-0.076c0.095,-0.026 0.19,-0.054 0.286,-0.086c-0.039,0.19 -0.089,0.39 -0.153,0.6c-0.063,0.203 -0.152,0.393 -0.266,0.571c-0.114,0.171 -0.257,0.314 -0.428,0.428c-0.172,0.114 -0.384,0.171 -0.638,0.171c-0.209,0 -0.358,-0.063 -0.447,-0.19c-0.089,-0.127 -0.111,-0.302 -0.067,-0.524c0.051,-0.234 0.143,-0.402 0.276,-0.504c0.133,-0.108 0.302,-0.19 0.505,-0.247c0.107,-0.032 0.215,-0.057 0.323,-0.076c0.108,-0.02 0.216,-0.042 0.324,-0.067l0,0Z" style="fill:#d9dfde;fill-rule:nonzero;"/><path id="path3527" d="M123.5,65.189l0.628,-3.255c0.044,-0.228 0.076,-0.463 0.095,-0.704c0.019,-0.247 -0.003,-0.472 -0.067,-0.675c-0.063,-0.203 -0.18,-0.372 -0.352,-0.505c-0.165,-0.133 -0.409,-0.2 -0.732,-0.2c-0.241,0 -0.463,0.048 -0.666,0.143c-0.203,0.095 -0.387,0.225 -0.552,0.39l0.076,-0.418l-0.8,0l-1.018,5.224l0.895,0l0.561,-2.922c0.038,-0.177 0.086,-0.358 0.143,-0.542c0.057,-0.19 0.133,-0.362 0.228,-0.514c0.095,-0.152 0.213,-0.276 0.352,-0.371c0.14,-0.101 0.308,-0.152 0.505,-0.152c0.152,0 0.266,0.038 0.342,0.114c0.076,0.07 0.127,0.165 0.152,0.285c0.026,0.115 0.029,0.245 0.01,0.391c-0.013,0.145 -0.032,0.295 -0.057,0.447l-0.638,3.264l0.895,0Z" style="fill:#d9dfde;fill-rule:nonzero;"/><path id="path3529" d="M127.755,65.189l1.371,-7.061l-0.857,0l-0.418,2.17c-0.096,-0.134 -0.216,-0.241 -0.362,-0.324c-0.146,-0.082 -0.32,-0.124 -0.523,-0.124c-0.362,0 -0.676,0.096 -0.942,0.286c-0.261,0.184 -0.483,0.415 -0.667,0.695c-0.184,0.272 -0.333,0.567 -0.447,0.884c-0.108,0.318 -0.187,0.603 -0.238,0.857c-0.05,0.247 -0.076,0.53 -0.076,0.847c-0.006,0.311 0.032,0.606 0.114,0.885c0.083,0.279 0.219,0.514 0.41,0.704c0.196,0.19 0.472,0.285 0.827,0.285c0.203,0 0.387,-0.038 0.552,-0.114c0.172,-0.076 0.33,-0.181 0.476,-0.314l-0.057,0.324l0.837,0Zm-0.885,-4.539c0.222,0 0.381,0.076 0.476,0.228c0.102,0.146 0.162,0.324 0.181,0.533c0.025,0.209 0.025,0.431 0,0.666c-0.025,0.228 -0.054,0.422 -0.086,0.581c-0.038,0.177 -0.092,0.374 -0.161,0.589c-0.064,0.21 -0.15,0.41 -0.257,0.6c-0.102,0.184 -0.229,0.339 -0.381,0.466c-0.146,0.127 -0.314,0.191 -0.504,0.191c-0.191,0 -0.337,-0.064 -0.438,-0.191c-0.095,-0.133 -0.162,-0.298 -0.2,-0.495c-0.032,-0.196 -0.041,-0.402 -0.028,-0.618c0.012,-0.222 0.038,-0.425 0.076,-0.609c0.031,-0.165 0.076,-0.359 0.133,-0.581c0.063,-0.222 0.146,-0.434 0.247,-0.637c0.108,-0.203 0.238,-0.374 0.391,-0.514c0.158,-0.14 0.342,-0.209 0.551,-0.209l0,0Z" style="fill:#d9dfde;fill-rule:nonzero;"/><path id="path3531" d="M133.285,61.468l0.847,-0.133c0.032,-0.533 -0.067,-0.914 -0.295,-1.142c-0.222,-0.228 -0.571,-0.343 -1.047,-0.343c-0.228,0 -0.444,0.038 -0.647,0.115c-0.197,0.076 -0.374,0.18 -0.533,0.314c-0.152,0.133 -0.282,0.295 -0.39,0.485c-0.108,0.184 -0.184,0.387 -0.228,0.609c-0.051,0.254 -0.054,0.466 -0.01,0.637c0.051,0.172 0.127,0.314 0.229,0.429c0.101,0.114 0.222,0.206 0.361,0.276c0.146,0.069 0.292,0.13 0.438,0.18c0.07,0.032 0.136,0.057 0.2,0.077c0.069,0.019 0.139,0.041 0.209,0.066c0.083,0.032 0.162,0.067 0.238,0.105c0.076,0.032 0.14,0.076 0.19,0.133c0.051,0.051 0.089,0.111 0.114,0.181c0.026,0.07 0.029,0.155 0.01,0.257c-0.051,0.247 -0.162,0.441 -0.333,0.58c-0.171,0.133 -0.378,0.2 -0.619,0.2c-0.279,0 -0.472,-0.079 -0.58,-0.238c-0.108,-0.165 -0.149,-0.428 -0.124,-0.79l-0.856,0.181c-0.026,0.558 0.076,0.974 0.304,1.247c0.235,0.266 0.616,0.399 1.142,0.399c0.241,0 0.47,-0.041 0.685,-0.123c0.216,-0.083 0.41,-0.197 0.581,-0.343c0.171,-0.146 0.314,-0.317 0.428,-0.514c0.121,-0.203 0.206,-0.425 0.257,-0.666c0.051,-0.26 0.051,-0.476 0,-0.647c-0.045,-0.178 -0.121,-0.323 -0.228,-0.438c-0.102,-0.114 -0.226,-0.206 -0.372,-0.276c-0.145,-0.069 -0.291,-0.13 -0.437,-0.18c-0.07,-0.026 -0.143,-0.048 -0.219,-0.067c-0.07,-0.019 -0.14,-0.041 -0.209,-0.067c-0.083,-0.031 -0.162,-0.063 -0.238,-0.095c-0.077,-0.038 -0.143,-0.082 -0.2,-0.133c-0.051,-0.051 -0.089,-0.111 -0.114,-0.181c-0.026,-0.076 -0.029,-0.165 -0.01,-0.266c0.045,-0.222 0.143,-0.384 0.295,-0.486c0.159,-0.107 0.349,-0.161 0.571,-0.161c0.222,0 0.381,0.063 0.476,0.19c0.095,0.127 0.133,0.336 0.114,0.628l0,0Z" style="fill:#d9dfde;fill-rule:nonzero;"/><path id="path3533" d="M136.698,60.678l0.143,-0.713l-0.666,0l0.238,-1.228l-0.876,0.048l-0.237,1.18l-0.476,0l-0.143,0.742l0.495,0l-0.552,2.835c-0.032,0.165 -0.067,0.346 -0.105,0.543c-0.031,0.196 -0.035,0.38 -0.009,0.552c0.025,0.171 0.095,0.314 0.209,0.428c0.121,0.12 0.317,0.181 0.59,0.181c0.159,0 0.365,-0.032 0.619,-0.095l0.057,-0.904c-0.121,0.025 -0.21,0.041 -0.267,0.047c-0.051,0.007 -0.101,0.01 -0.152,0.01c-0.07,0 -0.117,-0.013 -0.143,-0.038c-0.019,-0.026 -0.031,-0.061 -0.038,-0.105c-0.013,-0.063 -0.013,-0.133 0,-0.209c0.019,-0.077 0.035,-0.146 0.048,-0.21l0.599,-3.064l0.666,0l0,0Z" style="fill:#d9dfde;fill-rule:nonzero;"/><path id="path3535" d="M140.207,63.542c0.05,-0.304 0.108,-0.602 0.171,-0.894c0.063,-0.292 0.117,-0.552 0.162,-0.78c0.057,-0.279 0.092,-0.54 0.104,-0.781c0.019,-0.247 -0.009,-0.463 -0.085,-0.647c-0.07,-0.184 -0.2,-0.326 -0.39,-0.428c-0.191,-0.108 -0.467,-0.162 -0.828,-0.162c-0.514,0 -0.949,0.124 -1.304,0.372c-0.355,0.241 -0.637,0.65 -0.847,1.227l0.79,0.152c0.07,-0.171 0.136,-0.317 0.2,-0.437c0.07,-0.121 0.146,-0.219 0.228,-0.295c0.089,-0.077 0.187,-0.13 0.295,-0.162c0.108,-0.032 0.238,-0.048 0.39,-0.048c0.203,0 0.352,0.038 0.448,0.114c0.095,0.077 0.155,0.175 0.18,0.295c0.032,0.121 0.035,0.254 0.01,0.4c-0.019,0.14 -0.041,0.276 -0.067,0.409c-0.114,0.045 -0.231,0.08 -0.352,0.105c-0.114,0.025 -0.235,0.047 -0.361,0.067c-0.21,0.038 -0.413,0.072 -0.609,0.104c-0.191,0.032 -0.375,0.083 -0.552,0.152c-0.178,0.064 -0.346,0.156 -0.505,0.276c-0.152,0.121 -0.291,0.283 -0.418,0.486c-0.07,0.114 -0.127,0.231 -0.172,0.352c-0.044,0.12 -0.079,0.238 -0.104,0.352c-0.089,0.444 -0.035,0.809 0.162,1.094c0.203,0.286 0.536,0.428 0.999,0.428c0.285,0 0.542,-0.05 0.77,-0.152c0.229,-0.095 0.454,-0.228 0.676,-0.4c0,0.07 0.003,0.14 0.01,0.21c0.006,0.07 0.019,0.149 0.038,0.238l0.923,0c-0.051,-0.235 -0.07,-0.492 -0.058,-0.771c0.013,-0.279 0.045,-0.571 0.096,-0.876l0,0Zm-1.275,-0.637c0.095,-0.025 0.19,-0.051 0.285,-0.076c0.095,-0.026 0.19,-0.054 0.286,-0.086c-0.039,0.19 -0.089,0.39 -0.153,0.6c-0.063,0.203 -0.152,0.393 -0.266,0.571c-0.114,0.171 -0.257,0.314 -0.428,0.428c-0.172,0.114 -0.384,0.171 -0.638,0.171c-0.209,0 -0.358,-0.063 -0.447,-0.19c-0.089,-0.127 -0.111,-0.302 -0.067,-0.524c0.051,-0.234 0.143,-0.402 0.276,-0.504c0.133,-0.108 0.302,-0.19 0.505,-0.247c0.107,-0.032 0.215,-0.057 0.323,-0.076c0.108,-0.02 0.216,-0.042 0.324,-0.067l0,0Z" style="fill:#d9dfde;fill-rule:nonzero;"/><path id="path3537" d="M143.704,61.097l0.419,-0.875c-0.115,-0.115 -0.232,-0.203 -0.353,-0.267c-0.114,-0.07 -0.244,-0.105 -0.39,-0.105c-0.139,0 -0.279,0.054 -0.418,0.162c-0.134,0.102 -0.254,0.213 -0.362,0.333l0.076,-0.38l-0.818,0l-1.018,5.224l0.885,0l0.542,-2.807c0.019,-0.115 0.048,-0.261 0.086,-0.438c0.044,-0.178 0.101,-0.349 0.171,-0.514c0.076,-0.165 0.168,-0.308 0.276,-0.428c0.108,-0.121 0.244,-0.181 0.409,-0.181c0.07,0 0.14,0.019 0.209,0.057c0.07,0.038 0.165,0.111 0.286,0.219l0,0Z" style="fill:#d9dfde;fill-rule:nonzero;"/><path id="path3539" d="M147.148,59.023l0.295,-0.904c-0.152,-0.038 -0.285,-0.064 -0.399,-0.077c-0.108,-0.019 -0.216,-0.028 -0.324,-0.028c-0.298,0 -0.536,0.06 -0.714,0.181c-0.177,0.12 -0.32,0.276 -0.428,0.466c-0.108,0.184 -0.19,0.393 -0.247,0.628c-0.051,0.228 -0.099,0.454 -0.143,0.676l-0.58,0l-0.143,0.742l0.58,0l-0.866,4.482l0.866,0l0.866,-4.482l0.752,0l0.152,-0.742l-0.752,0c0.013,-0.045 0.02,-0.086 0.02,-0.124c0.006,-0.045 0.015,-0.089 0.028,-0.133c0.013,-0.089 0.029,-0.178 0.048,-0.267c0.025,-0.089 0.057,-0.168 0.095,-0.238c0.044,-0.076 0.098,-0.136 0.162,-0.18c0.069,-0.045 0.158,-0.067 0.266,-0.067c0.057,0 0.121,0.003 0.19,0.009c0.07,0.007 0.162,0.026 0.276,0.058l0,0Z" style="fill:#d9dfde;fill-rule:nonzero;"/><path id="path3541" d="M147.536,65.189l1.371,-7.061l-0.866,0l-1.371,7.061l0.866,0Z" style="fill:#d9dfde;fill-rule:nonzero;"/><path id="path3543" d="M150.17,59.137l0.191,-1.009l-0.866,0l-0.2,1.009l0.875,0Zm-1.18,6.052l1.019,-5.224l-0.866,0l-1.019,5.224l0.866,0Z" style="fill:#d9dfde;fill-rule:nonzero;"/><path id="path3545" d="M153.442,64.399l0.866,-4.434l-0.809,0l-0.076,0.371c-0.102,-0.146 -0.229,-0.264 -0.381,-0.352c-0.152,-0.089 -0.336,-0.134 -0.552,-0.134c-0.355,0 -0.669,0.092 -0.942,0.276c-0.266,0.178 -0.495,0.403 -0.685,0.676c-0.19,0.273 -0.342,0.565 -0.457,0.875c-0.114,0.311 -0.196,0.597 -0.247,0.857c-0.051,0.254 -0.079,0.536 -0.086,0.847c0,0.304 0.042,0.593 0.124,0.866c0.089,0.266 0.232,0.491 0.428,0.675c0.203,0.178 0.482,0.267 0.838,0.267c0.19,0 0.371,-0.038 0.542,-0.115c0.171,-0.069 0.33,-0.164 0.476,-0.285c-0.038,0.184 -0.086,0.368 -0.143,0.552c-0.051,0.19 -0.124,0.361 -0.219,0.514c-0.095,0.158 -0.219,0.285 -0.371,0.38c-0.152,0.102 -0.346,0.153 -0.58,0.153c-0.229,0 -0.397,-0.054 -0.505,-0.162c-0.108,-0.108 -0.146,-0.301 -0.114,-0.581l-0.837,-0.076l-0.029,0.172c-0.051,0.247 -0.047,0.463 0.01,0.647c0.05,0.184 0.139,0.333 0.266,0.447c0.133,0.12 0.292,0.209 0.476,0.266c0.19,0.057 0.393,0.086 0.609,0.086c0.431,0 0.786,-0.089 1.066,-0.267c0.285,-0.177 0.517,-0.402 0.694,-0.675c0.178,-0.273 0.314,-0.574 0.409,-0.904c0.096,-0.324 0.172,-0.638 0.229,-0.942l0,0Zm-1.056,-3.749c0.19,0 0.336,0.063 0.437,0.19c0.102,0.121 0.172,0.276 0.21,0.466c0.038,0.184 0.05,0.384 0.038,0.6c-0.013,0.215 -0.038,0.415 -0.076,0.599c-0.039,0.184 -0.092,0.387 -0.162,0.609c-0.064,0.216 -0.152,0.419 -0.267,0.609c-0.107,0.191 -0.238,0.349 -0.39,0.476c-0.152,0.127 -0.33,0.19 -0.533,0.19c-0.203,0 -0.355,-0.063 -0.456,-0.19c-0.096,-0.127 -0.159,-0.282 -0.191,-0.466c-0.031,-0.191 -0.038,-0.397 -0.019,-0.619c0.019,-0.222 0.048,-0.428 0.086,-0.618c0.032,-0.178 0.082,-0.371 0.152,-0.581c0.07,-0.215 0.159,-0.415 0.267,-0.599c0.114,-0.191 0.244,-0.349 0.39,-0.476c0.152,-0.127 0.323,-0.19 0.514,-0.19l0,0Z" style="fill:#d9dfde;fill-rule:nonzero;"/><path id="path3547" d="M157.429,65.189l0.638,-3.274c0.044,-0.228 0.073,-0.463 0.085,-0.704c0.02,-0.247 -0.006,-0.469 -0.076,-0.666c-0.063,-0.203 -0.18,-0.368 -0.352,-0.495c-0.171,-0.133 -0.418,-0.2 -0.742,-0.2c-0.216,0 -0.415,0.045 -0.599,0.134c-0.184,0.082 -0.356,0.19 -0.514,0.323l0.418,-2.179l-0.865,0l-1.371,7.061l0.885,0l0.571,-2.922c0.051,-0.272 0.124,-0.536 0.219,-0.789c0.095,-0.261 0.257,-0.47 0.485,-0.628c0.083,-0.051 0.168,-0.092 0.257,-0.124c0.089,-0.032 0.178,-0.048 0.267,-0.048c0.139,0 0.247,0.032 0.323,0.095c0.083,0.058 0.14,0.14 0.172,0.248c0.038,0.101 0.05,0.219 0.038,0.352c-0.007,0.133 -0.023,0.276 -0.048,0.428l-0.657,3.388l0.866,0l0,0Z" style="fill:#d9dfde;fill-rule:nonzero;"/><path id="path3549" d="M160.705,60.678l0.142,-0.713l-0.666,0l0.238,-1.228l-0.875,0.048l-0.238,1.18l-0.476,0l-0.143,0.742l0.495,0l-0.552,2.835c-0.031,0.165 -0.066,0.346 -0.104,0.543c-0.032,0.196 -0.035,0.38 -0.01,0.552c0.026,0.171 0.095,0.314 0.21,0.428c0.12,0.12 0.317,0.181 0.589,0.181c0.159,0 0.365,-0.032 0.619,-0.095l0.057,-0.904c-0.12,0.025 -0.209,0.041 -0.266,0.047c-0.051,0.007 -0.102,0.01 -0.153,0.01c-0.069,0 -0.117,-0.013 -0.142,-0.038c-0.019,-0.026 -0.032,-0.061 -0.038,-0.105c-0.013,-0.063 -0.013,-0.133 0,-0.209c0.019,-0.077 0.035,-0.146 0.047,-0.21l0.6,-3.064l0.666,0l0,0Z" style="fill:#d9dfde;fill-rule:nonzero;"/><path id="path3551" d="M165.145,61.658l0.847,-0.142c0.019,-0.495 -0.077,-0.895 -0.286,-1.199c-0.209,-0.311 -0.558,-0.467 -1.047,-0.467c-0.38,0 -0.707,0.092 -0.98,0.276c-0.272,0.184 -0.504,0.413 -0.694,0.685c-0.191,0.273 -0.343,0.571 -0.457,0.895c-0.108,0.317 -0.187,0.612 -0.238,0.885c-0.051,0.266 -0.082,0.558 -0.095,0.875c-0.006,0.318 0.032,0.613 0.114,0.885c0.083,0.267 0.225,0.492 0.428,0.676c0.21,0.178 0.501,0.266 0.876,0.266c0.266,0 0.51,-0.05 0.732,-0.152c0.222,-0.101 0.419,-0.238 0.59,-0.409c0.178,-0.178 0.33,-0.381 0.457,-0.609c0.127,-0.228 0.232,-0.473 0.314,-0.733l-0.818,-0.123c-0.051,0.171 -0.111,0.333 -0.181,0.485c-0.07,0.152 -0.152,0.285 -0.247,0.399c-0.089,0.108 -0.191,0.194 -0.305,0.257c-0.114,0.064 -0.244,0.096 -0.39,0.096c-0.209,0 -0.365,-0.064 -0.466,-0.191c-0.102,-0.127 -0.168,-0.285 -0.2,-0.476c-0.032,-0.196 -0.038,-0.406 -0.019,-0.628c0.025,-0.228 0.057,-0.44 0.095,-0.637c0.038,-0.19 0.092,-0.397 0.162,-0.619c0.07,-0.228 0.158,-0.437 0.266,-0.628c0.108,-0.196 0.241,-0.358 0.4,-0.485c0.158,-0.133 0.342,-0.2 0.552,-0.2c0.228,0 0.384,0.095 0.466,0.286c0.089,0.184 0.13,0.428 0.124,0.732l0,0Z" style="fill:#d9dfde;fill-rule:nonzero;"/><path id="path3553" d="M168.762,64.97c0.228,-0.14 0.422,-0.305 0.58,-0.495c0.159,-0.197 0.292,-0.403 0.4,-0.619c0.108,-0.222 0.193,-0.447 0.257,-0.675c0.07,-0.229 0.124,-0.451 0.162,-0.666c0.057,-0.279 0.082,-0.574 0.076,-0.885c0,-0.317 -0.048,-0.606 -0.143,-0.866c-0.095,-0.267 -0.251,-0.485 -0.466,-0.657c-0.216,-0.171 -0.511,-0.257 -0.885,-0.257c-0.387,0 -0.723,0.089 -1.009,0.267c-0.279,0.171 -0.517,0.393 -0.714,0.666c-0.196,0.266 -0.355,0.558 -0.475,0.875c-0.115,0.318 -0.2,0.619 -0.257,0.904c-0.057,0.286 -0.089,0.59 -0.095,0.914c0,0.317 0.044,0.612 0.133,0.885c0.095,0.266 0.25,0.488 0.466,0.666c0.216,0.178 0.517,0.266 0.904,0.266c0.368,0 0.723,-0.108 1.066,-0.323l0,0Zm-0.152,-4.32c0.203,0 0.358,0.063 0.466,0.19c0.108,0.121 0.181,0.276 0.219,0.466c0.044,0.184 0.06,0.387 0.047,0.609c-0.006,0.222 -0.028,0.428 -0.066,0.619c-0.038,0.19 -0.096,0.399 -0.172,0.628c-0.069,0.228 -0.161,0.441 -0.276,0.637c-0.114,0.197 -0.253,0.362 -0.418,0.495c-0.159,0.133 -0.346,0.2 -0.562,0.2c-0.209,0 -0.371,-0.063 -0.485,-0.19c-0.108,-0.127 -0.181,-0.286 -0.219,-0.476c-0.038,-0.19 -0.051,-0.397 -0.038,-0.619c0.013,-0.222 0.038,-0.431 0.076,-0.628c0.038,-0.19 0.092,-0.396 0.162,-0.618c0.076,-0.229 0.171,-0.438 0.285,-0.628c0.115,-0.197 0.251,-0.359 0.41,-0.485c0.165,-0.134 0.355,-0.2 0.571,-0.2l0,0Z" style="fill:#d9dfde;fill-rule:nonzero;"/><path id="path3555" d="M173.715,65.189l0.628,-3.255c0.045,-0.228 0.076,-0.463 0.095,-0.704c0.019,-0.247 -0.003,-0.472 -0.066,-0.675c-0.064,-0.203 -0.181,-0.372 -0.352,-0.505c-0.165,-0.133 -0.41,-0.2 -0.733,-0.2c-0.241,0 -0.463,0.048 -0.666,0.143c-0.203,0.095 -0.387,0.225 -0.552,0.39l0.076,-0.418l-0.799,0l-1.018,5.224l0.894,0l0.561,-2.922c0.038,-0.177 0.086,-0.358 0.143,-0.542c0.057,-0.19 0.133,-0.362 0.229,-0.514c0.095,-0.152 0.212,-0.276 0.352,-0.371c0.139,-0.101 0.307,-0.152 0.504,-0.152c0.152,0 0.266,0.038 0.342,0.114c0.077,0.07 0.127,0.165 0.153,0.285c0.025,0.115 0.028,0.245 0.009,0.391c-0.012,0.145 -0.031,0.295 -0.057,0.447l-0.637,3.264l0.894,0Z" style="fill:#d9dfde;fill-rule:nonzero;"/><path id="path3557" d="M177.59,61.658l0.847,-0.142c0.019,-0.495 -0.076,-0.895 -0.286,-1.199c-0.209,-0.311 -0.558,-0.467 -1.046,-0.467c-0.381,0 -0.708,0.092 -0.98,0.276c-0.273,0.184 -0.505,0.413 -0.695,0.685c-0.19,0.273 -0.343,0.571 -0.457,0.895c-0.108,0.317 -0.187,0.612 -0.238,0.885c-0.05,0.266 -0.082,0.558 -0.095,0.875c-0.006,0.318 0.032,0.613 0.114,0.885c0.083,0.267 0.226,0.492 0.429,0.676c0.209,0.178 0.501,0.266 0.875,0.266c0.266,0 0.511,-0.05 0.733,-0.152c0.222,-0.101 0.418,-0.238 0.59,-0.409c0.177,-0.178 0.33,-0.381 0.456,-0.609c0.127,-0.228 0.232,-0.473 0.314,-0.733l-0.818,-0.123c-0.051,0.171 -0.111,0.333 -0.181,0.485c-0.069,0.152 -0.152,0.285 -0.247,0.399c-0.089,0.108 -0.19,0.194 -0.305,0.257c-0.114,0.064 -0.244,0.096 -0.39,0.096c-0.209,0 -0.365,-0.064 -0.466,-0.191c-0.102,-0.127 -0.168,-0.285 -0.2,-0.476c-0.032,-0.196 -0.038,-0.406 -0.019,-0.628c0.026,-0.228 0.057,-0.44 0.095,-0.637c0.038,-0.19 0.092,-0.397 0.162,-0.619c0.07,-0.228 0.159,-0.437 0.266,-0.628c0.108,-0.196 0.242,-0.358 0.4,-0.485c0.159,-0.133 0.343,-0.2 0.552,-0.2c0.228,0 0.384,0.095 0.466,0.286c0.089,0.184 0.13,0.428 0.124,0.732l0,0Z" style="fill:#d9dfde;fill-rule:nonzero;"/><path id="path3559" d="M182.473,62.857l0.067,-0.333c0.051,-0.272 0.076,-0.564 0.076,-0.875c0.007,-0.311 -0.035,-0.6 -0.124,-0.866c-0.088,-0.267 -0.237,-0.489 -0.447,-0.666c-0.209,-0.178 -0.498,-0.267 -0.866,-0.267c-0.38,0 -0.713,0.092 -0.999,0.276c-0.279,0.178 -0.52,0.406 -0.723,0.685c-0.197,0.273 -0.355,0.571 -0.476,0.895c-0.114,0.323 -0.2,0.625 -0.257,0.904c-0.057,0.285 -0.089,0.587 -0.095,0.904c0,0.317 0.048,0.609 0.143,0.875c0.095,0.26 0.25,0.476 0.466,0.647c0.216,0.172 0.517,0.257 0.904,0.257c0.501,0 0.926,-0.149 1.275,-0.447c0.355,-0.304 0.644,-0.717 0.866,-1.237l-0.847,-0.114c-0.152,0.304 -0.32,0.549 -0.504,0.733c-0.178,0.177 -0.4,0.266 -0.666,0.266c-0.184,0 -0.33,-0.051 -0.438,-0.152c-0.108,-0.102 -0.187,-0.232 -0.238,-0.39c-0.051,-0.159 -0.079,-0.333 -0.085,-0.524c-0.007,-0.196 0.003,-0.387 0.028,-0.571l2.94,0l0,0Zm-1.436,-2.198c0.158,0 0.288,0.041 0.39,0.124c0.101,0.082 0.177,0.19 0.228,0.323c0.051,0.127 0.079,0.273 0.086,0.438c0.012,0.159 0.012,0.321 0,0.485l-1.989,0c0.044,-0.158 0.105,-0.32 0.181,-0.485c0.082,-0.165 0.177,-0.311 0.285,-0.438c0.108,-0.133 0.229,-0.241 0.362,-0.323c0.139,-0.083 0.292,-0.124 0.457,-0.124Z" style="fill:#d9dfde;fill-rule:nonzero;"/><path id="path3561" d="M185.339,61.097l0.419,-0.875c-0.114,-0.115 -0.231,-0.203 -0.352,-0.267c-0.114,-0.07 -0.244,-0.105 -0.39,-0.105c-0.14,0 -0.279,0.054 -0.419,0.162c-0.133,0.102 -0.254,0.213 -0.361,0.333l0.076,-0.38l-0.819,0l-1.018,5.224l0.885,0l0.543,-2.807c0.019,-0.115 0.047,-0.261 0.085,-0.438c0.045,-0.178 0.102,-0.349 0.172,-0.514c0.076,-0.165 0.168,-0.308 0.275,-0.428c0.108,-0.121 0.245,-0.181 0.41,-0.181c0.069,0 0.139,0.019 0.209,0.057c0.07,0.038 0.165,0.111 0.285,0.219l0,0Z" style="fill:#d9dfde;fill-rule:nonzero;"/><path id="path3563" d="M188.71,65.189l0.629,-3.255c0.044,-0.228 0.076,-0.463 0.095,-0.704c0.019,-0.247 -0.003,-0.472 -0.067,-0.675c-0.063,-0.203 -0.181,-0.372 -0.352,-0.505c-0.165,-0.133 -0.409,-0.2 -0.733,-0.2c-0.241,0 -0.463,0.048 -0.666,0.143c-0.203,0.095 -0.387,0.225 -0.552,0.39l0.076,-0.418l-0.799,0l-1.018,5.224l0.894,0l0.562,-2.922c0.038,-0.177 0.086,-0.358 0.143,-0.542c0.057,-0.19 0.133,-0.362 0.228,-0.514c0.095,-0.152 0.212,-0.276 0.352,-0.371c0.14,-0.101 0.308,-0.152 0.504,-0.152c0.153,0 0.267,0.038 0.343,0.114c0.076,0.07 0.127,0.165 0.152,0.285c0.026,0.115 0.029,0.245 0.01,0.391c-0.013,0.145 -0.032,0.295 -0.057,0.447l-0.638,3.264l0.894,0Z" style="fill:#d9dfde;fill-rule:nonzero;"/></g></svg>