<?xml version="1.0" encoding="UTF-8" standalone="no"?><!DOCTYPE svg PUBLIC "-//W3C//DTD SVG 1.1//EN" "http://www.w3.org/Graphics/SVG/1.1/DTD/svg11.dtd"><svg width="100%" height="100%" viewBox="0 0 625 238" version="1.1" xmlns="http://www.w3.org/2000/svg" xmlns:xlink="http://www.w3.org/1999/xlink" xml:space="preserve" xmlns:serif="http://www.serif.com/" style="fill-rule:evenodd;clip-rule:evenodd;stroke-linejoin:round;stroke-miterlimit:2;"><path d="M202.955,2.838c-92.946,0.637 -174.455,81.911 -200.12,194.583c41.175,-105.51 120.206,-170.535 229.284,-192.137c-9.811,-1.715 -19.549,-2.511 -29.164,-2.446Zm37.078,11.577c-59.484,-0.698 -125.934,42.705 -153.967,69.862c58.457,-41.627 142.543,-84.3 212.105,-47.431c1.712,0.896 3.336,1.978 5.162,2.636c-0.844,-1.671 -2.292,-2.894 -3.636,-4.145c-17.545,-14.647 -38.149,-20.67 -59.664,-20.922Zm143.597,6.547c-11.233,30.972 -25.17,55.028 -44.191,80.222l13.089,0c14.067,-25.341 23.981,-51.863 31.102,-80.222Zm-156.45,9.212c37.589,1.006 88.079,16.166 69.402,71.01l11.343,0c24.715,-57.703 -35.155,-70.366 -80.745,-71.01Zm-14.719,15.225c-13.621,-0.1 -27.798,2.919 -41.044,8.76c-40.731,17.96 -62.701,57.579 -49.07,88.492c13.631,30.913 57.7,41.413 98.431,23.453c7.099,-3.142 13.815,-7.045 19.941,-11.589l4.206,-23.666c-8.207,9.705 -19.215,17.801 -31.687,23.307c-35.594,15.694 -73.972,6.818 -85.721,-19.825c-11.748,-26.644 7.583,-60.966 43.177,-76.661c35.594,-15.696 73.973,-6.819 85.722,19.825c3.575,8.113 4.333,17.243 2.316,26.534l0.234,-0.169c2.473,-1.785 4.788,-2.676 6.944,-2.676l7.781,0c0.652,-8.273 -0.633,-16.283 -3.842,-23.572c-8.403,-19.056 -29.002,-31.17 -54.671,-32.15c-0.902,-0.035 -1.809,-0.056 -2.717,-0.063l0,0Zm-94.279,22.925c-54.14,49.438 -78.346,110.897 28.601,118.68c-79.193,-11.667 -73.004,-60.922 -28.601,-118.68Zm95.803,2.271c-5.315,0 -9.688,4.373 -9.688,9.687c0,5.315 4.373,9.688 9.688,9.688c5.314,0 9.687,-4.373 9.687,-9.688c0,-5.314 -4.373,-9.687 -9.687,-9.687Zm10.053,21.817c-0.001,0 -0.001,0 -0.001,0c-2.496,0 -4.549,2.053 -4.549,4.549c0,0 0,0 0,0.001c0,2.495 2.053,4.548 4.549,4.548c0,0 0,0 0.001,0c2.495,0 4.548,-2.053 4.548,-4.548c0,-0.001 0,-0.001 0,-0.001c0,-2.495 -2.053,-4.549 -4.548,-4.549Zm46.279,16.736c-2.156,0 -4.47,0.893 -6.943,2.678l-3.711,2.676c-2.474,1.786 -3.948,4.018 -4.424,6.696l-12.376,69.619c-0.476,2.677 0.205,4.908 2.044,6.693l2.759,2.678c1.839,1.786 3.836,2.679 5.992,2.679l49.317,0c2.156,0 4.472,-0.893 6.946,-2.679l3.709,-2.678c2.473,-1.785 3.947,-4.016 4.423,-6.693l12.377,-69.619c0.476,-2.678 -0.205,-4.91 -2.044,-6.696l-2.758,-2.676c-1.838,-1.785 -3.836,-2.678 -5.992,-2.678l-49.319,0Zm75.069,0l-16.661,93.719l11.319,0l6.664,-37.488l19.405,0l12.853,28.517c0.877,2.142 2.183,3.882 3.922,5.221l2.251,1.74c1.263,0.982 2.148,1.562 2.655,1.741c0.597,0.178 1.705,0.269 3.322,0.269l3.369,0l0.928,-5.222c0.365,-2.053 0.46,-3.348 0.286,-3.883c-0.175,-0.536 -0.992,-1.25 -2.45,-2.142l-1.339,-0.803c-1.295,-0.804 -2.135,-1.384 -2.521,-1.741c-0.28,-0.446 -0.778,-1.428 -1.497,-2.945l-10.071,-21.422l7.545,0c2.156,0 4.366,-0.803 6.628,-2.41l3.867,-2.811c2.579,-1.874 4.116,-4.195 4.608,-6.962l5.569,-31.328c0.476,-2.678 -0.205,-4.91 -2.044,-6.696l-2.758,-2.676c-1.838,-1.785 -3.836,-2.678 -5.992,-2.678l-49.858,0Zm76.688,0l-16.661,93.719l11.32,0l16.659,-93.719l-11.318,0Zm36.986,0c-2.156,0 -4.471,0.893 -6.944,2.678l-3.709,2.676c-2.474,1.786 -3.949,4.018 -4.425,6.696l-12.375,69.619c-0.476,2.677 0.205,4.908 2.043,6.693l2.758,2.678c1.839,1.786 3.836,2.679 5.992,2.679l43.121,0c2.156,0 4.47,-0.893 6.943,-2.679l3.71,-2.678c2.473,-1.785 3.949,-4.016 4.425,-6.693l6.425,-36.149l-31.8,0l-1.667,9.372l20.482,0l-4.261,23.966c-0.238,1.338 -0.486,2.23 -0.745,2.676c-0.153,0.357 -0.69,0.849 -1.609,1.474c-0.92,0.624 -1.619,1.026 -2.1,1.204c-0.465,0.09 -1.507,0.135 -3.124,0.135l-33.148,0c-1.617,0 -2.642,-0.045 -3.075,-0.135c-0.418,-0.178 -0.976,-0.58 -1.674,-1.204c-0.697,-0.625 -1.104,-1.117 -1.22,-1.474c-0.01,-0.446 0.104,-1.338 0.342,-2.676l11.377,-63.997c0.238,-1.339 0.432,-2.187 0.586,-2.544c0.259,-0.446 0.849,-0.981 1.769,-1.606c0.919,-0.625 1.611,-0.983 2.076,-1.072c0.481,-0.179 1.53,-0.267 3.147,-0.267l33.148,0c1.617,0 2.635,0.088 3.052,0.267c0.433,0.089 0.999,0.447 1.697,1.072c0.697,0.625 1.05,1.16 1.061,1.606c0.116,0.357 0.055,1.205 -0.183,2.544l-0.452,2.543l11.319,0l0.952,-5.354c0.476,-2.678 -0.205,-4.91 -2.044,-6.696l-2.758,-2.676c-1.839,-1.785 -3.836,-2.678 -5.992,-2.678l-43.12,0Zm65.593,0l-16.659,93.719l11.319,0l16.659,-93.719l-11.319,0Zm24.052,0l-16.661,93.719l11.319,0l12.209,-68.683c0.381,-2.142 0.448,-4.285 0.2,-6.427l0.428,-0.133l35.942,75.243l11.321,0l16.659,-93.719l-11.319,0l-12.4,69.753c-0.38,2.142 -0.446,4.284 -0.198,6.426l-0.428,0.135l-35.753,-76.314l-11.319,0Zm-275.067,9.372l39.347,0c1.617,0 2.634,0.088 3.051,0.267c0.434,0.089 0.998,0.447 1.696,1.072c0.697,0.625 1.052,1.16 1.062,1.606c0.116,0.357 0.055,1.205 -0.183,2.544l-11.376,63.997c-0.238,1.338 -0.487,2.23 -0.746,2.676c-0.153,0.357 -0.689,0.849 -1.609,1.474c-0.92,0.624 -1.619,1.026 -2.1,1.204c-0.465,0.09 -1.506,0.135 -3.123,0.135l-39.347,0c-1.617,0 -2.644,-0.045 -3.077,-0.135c-0.417,-0.178 -0.974,-0.58 -1.672,-1.204c-0.697,-0.625 -1.104,-1.117 -1.22,-1.474c-0.011,-0.446 0.103,-1.338 0.341,-2.676l11.376,-63.997c0.238,-1.339 0.434,-2.187 0.588,-2.544c0.259,-0.446 0.847,-0.981 1.767,-1.606c0.919,-0.625 1.613,-0.983 2.078,-1.072c0.481,-0.179 1.53,-0.267 3.147,-0.267Zm81.401,0l33.552,0c1.617,0 2.636,0.088 3.053,0.267c0.433,0.089 0.998,0.447 1.695,1.072c0.698,0.625 1.052,1.16 1.063,1.606c0.116,0.357 0.055,1.205 -0.183,2.544l-4.712,26.509c-0.238,1.339 -0.487,2.23 -0.746,2.677c-0.153,0.357 -0.69,0.848 -1.609,1.473c-0.92,0.625 -1.621,1.026 -2.102,1.205c-0.465,0.089 -1.505,0.134 -3.122,0.134l-33.553,0l6.664,-37.487Zm-117.045,53.261c-49.253,24.156 -108.527,35.347 -155.23,6.832c42.076,44.165 111.715,22.72 153.907,0.619l1.323,-7.451Zm-2.525,14.226c-24.919,13.642 -41.761,18.93 -81.608,27.633c23.367,5.478 59.788,1.36 85.224,-8.745l-0.008,-0.035c-0.143,-0.126 -0.286,-0.246 -0.427,-0.383l-2.758,-2.678c-1.838,-1.785 -2.519,-4.016 -2.043,-6.693l1.62,-9.099l0,0Zm327.334,28.685c-0.514,-0.001 -1.029,0.004 -1.542,0.028c-0.734,0.024 -1.425,0.291 -2.112,0.52c-0.514,0.184 -1.036,0.342 -1.533,0.566c-0.582,0.255 -1.127,0.589 -1.63,0.976c-1.375,1.005 -2.753,2.006 -4.129,3.01c-1.217,0.88 -2.423,1.777 -3.644,2.648c-1.082,0.005 -2.165,0.01 -3.246,-0.003c0.6,-2.58 1.185,-5.163 1.777,-7.744c-2.024,0 -4.046,0 -6.07,0c-1.428,6.234 -2.859,12.469 -4.285,18.703c2.024,0 4.048,0.001 6.072,0c0.611,-2.666 1.221,-5.334 1.833,-8c1.012,0.003 2.024,-0.003 3.036,0.005c0.207,0.192 0.385,0.42 0.583,0.625c1.625,1.787 3.247,3.575 4.872,5.362c0.234,0.252 0.46,0.52 0.74,0.724c0.31,0.191 0.649,0.33 0.98,0.481c0.516,0.206 1.026,0.429 1.553,0.608c0.392,0.139 0.811,0.172 1.225,0.184c1.033,0.023 2.067,0.005 3.1,0.011c0.132,-0.585 0.274,-1.168 0.397,-1.756c0.047,-0.281 0.105,-0.612 -0.088,-0.853c-0.221,-0.253 -0.55,-0.367 -0.853,-0.486c-0.47,-0.174 -0.956,-0.304 -1.423,-0.484c-0.252,-0.074 -0.393,-0.311 -0.567,-0.488c-1.474,-1.586 -2.951,-3.167 -4.428,-4.75c-0.201,-0.213 -0.394,-0.433 -0.618,-0.622c0.13,-0.087 0.262,-0.171 0.391,-0.264c1.904,-1.398 3.812,-2.792 5.719,-4.187c0.563,-0.4 1.1,-0.843 1.701,-1.185c0.793,-0.306 1.646,-0.434 2.424,-0.784c0.248,-0.111 0.497,-0.258 0.651,-0.491c0.164,-0.249 0.236,-0.543 0.307,-0.829c0.116,-0.508 0.231,-1.016 0.348,-1.524c-0.514,0.004 -1.027,-0.001 -1.541,-0.001l0,0Zm-312.904,0.001c-1.16,5.065 -2.321,10.132 -3.48,15.197c-0.029,0.133 -0.063,0.264 -0.109,0.392c-0.196,0.063 -0.386,0.176 -0.599,0.158c-2.031,0.004 -4.062,0.005 -6.094,0c-0.194,0.015 -0.362,-0.101 -0.532,-0.178c0.143,-0.692 0.313,-1.379 0.467,-2.069c-2.024,0 -4.047,0 -6.07,0c-0.183,0.796 -0.367,1.59 -0.547,2.386c-0.086,0.363 0.02,0.756 0.259,1.039c0.397,0.492 1.012,0.706 1.552,0.997c0.656,0.354 1.366,0.616 2.107,0.716c0.539,0.084 1.087,0.063 1.63,0.065l6.903,0c0.595,-0.003 1.193,0.021 1.783,-0.073c0.831,-0.113 1.632,-0.381 2.4,-0.711c0.66,-0.283 1.358,-0.507 1.941,-0.941c0.39,-0.287 0.736,-0.678 0.839,-1.164c1.206,-5.271 2.416,-10.543 3.622,-15.814c-2.025,0 -4.048,-0.001 -6.072,0l0,0Zm22.409,0c-1.211,5.285 -2.422,10.569 -3.631,15.853c-0.083,0.331 -0.02,0.694 0.176,0.974c0.27,0.393 0.697,0.634 1.116,0.837c0.326,0.161 0.644,0.335 0.975,0.488c0.595,0.278 1.239,0.448 1.892,0.517c0.459,0.049 0.921,0.031 1.381,0.034c4.995,-0.001 9.989,0.002 14.985,-0.001c0.64,-0.004 1.279,-0.1 1.898,-0.263c0.805,-0.21 1.559,-0.569 2.33,-0.875c0.629,-0.267 1.268,-0.607 1.667,-1.181c0.176,-0.242 0.247,-0.538 0.306,-0.827c1.187,-5.185 2.376,-10.37 3.563,-15.556c-2.024,0.001 -4.048,-0.001 -6.072,0.002c-1.11,4.851 -2.222,9.699 -3.333,14.55c-0.085,0.344 -0.144,0.697 -0.253,1.036c-0.143,0.05 -0.282,0.114 -0.43,0.15c-0.202,0.018 -0.408,0.007 -0.611,0.012c-4.305,-0.002 -8.61,0.004 -12.915,-0.003c-0.195,0.015 -0.362,-0.102 -0.531,-0.178c0.254,-1.18 0.536,-2.354 0.801,-3.531c0.919,-4.013 1.838,-8.025 2.756,-12.038c-2.023,0 -4.046,0 -6.07,0l0,0Zm42.725,0c-1.426,6.235 -2.855,12.469 -4.281,18.703c2.024,0.001 4.046,0 6.07,0c0.989,-4.3 1.966,-8.602 2.958,-12.901c0.067,0.106 0.112,0.225 0.166,0.339c0.353,0.771 0.704,1.544 1.059,2.315c0.486,1.027 0.97,2.053 1.464,3.077c1.145,2.418 2.397,4.783 3.613,7.166c1.483,0.01 2.966,0.002 4.45,0.004c1.852,-1.984 3.71,-3.962 5.562,-5.945c2.235,-2.383 4.458,-4.777 6.698,-7.155c-0.998,4.367 -1.999,8.734 -2.998,13.1c2.023,0.003 4.045,-0.003 6.067,0.004c0.578,-2.489 1.142,-4.98 1.714,-7.469c0.857,-3.746 1.718,-7.491 2.574,-11.238c-2.683,0.003 -5.366,-0.003 -8.049,0.004c-0.17,0.138 -0.303,0.318 -0.459,0.473c-4.038,4.313 -8.076,8.627 -12.114,12.941c-2.125,-4.472 -4.246,-8.946 -6.37,-13.418c-2.708,0.001 -5.416,-0.001 -8.124,0l0,0Zm50.949,0c-1.429,6.234 -2.858,12.469 -4.285,18.703c2.024,0 4.048,0.001 6.072,0c0.533,-2.332 1.07,-4.664 1.6,-6.997c4.07,-0.009 8.142,0.001 12.213,-0.006c0.618,-0.016 1.234,-0.115 1.831,-0.28c0.76,-0.203 1.473,-0.544 2.203,-0.833c0.655,-0.273 1.327,-0.62 1.737,-1.223c0.207,-0.291 0.256,-0.65 0.336,-0.989c0.423,-1.852 0.849,-3.704 1.271,-5.556c0.082,-0.354 -0.013,-0.734 -0.239,-1.014c-0.253,-0.328 -0.618,-0.544 -0.982,-0.727c-0.35,-0.176 -0.698,-0.356 -1.051,-0.525c-0.82,-0.382 -1.729,-0.555 -2.631,-0.553c-6.026,0 -12.05,0 -18.075,0l0,0Zm34.478,0c1.649,6.234 3.3,12.469 4.95,18.703c2.382,0 4.763,0.002 7.145,0c2.236,-3.36 4.472,-6.721 6.709,-10.081c0.827,-1.236 1.643,-2.482 2.478,-3.712c1.002,4.597 1.994,9.196 2.993,13.793c2.333,0 4.668,0 7.001,0c4.506,-6.234 9.013,-12.467 13.517,-18.703c-2.113,0 -4.226,0 -6.339,0c-0.106,-0.006 -0.13,0.129 -0.187,0.192c-3.079,4.655 -6.16,9.307 -9.239,13.961c-0.279,-1.193 -0.538,-2.392 -0.81,-3.587c-0.792,-3.522 -1.58,-7.044 -2.375,-10.566c-2.278,0.002 -4.558,-0.001 -6.837,0c-3.164,4.719 -6.329,9.436 -9.492,14.155c-0.057,-0.149 -0.073,-0.308 -0.111,-0.461c-0.998,-4.564 -1.997,-9.128 -2.992,-13.692c-2.138,-0.003 -4.275,-0.002 -6.411,-0.002l0,0Zm61.915,0c-0.301,0.002 -0.602,0.01 -0.901,0.042c-0.817,0.088 -1.617,0.309 -2.374,0.624c-0.516,0.214 -1.038,0.412 -1.543,0.65c-0.519,0.254 -1.029,0.59 -1.336,1.092c-0.168,0.259 -0.211,0.57 -0.282,0.864c-0.961,4.196 -1.922,8.392 -2.882,12.587c-0.084,0.335 -0.015,0.7 0.187,0.98c0.332,0.478 0.884,0.712 1.386,0.966c0.619,0.328 1.261,0.631 1.955,0.762c0.784,0.181 1.592,0.128 2.39,0.136c5.251,0 10.502,0.002 15.753,0c1.126,0.003 2.236,-0.284 3.268,-0.723c0.705,-0.308 1.459,-0.538 2.086,-1c0.38,-0.282 0.721,-0.66 0.831,-1.133c0.989,-4.31 1.973,-8.62 2.962,-12.93c0.071,-0.273 0.07,-0.573 -0.05,-0.833c-0.186,-0.413 -0.569,-0.695 -0.958,-0.904c-0.395,-0.205 -0.791,-0.407 -1.19,-0.602c-0.833,-0.401 -1.761,-0.58 -2.683,-0.578c-5.238,0 -10.477,0 -15.716,0c-0.301,0.003 -0.601,-0.001 -0.903,0l0,0Zm54.953,0c-5.551,0.003 -11.102,-0.005 -16.653,0.003c-1.423,6.234 -2.855,12.467 -4.279,18.7c2.023,0.001 4.046,0.001 6.07,0c0.533,-2.331 1.072,-4.662 1.6,-6.995c1.631,-0.011 3.261,-0.002 4.892,-0.005c1.585,1.723 3.165,3.448 4.749,5.171c0.211,0.224 0.455,0.417 0.715,0.582c0.588,0.378 1.26,0.59 1.9,0.86c0.379,0.146 0.762,0.295 1.169,0.337c0.565,0.06 1.135,0.049 1.703,0.05c0.612,0 1.225,0 1.838,0c0.093,-0.407 0.185,-0.815 0.279,-1.222c0.075,-0.363 0.197,-0.73 0.153,-1.106c-0.037,-0.289 -0.3,-0.466 -0.54,-0.584c-0.51,-0.243 -1.059,-0.383 -1.589,-0.571c-0.17,-0.064 -0.365,-0.093 -0.483,-0.242c-1.092,-1.125 -2.168,-2.267 -3.252,-3.4c0.834,0.02 1.676,-0.035 2.483,-0.258c0.785,-0.201 1.515,-0.558 2.266,-0.856c0.644,-0.276 1.3,-0.625 1.712,-1.211c0.183,-0.249 0.258,-0.551 0.319,-0.848c0.423,-1.852 0.847,-3.703 1.272,-5.555c0.081,-0.332 0.016,-0.696 -0.181,-0.975c-0.242,-0.351 -0.614,-0.583 -0.986,-0.772c-0.688,-0.342 -1.361,-0.734 -2.116,-0.909c-0.992,-0.267 -2.027,-0.178 -3.041,-0.194l0,0Zm66.349,0c-1.213,-0.037 -2.42,0.223 -3.531,0.7c-0.488,0.202 -0.983,0.392 -1.46,0.617c-0.537,0.263 -1.067,0.616 -1.367,1.149c-0.183,0.334 -0.213,0.721 -0.311,1.083c-0.326,1.421 -0.65,2.842 -0.975,4.264c-0.057,0.226 -0.119,0.466 -0.044,0.697c0.114,0.396 0.458,0.667 0.8,0.867c0.423,0.232 0.855,0.447 1.283,0.67c0.68,0.35 1.43,0.562 2.192,0.628c0.473,0.044 0.949,0.026 1.424,0.03c3.488,0.002 6.976,-0.007 10.465,0.003c0.279,-0.011 0.563,0.023 0.805,0.177c-0.03,0.238 -0.095,0.469 -0.145,0.703c-0.222,0.965 -0.442,1.931 -0.663,2.897c-0.092,0.362 -0.149,0.734 -0.267,1.089c-0.132,0.077 -0.286,0.119 -0.43,0.164c-0.224,0.019 -0.447,0.007 -0.67,0.012c-3.33,-0.001 -6.661,0.001 -9.991,0c-0.177,-0.005 -0.354,0.006 -0.528,-0.012c-0.138,-0.037 -0.26,-0.109 -0.387,-0.166c0.082,-0.444 0.197,-0.881 0.294,-1.322c-2.025,0 -4.05,-0.001 -6.074,0c-0.124,0.545 -0.251,1.089 -0.373,1.635c-0.071,0.307 -0.012,0.64 0.161,0.904c0.234,0.366 0.61,0.611 0.992,0.802c0.361,0.176 0.714,0.369 1.08,0.54c0.797,0.381 1.682,0.568 2.565,0.571c4.371,0.003 8.744,0.001 13.116,0.001c0.5,0.005 1,-0.043 1.492,-0.139c0.742,-0.138 1.452,-0.405 2.145,-0.7c0.47,-0.202 0.959,-0.37 1.405,-0.626c0.541,-0.308 1.074,-0.755 1.228,-1.386c0.401,-1.746 0.8,-3.492 1.202,-5.238c0.076,-0.31 0.033,-0.651 -0.138,-0.923c-0.232,-0.377 -0.615,-0.629 -1.003,-0.824c-0.681,-0.335 -1.343,-0.728 -2.086,-0.909c-0.919,-0.263 -1.882,-0.201 -2.825,-0.208c-3.317,0 -6.634,0.001 -9.95,0c-0.184,-0.005 -0.368,0.007 -0.548,-0.011c-0.14,-0.037 -0.265,-0.109 -0.393,-0.168c0.121,-0.595 0.267,-1.183 0.399,-1.775c0.209,-0.887 0.394,-1.783 0.62,-2.665c0.369,-0.218 0.811,-0.165 1.222,-0.176c2.071,-0.002 4.142,-0.001 6.214,-0.002c1.027,0.005 2.054,-0.009 3.081,0.011c0.204,-0.009 0.396,0.076 0.572,0.172c-0.071,0.444 -0.194,0.878 -0.286,1.317c2.023,0.002 4.046,-0.002 6.069,0c0.098,-0.421 0.194,-0.843 0.292,-1.265c0.055,-0.255 0.139,-0.512 0.103,-0.775c-0.036,-0.32 -0.22,-0.603 -0.45,-0.819c-0.305,-0.286 -0.689,-0.463 -1.057,-0.65c-0.583,-0.299 -1.17,-0.605 -1.811,-0.753c-0.986,-0.264 -2.013,-0.176 -3.021,-0.191l-10.437,0l0,0Zm-202.18,2.953c0.284,0.004 0.569,-0.002 0.853,0.017c0.163,0.011 0.308,0.094 0.452,0.166c-0.059,0.385 -0.166,0.76 -0.247,1.141c-0.323,1.397 -0.636,2.797 -0.966,4.193c-0.01,0.154 -0.179,0.161 -0.287,0.211c-0.206,0.097 -0.436,0.058 -0.655,0.068c-3.532,0.001 -7.066,0 -10.598,0c0.441,-1.932 0.884,-3.862 1.326,-5.794c3.374,-0.003 6.748,-0.001 10.122,-0.002l0,0Zm93.069,0c0.853,0.004 1.707,-0.007 2.561,0.01c0.212,-0.004 0.434,0.054 0.605,0.182c-0.052,0.398 -0.171,0.784 -0.25,1.177c-0.816,3.56 -1.632,7.119 -2.447,10.678c-0.048,0.197 -0.083,0.398 -0.153,0.589c-0.196,0.063 -0.385,0.174 -0.596,0.158c-4.697,0.006 -9.395,0.001 -14.092,0.003c-0.197,-0.005 -0.394,0.005 -0.589,-0.009c-0.144,-0.033 -0.271,-0.111 -0.403,-0.17c0.269,-1.249 0.567,-2.491 0.848,-3.736c0.579,-2.53 1.159,-5.059 1.738,-7.588c0.087,-0.373 0.165,-0.749 0.262,-1.12c0.269,-0.137 0.569,-0.18 0.869,-0.169c3.882,-0.009 7.765,-0.002 11.647,-0.005l0,0Zm41.541,0c0.31,0.004 0.624,-0.002 0.935,0.017c0.164,0.01 0.311,0.093 0.457,0.166c-0.064,0.409 -0.178,0.809 -0.263,1.214c-0.302,1.317 -0.604,2.634 -0.906,3.952c-0.028,0.095 -0.04,0.198 -0.089,0.284c-0.199,0.08 -0.403,0.18 -0.622,0.161c-3.624,0.006 -7.248,0 -10.872,0.002c0.439,-1.932 0.887,-3.859 1.324,-5.791c3.345,-0.01 6.69,-0.002 10.036,-0.005l0,0Z" style="fill:#d9dfde;fill-rule:nonzero;"/></svg>