<?xml version="1.0" encoding="UTF-8" standalone="no"?>
<!DOCTYPE svg PUBLIC "-//W3C//DTD SVG 1.1//EN" "http://www.w3.org/Graphics/SVG/1.1/DTD/svg11.dtd">
<svg width="100%" height="100%" viewBox="0 0 392 298" version="1.1" xmlns="http://www.w3.org/2000/svg" xmlns:xlink="http://www.w3.org/1999/xlink" xml:space="preserve" xmlns:serif="http://www.serif.com/" style="fill-rule:evenodd;clip-rule:evenodd;stroke-linejoin:round;stroke-miterlimit:2;">
    <g transform="matrix(1,0,0,1,0.968103,-27.0526)">
        <path d="M178.468,112.577C179.569,108.278 178.62,103.712 175.899,100.207C173.178,96.701 168.99,94.65 164.552,94.65C128.609,94.65 52.851,94.65 52.851,94.65L12.27,257.411L51.332,257.447C51.332,257.447 58.27,229.349 60.501,220.312C60.934,218.557 62.109,217.077 63.719,216.256C70.214,212.947 86.94,204.425 86.94,204.425C86.94,204.425 91.018,223.644 94.264,238.942C96.554,249.735 106.084,257.455 117.117,257.455C129.887,257.455 144.423,257.455 144.423,257.455L154.171,218.369C154.171,218.369 141.872,218.367 134.748,218.365C131.855,218.364 129.35,216.359 128.716,213.537C126.72,204.646 122.663,186.585 122.663,186.585C122.663,186.585 141.68,177.235 154.172,171.093C160.936,167.768 165.906,161.65 167.775,154.348C170.665,143.059 175.114,125.679 178.468,112.577ZM133.594,136.719C133.849,135.697 133.619,134.613 132.97,133.783C132.321,132.952 131.326,132.467 130.272,132.467C117.697,132.467 82.396,132.467 82.396,132.467C82.396,132.467 76.281,156.996 73.837,166.796C73.66,167.505 73.914,168.253 74.487,168.708C75.059,169.163 75.844,169.242 76.496,168.91C87.323,163.394 119.15,147.177 129.452,141.928C131.521,140.874 133.032,138.975 133.593,136.721C133.594,136.721 133.594,136.72 133.594,136.719Z" style="fill:rgb(217,223,222);"/>
        <g transform="matrix(1,0,0,1,4.57929,0)">
            <path d="M154.983,218.37L145.369,257.455L152.959,257.455L162.703,218.379" style="fill:rgb(217,223,222);"/>
        </g>
        <g transform="matrix(1,0,0,1,17.2465,0)">
            <path d="M154.983,218.37L145.369,257.455L152.959,257.455L162.703,218.379" style="fill:rgb(217,223,222);"/>
        </g>
        <g transform="matrix(1,0,0,1,29.9137,0)">
            <path d="M154.983,218.37L145.369,257.455L152.959,257.455L162.703,218.379" style="fill:rgb(217,223,222);"/>
        </g>
        <g transform="matrix(1,0,0,1,146.371,-123.72)">
            <path d="M154.983,218.37L145.369,257.455L152.959,257.455L162.703,218.379" style="fill:rgb(217,223,222);"/>
        </g>
        <g transform="matrix(1,0,0,1,159.038,-123.72)">
            <path d="M154.983,218.37L145.369,257.455L152.959,257.455L162.703,218.379" style="fill:rgb(217,223,222);"/>
        </g>
        <g transform="matrix(1,0,0,1,171.705,-123.72)">
            <path d="M154.983,218.37L145.369,257.455L152.959,257.455L162.703,218.379" style="fill:rgb(217,223,222);"/>
        </g>
        <path d="M295.533,94.65L205.659,94.65C197.09,94.65 189.621,100.486 187.548,108.801C184.974,119.124 181.507,133.029 178.975,143.185C176.962,151.258 180.212,159.728 187.108,164.383C207.994,178.48 250.861,207.414 259.758,213.42C260.741,214.083 261.199,215.293 260.903,216.44C260.903,216.441 260.903,216.441 260.903,216.442C260.608,217.584 259.578,218.382 258.399,218.382C247.825,218.382 198.983,218.382 198.983,218.382L189.528,256.602C189.528,256.602 243.459,256.595 269.254,256.591C277.115,256.59 283.93,251.154 285.677,243.49C288.207,232.397 291.807,216.61 294.285,205.741C295.98,198.309 292.931,190.599 286.611,186.337C266.24,172.598 222.559,143.137 213.974,137.347C213.085,136.747 212.665,135.655 212.925,134.614C212.925,134.614 212.925,134.613 212.925,134.613C213.18,133.589 214.1,132.871 215.155,132.872C226.339,132.882 285.989,132.932 285.989,132.932L295.533,94.65Z" style="fill:rgb(217,223,222);"/>
        <path d="M377.794,94.65L340.384,94.65L300.005,256.602L337.414,256.602L377.794,94.65Z" style="fill:rgb(217,223,222);"/>
    </g>
</svg>
