<?xml version="1.0" encoding="UTF-8" standalone="no"?><!DOCTYPE svg PUBLIC "-//W3C//DTD SVG 1.1//EN" "http://www.w3.org/Graphics/SVG/1.1/DTD/svg11.dtd"><svg width="100%" height="100%" viewBox="0 0 500 257" version="1.1" xmlns="http://www.w3.org/2000/svg" xmlns:xlink="http://www.w3.org/1999/xlink" xml:space="preserve" xmlns:serif="http://www.serif.com/" style="fill-rule:evenodd;clip-rule:evenodd;stroke-linejoin:round;stroke-miterlimit:2;"><path d="M48.86,113.47l39.37,0l0,9.17l-14.52,0l0,27.65l-10.33,0l0,-27.65l-14.52,0l0,-9.17Zm44.39,4.07l10.21,0l-15,-29.16l-0.22,0.12l0,-0.12l-39.37,0l0,0.08l-15,29.08l10.21,0l10.1,-20l28.95,0l10.12,20Zm0,22l10.21,0l-15,29.11l-0.22,-0.12l0,0.12l-39.37,0l0,-0.08l-15,-29l10.21,0l10.1,19.95l28.95,0l10.12,-19.98Zm20.36,-26l10.39,0l0,21.26c-0.157,1.766 0.302,3.534 1.3,5c1.198,1.137 2.838,1.69 4.48,1.51l10.22,0c1.642,0.18 3.282,-0.373 4.48,-1.51c0.996,-1.467 1.459,-3.233 1.31,-5l0,-21.33l10.33,0l0,23.7c0.309,3.717 -0.892,7.407 -3.33,10.23c-2.923,2.44 -6.696,3.626 -10.49,3.3l-14.9,0c-3.794,0.328 -7.567,-0.859 -10.49,-3.3c-2.438,-2.823 -3.639,-6.513 -3.33,-10.23l0,-23.7l0.03,0.07Zm66.71,0l15.89,0l11.68,23.7l11.68,-23.7l15.88,0l0,36.82l-10.1,0l0,-26.5l-0.09,0l-13.54,26.43l-7.72,0l-13.55,-26.43l-0.09,0l0,26.43l-10.07,0l0,-36.82l0.03,0.07Zm80.71,0l29.73,0c1.802,-0.022 3.602,0.142 5.37,0.49c1.385,0.25 2.698,0.807 3.84,1.63c1.024,0.768 1.814,1.807 2.28,3c0.537,1.459 0.792,3.006 0.75,4.56c0.029,1.301 -0.099,2.6 -0.38,3.87c-0.177,0.86 -0.516,1.678 -1,2.41c-0.42,0.569 -0.959,1.04 -1.58,1.38c-0.652,0.307 -1.32,0.581 -2,0.82l0,0.12c1.891,0.119 3.641,1.054 4.79,2.56c1.061,1.897 1.547,4.062 1.4,6.23c0.065,1.7 -0.197,3.398 -0.77,5c-0.426,1.176 -1.166,2.214 -2.14,3c-0.952,0.745 -2.071,1.246 -3.26,1.46c-1.358,0.258 -2.738,0.382 -4.12,0.37l-32.94,0l0,-36.97l0.03,0.07Zm10.33,14.58l18.29,0c0.791,0.053 1.576,-0.162 2.23,-0.61c1.089,-1.288 1.089,-3.192 0,-4.48c-0.64,-0.48 -1.433,-0.711 -2.23,-0.65l-18.29,0l0,5.74Zm0,13.4l18.52,0c0.93,0.046 1.857,-0.136 2.7,-0.53c0.723,-0.465 1.113,-1.309 1,-2.16c0.145,-0.946 -0.239,-1.899 -1,-2.48c-0.839,-0.411 -1.767,-0.607 -2.7,-0.57l-18.52,0l0,5.74Zm57.71,-28l31.18,0c1.678,-0.057 3.352,0.207 4.93,0.78c1.217,0.452 2.289,1.226 3.1,2.24c0.791,1.002 1.341,2.172 1.61,3.42c0.323,1.471 0.477,2.974 0.46,4.48l0,2.36c0.008,1.104 -0.069,2.208 -0.23,3.3c-0.13,0.911 -0.421,1.791 -0.86,2.6c-0.44,0.764 -1.044,1.42 -1.77,1.92c-0.886,0.583 -1.873,0.997 -2.91,1.22l0,0.12c0.749,0.165 1.482,0.396 2.19,0.69c0.696,0.301 1.31,0.764 1.79,1.35c0.563,0.695 0.979,1.498 1.22,2.36c0.33,1.222 0.481,2.485 0.45,3.75l0,6.23l-10.34,0l0,-4.4c0.132,-1.395 -0.183,-2.796 -0.9,-4c-0.885,-0.855 -2.107,-1.273 -3.33,-1.14l-16.25,0l0,9.57l-10.33,0l0,-36.9l-0.01,0.05Zm10.33,18.08l17.08,0c1.097,0.114 2.191,-0.251 3,-1c0.636,-0.823 0.943,-1.854 0.86,-2.89l0,-1.21c0.179,-1.18 -0.25,-2.374 -1.14,-3.17c-1.126,-0.531 -2.368,-0.768 -3.61,-0.69l-16.19,0l0,8.96Zm55.77,-18.13l10.33,0l0,36.82l-10.33,0l0,-36.82Zm37.38,0l10.33,0l0,27.37l23.21,0l0,9.45l-33.55,0l0,-36.82l0.01,0Z" style="fill:#d9dfde;fill-rule:nonzero;"/></svg>