<?xml version="1.0" encoding="UTF-8" standalone="no"?>
<!DOCTYPE svg PUBLIC "-//W3C//DTD SVG 1.1//EN" "http://www.w3.org/Graphics/SVG/1.1/DTD/svg11.dtd">
<svg width="100%" height="100%" viewBox="0 0 800 600" version="1.1" xmlns="http://www.w3.org/2000/svg" xmlns:xlink="http://www.w3.org/1999/xlink" xml:space="preserve" xmlns:serif="http://www.serif.com/" style="fill-rule:evenodd;clip-rule:evenodd;stroke-linejoin:round;stroke-miterlimit:2;">
    <g transform="matrix(1.39373,0,0,1.39373,-157.497,-118.116)">
        <path d="M397.154,261.667C396.645,263.836 395.093,265.018 393.97,266.91C371.77,259.71 349.67,252.536 326.823,245.121L352.423,324.011C347.329,331.011 342.335,337.87 336.923,345.302C324.383,306.709 312.035,268.702 299.434,229.923C332.51,240.667 364.758,251.142 397.155,261.667M398.455,155.292L398.455,181.663C374.442,199.116 350.171,216.755 325.642,234.579C317.488,231.926 309.503,229.328 300.594,226.431C333.461,202.539 365.754,179.065 398.455,155.292M400.589,263.98C420.906,291.954 440.819,319.38 461.081,347.28L445.807,347.28L400.577,285.095C385.304,306.104 370.316,326.717 355.344,347.311L340.044,347.311C360.344,319.376 380.299,291.911 400.592,263.983M402.542,155.201C435.261,178.965 467.548,202.423 500.598,226.428C491.722,229.311 483.673,231.928 475.547,234.571C451.176,216.872 426.843,199.2 402.547,181.555L402.542,155.201ZM464.252,345.28C458.837,337.873 453.868,331.069 448.738,324.052C457.197,298.002 465.655,271.957 474.362,245.138C451.562,252.528 429.462,259.689 407.371,266.847C406.004,265.126 404.64,263.82 403.971,261.692C436.382,251.167 468.694,240.67 501.722,229.945C489.155,268.626 476.834,306.545 464.25,345.28M284.373,225.042C279.073,232.518 274.056,239.604 268.967,246.787C280.132,281.12 291.277,315.391 302.402,349.599C310.825,352.46 319.02,355.243 327.614,358.159C319.789,368.934 312.038,379.609 304.361,390.183L305.244,392.9L306.918,392.9C314.776,382.1 322.676,371.239 330.618,360.318C336.168,367.763 341.359,374.725 346.483,381.595L454.708,381.595C459.908,374.606 465.092,367.644 470.551,360.307L494.251,392.9L495.937,392.9L496.816,390.194C489.111,379.583 481.353,368.9 473.544,358.143C482.191,355.218 490.405,352.443 498.77,349.615C509.923,315.303 521.063,281.025 532.191,246.781C527.078,239.565 522.07,232.493 516.802,225.053L554.457,212.8L554.867,211.543L552.255,209.648C540.122,213.586 527.879,217.56 515.527,221.571L515.527,195.041C486.035,173.611 456.955,152.483 427.869,131.353L402.269,139.288L402.269,100.67L400.593,99.453L398.693,100.831L398.693,139.263C389.945,136.535 381.66,133.956 373.293,131.35C344.014,152.621 314.859,173.802 285.431,195.185L285.431,221.492C273.138,217.508 260.964,213.561 248.911,209.652L246.311,211.539L246.72,212.801L284.366,225.042M449.731,436.028L449.731,465.957L475.244,480.81L475.244,489.359C463.983,482.874 453.181,476.651 442.307,470.39L442.307,431.645C453.023,425.445 463.825,419.194 475.114,412.664L475.114,421.239C466.841,426.059 458.305,431.031 449.731,436.028M364.084,470.382C353.316,476.588 342.514,482.816 331.095,489.398L331.095,480.835L356.675,465.918L356.675,436.006C348.194,431.089 339.653,426.136 331.183,421.228C330.79,418.399 330.856,415.525 331.377,412.717C342.477,419.133 353.269,425.375 364.084,431.631L364.084,470.382ZM296.617,435.962L296.617,466.038C305.166,470.998 313.617,475.901 322.061,480.802C322.476,483.618 322.409,486.485 321.861,489.279L289.048,470.332L289.048,431.687C299.648,425.558 310.551,419.255 321.756,412.778C322.324,415.537 322.433,418.37 322.079,421.164C313.699,426.034 305.251,430.942 296.616,435.964M517.322,470.273C506.647,476.468 495.762,482.787 484.354,489.411L484.354,480.79C492.683,475.945 501.227,470.978 509.796,465.99L509.796,436.022C501.451,431.153 492.923,426.181 484.382,421.197C483.872,418.378 483.891,415.489 484.44,412.678C495.665,419.153 506.456,425.373 517.322,431.64L517.322,470.273ZM462.847,459.861L462.847,442.11L479.606,433.253L496.293,442.053L496.293,459.976L479.562,468.731L462.847,459.863M503.238,463.501L503.238,438.5C495.394,434.361 487.561,430.224 479.629,426.038C471.676,430.227 463.841,434.353 456.029,438.47L456.029,463.541C464.017,467.721 471.781,471.786 479.644,475.906C487.607,471.719 495.449,467.591 503.244,463.493M309.828,459.855L309.828,442.11C315.282,439.226 320.796,436.31 326.587,433.253L343.271,442.053L343.271,459.976C337.663,462.912 332.132,465.804 326.543,468.731L309.828,459.863M350.216,463.501L350.216,438.5L326.6,426.042C318.647,430.231 310.812,434.357 303,438.474L303,463.545C310.988,467.725 318.752,471.79 326.618,475.91L350.211,463.5M388.079,431.147C395.942,435.685 403.33,439.947 411.29,444.547L388.079,457.952L388.079,431.147ZM387.918,470.573C402.854,461.932 417.585,453.407 432.941,444.52C414.389,433.82 396.541,423.52 378.16,412.92L378.16,500.229C381.815,495.91 384.789,492.401 387.918,488.702L387.918,470.573ZM229.6,470.246C234.962,460.938 240.1,452.02 245.689,442.317C251.234,451.893 256.394,460.808 261.859,470.246L229.6,470.246ZM287,492.162L245.7,420.694C230.275,447.433 215.273,473.436 200.008,499.894C204.101,500.273 208.218,500.332 212.321,500.071C216.438,492.996 220.45,486.101 224.448,479.225L267.016,479.225C271.142,486.333 275.204,493.333 279.254,500.311L371.19,500.311C371.737,497.622 371.749,494.851 371.225,492.157L287,492.162ZM537.97,470.462C543.382,461.029 548.548,452.029 554.126,442.311C559.643,451.854 564.834,460.836 570.398,470.462L537.97,470.462ZM554.143,420.735C540.184,444.885 526.629,468.335 512.914,492.057L393.626,492.057C391.02,494.766 388.046,496.905 385.536,500.269L520.629,500.269C524.763,493.15 528.769,486.244 532.823,479.26L575.433,479.26C579.544,486.346 583.551,493.26 587.618,500.267C591.738,500.675 595.89,500.632 600,500.139C584.66,473.58 569.556,447.425 554.139,420.739" style="fill:rgb(217,223,222);fill-rule:nonzero;"/>
    </g>
</svg>
